<svg xmlns="http://www.w3.org/2000/svg" viewBox="0 0 263.57 26.49"><defs><style>.cls-1{fill:#fff;}</style></defs><g id="Layer_2" data-name="Layer 2"><g id="Layer_1-2" data-name="Layer 1"><path class="cls-1" d="M3.7,26.2H0L3.91.28H8.57L12.48,26.2H8.78l-.7-5.29H4.41Zm3.85-9.31L6.45,8.71,6.35,8H6.14L6,8.71,4.94,16.89Z"/><path class="cls-1" d="M28.81,6.07a8.78,8.78,0,0,1,.27-2.14A5.81,5.81,0,0,1,29.94,2,4.86,4.86,0,0,1,31.49.58a5.61,5.61,0,0,1,5.06,0,4.52,4.52,0,0,1,1.61,1.67,7.47,7.47,0,0,1,.76,2.28,15.85,15.85,0,0,1,.19,2.31l-3.74.35c0-.42,0-.86,0-1.3a5.81,5.81,0,0,0-.23-1.24,2.44,2.44,0,0,0-.48-.86,1,1,0,0,0-.76-.34,1.09,1.09,0,0,0-1,.74,5,5,0,0,0-.28,1.84,3.85,3.85,0,0,0,.26,1.35,10.91,10.91,0,0,0,.69,1.43c.28.5.6,1,1,1.52L35.55,12c.44.66.88,1.31,1.3,2a20,20,0,0,1,1.13,2,13,13,0,0,1,.81,2A6.87,6.87,0,0,1,39.11,20a11.56,11.56,0,0,1-.25,2.47A5.91,5.91,0,0,1,38,24.51a4.46,4.46,0,0,1-1.63,1.43,5.46,5.46,0,0,1-2.57.55,5.76,5.76,0,0,1-2.91-.64,4.44,4.44,0,0,1-1.67-1.69,7.23,7.23,0,0,1-.76-2.42,19.63,19.63,0,0,1-.2-2.8L32,18.59c0,.54,0,1.07,0,1.6a5.44,5.44,0,0,0,.27,1.39,2.45,2.45,0,0,0,.53,1,1.2,1.2,0,0,0,1,.38,1.23,1.23,0,0,0,1.2-.81,5.22,5.22,0,0,0,.35-2,3.68,3.68,0,0,0-.28-1.36,12.53,12.53,0,0,0-.71-1.5l-.47-.77q-.24-.39-.51-.78L32.23,14c-.4-.59-.81-1.21-1.23-1.87a14.52,14.52,0,0,1-1.87-4A7,7,0,0,1,28.81,6.07Z"/><path class="cls-1" d="M58.57,4.2H55V.28H66V4.2h-3.6v22H58.57Z"/><path class="cls-1" d="M82.62,26.2V.28h3.81V26.2Z"/><path class="cls-1" d="M134.92,5.61V20.88a7.5,7.5,0,0,1-.63,2.82,6,6,0,0,1-.62,1,4.18,4.18,0,0,1-.9.88,4.51,4.51,0,0,1-2.93.89,4.58,4.58,0,0,1-3-.89,3.68,3.68,0,0,1-.88-.88,5.92,5.92,0,0,1-.6-1,7.14,7.14,0,0,1-.63-2.82V5.61a7.07,7.07,0,0,1,.63-2.79,6.48,6.48,0,0,1,.6-1,3.75,3.75,0,0,1,.88-.9,4.43,4.43,0,0,1,1.27-.63A5.18,5.18,0,0,1,129.84,0a5,5,0,0,1,1.68.25,4.44,4.44,0,0,1,1.25.63,4.27,4.27,0,0,1,.9.9,6.63,6.63,0,0,1,.62,1A7.43,7.43,0,0,1,134.92,5.61Zm-3.81,15.27V5.61A2.47,2.47,0,0,0,130.62,4a1.06,1.06,0,0,0-.78-.29,1,1,0,0,0-.75.3,1.67,1.67,0,0,0-.37.66,2.63,2.63,0,0,0-.15,1V20.88a2.38,2.38,0,0,0,.53,1.62,1,1,0,0,0,.74.28,1,1,0,0,0,.76-.28,1.52,1.52,0,0,0,.37-.67A2.34,2.34,0,0,0,131.11,20.88Z"/><path class="cls-1" d="M152.66,26.2V.28h3.81v22.4h5V26.2Z"/><path class="cls-1" d="M178.23,26.2V.28H182V26.2Z"/><path class="cls-1" d="M205,14.53,206.93.28h3.7L206.68,26.2h-3.8L198.93.28h3.7l1.9,14.25.14,1.09h.22Z"/><path class="cls-1" d="M227.53,26.2V.28h8.71V4.2h-4.91V11h3.53v4.17h-3.53v7.12h4.91V26.2Z"/><path class="cls-1" d="M253.27,6.07a9.28,9.28,0,0,1,.26-2.14A6,6,0,0,1,254.4,2,4.76,4.76,0,0,1,256,.58a5.61,5.61,0,0,1,5.06,0,4.49,4.49,0,0,1,1.6,1.67,7.21,7.21,0,0,1,.76,2.28,14.63,14.63,0,0,1,.2,2.31l-3.74.35c0-.42,0-.86-.06-1.3a5.82,5.82,0,0,0-.22-1.24,2.44,2.44,0,0,0-.48-.86,1,1,0,0,0-.76-.34,1.09,1.09,0,0,0-1,.74A5,5,0,0,0,257,6.07a3.63,3.63,0,0,0,.26,1.35A10.91,10.91,0,0,0,258,8.85c.28.5.6,1,1,1.52L260,12c.45.66.89,1.31,1.31,2a22.17,22.17,0,0,1,1.13,2,13,13,0,0,1,.81,2,6.87,6.87,0,0,1,.32,2.06,12.24,12.24,0,0,1-.25,2.47,6.12,6.12,0,0,1-.85,2.08,4.51,4.51,0,0,1-1.62,1.43,5.46,5.46,0,0,1-2.57.55,5.71,5.71,0,0,1-2.91-.64,4.54,4.54,0,0,1-1.68-1.69,7.47,7.47,0,0,1-.76-2.42,19.65,19.65,0,0,1-.19-2.8l3.74-.35c0,.54,0,1.07,0,1.6a5.46,5.46,0,0,0,.26,1.39,2.57,2.57,0,0,0,.53,1,1.24,1.24,0,0,0,1,.38,1.21,1.21,0,0,0,1.19-.81,5,5,0,0,0,.36-2,3.89,3.89,0,0,0-.28-1.36,14.29,14.29,0,0,0-.71-1.5l-.48-.77a8.65,8.65,0,0,0-.51-.78L256.69,14c-.4-.59-.81-1.21-1.24-1.87a14.48,14.48,0,0,1-1.86-4A6.74,6.74,0,0,1,253.27,6.07Z"/></g></g></svg>