<svg xmlns="http://www.w3.org/2000/svg" viewBox="0 0 1273.25 730.52"><defs><style>.cls-1{fill:#547e28;}</style></defs><g id="Layer_2" data-name="Layer 2"><g id="Layer_1-2" data-name="Layer 1"><path class="cls-1" d="M1098.23,413c-8.17-3.67-1.89-12.1-6.34-17.69-2.6,1.19,1.83,11-6.11,6.19l.23-.26c2.93,6.5,8,12.54,3.75,22.55-4.72-9.24-9.45-16.62-6.91-26.29l-.49.59c.12-.23.23-.46.35-.68a1.48,1.48,0,0,0,1.1,1.7l-.35.32c-5.24-9.36-8-19.16-5.3-29.93l-.2.17c-.73-6.76-1.14-13.56-2.27-20.24-1.45-8.57,3.71-2.42,5.89-2.87l-.11.1-8.84-17.29.32-.38-1.73,1.44-.9-1.46.31.33c-7.05-4.09-11-9.54-7.84-20.42l10.12,15.85-.27-.28,8.34,5.45c-6.22-9.49-10.22-16.84-15.44-23.18-4.78-5.8-6.56-13.06-3.6-18.27,5.2-9.15-1.7-14.36-3.66-21.34-4-14.36-16.83-25.51-15.51-43.56l15.72,26.82c-4.11-20.52-17.27-37.37-22.13-62.74,4.54,7.41,6.46,10.54,8.37,13.67-4.3-19.74-12.46-38.22-12.62-58.83-.09-11.74-.11-23.84-6.15-34.95-2.83-5.2-1.18-11.37.64-17.07,1.18-3.68,6.18-7.14,3.31-10.84-3.29-4.23-8.17-.23-12,.69-65.66,15.6-129.91,35.54-191.6,63.21-12.49,5.6-15.39,17-4.29,24.22,4.08,2.63,8.47,9.17,16.41,7.85,4.08-.68,12-.75,12.94,7.38,1,8.9-6.92,5-10.65,7-4.73,2.44-10,3.85-15,5.71l-.29-.3c6-1.13,11.93-2.51,18-3.29,3.36-.43,8.22-4.07,9.69,2.26,1.27,5.49-3.88,6.4-7.34,7.62-9.16,3.2-18.55,5.72-27.7,8.92-2.16.76-6.25.72-5.19,5.15l-.25-.33,30.06-9.22c8.47-2.6,11.84-.37,8.09,8.57l.27-.32a9.91,9.91,0,0,0,2.38-1.73c2.14-2.88.35-8.69,6.27-8.72,4.83,0,3.29,3.9,3.43,6.41.29,5.22.06,9.6-7,11.12a179,179,0,0,0-60.83,25.59c-1.08.7-1.72,2.07-2.56,3.13l-.21-.22c15.09-6.16,30-12.8,45.33-18.31a200.18,200.18,0,0,1,32.49-8.53c3.49-.63,10.94-4.26,11.59,2.48s3.57,16.6-9,18.51c-20.75,3.15-39.07,13.14-57.78,21.93l0-.05c4.64,2.85,8.38-.27,12.27-1.94,18.81-8.05,38-14.65,58.35-17.92,10.55-1.71,20.8-3.53,15.63,14.18,6-4.81.18-16.83,10-15.34,10.48,1.6,1.51,12.6,6.79,19.35,1.14-6.68,2.1-12.29,3.29-19.29,7.28,22,4.49,26.6-15.57,28.39-31.93,2.84-58.69,11-80.37,26,24.87-8.2,45.21-16,66.73-19.27,5-.77,10.2-2.42,15.11-1.9,5.41.59,14.43-6.87,15.75,3.79,1.12,9.06,1.43,19-13.76,20.06-24,1.66-46.59,9.52-66.32,24.29,16.75-5.6,33.45-11.38,50.29-16.69,6.23-2,12.78-3.7,19.23-3.91,7.14-.23,19.43-6.54,20.39,2,1.08,9.53,1.43,24.56-16.57,26.61-12.89,1.46-25.21,6.92-36.55,13.79l-.31-.29c11-2.93,22-6,33-8.73,4.07-1,10.16-3.13,12.09-1.31,3.1,2.93-1.41,7.61-2.27,11.64-.38,1.75-.64,3.52-1,5.28l-.24-.19c5.11-1,5.25-6,5.91-9.23,3.14-15.43,15.56-9.25,24.47-11.15.55-.12,1.82.52,1.84.85.5,10.34-4.31,19.56-6.31,29.38-1,4.7-3.56,6.24-8.39,6.38-10.35.3-20.83.45-34.72,5.73,12.21-.58,20.27-.36,28.15-1.47,10.57-1.5,13,2.19,8.92,11.54-.8,1.86-1,4-2.1,9.2,7.25-10.07,5.94-25.4,22-20.53,2,.61,4.44-.07,5.44,2.63,2.89,7.81-10.6,27.8-18.84,27.78a115.3,115.3,0,0,0-44,8c17.67-1,30.46-1.53,43.22-2.48,6.85-.52,8.47,1.6,5.6,7.92-3.89,8.54-7.31,17.28-8.7,27.09,4.45-8.62,9.93-16.88,13.1-25.95,4.47-12.76,13.65-8.95,21.42-6.77,10.19,2.87,1.65,9.41,1,13.93-2.9,20.63-11.82,35-36.09,32.29-3.07-.35-6.37,1.11-9.52,1.89-.47.11-.72,1.11-1.44,2.33,9.43-.72,18.46-1.24,27.44-2.16,6.62-.68,6.64,1.6,5.44,7.46-3.83,18.65-14,27.89-33.56,26.14-4.46-.39-9.12,1.42-13.63,4,7.15,0,14.34-.47,21.43.17,4.12.37,12.42-3.9,11.53,3.15-.78,6.24-.77,16.73-12.52,17.32-22.18,1.11-43.83,5.15-64.38,14.29,19.42-2.78,38.41-8.39,58.1-9,3-.09,7.16-3.29,9.24,1.89.08.2-.21.63-.44.84a4,4,0,0,1-.95.52h0c8.12-4.6,16.75-3.63,25.64-3.28,11.46.45,10.22,8.71,8.44,14.47-1.36,4.4,1.1,17.3-12.31,10.61-3-1.52-7.18,5.85-13.09,3.75-14-5-27.82.37-41.68,1.47-5.26.42-8.57,0-9.22-5.66-7.51,14.2-22.32,10.5-33.43,13.88-8.75,2.67-1.42-9.79-6.84-12.25-5.71,3.73,1.8,14.81-7.12,15.55-8.51.71-15-4.85-17.18-14.17-2.94,2.58.84,9.33-6.71,8-8.2-1.45-6.1-7.39-5.58-12.57-6.17.17-1,9.75-8.12,7.84-2.58-.69-4.69-2-5-5.07q-.84-8.58-1.66-17.15a44.13,44.13,0,0,1,6.94.77c13.6,3.67,27,8.32,41.36,8.37-21.58-5.56-43.15-11-64-19.16C779.27,520,777.49,512.9,780.71,503c-10.57.44-.44,13.62-9.33,15,9.31,6.19,6.62,16.13,9.43,27.18-7.81-6.24-22.7-3.6-14.3-17-8.84-.74-6.3-7.86-8.55-13.74l13.7,3.84c-2.07-1.38-4-3.44-6.2-4-11.52-2.72-10.56-13.2-7.89-19,2.58-5.58,8.5,2.5,13.23,3.64,3.43.82,6.62,2.65,9.91,4l5.1,1.31-.17.2c-7.68-4.3-15.3-8.73-23.08-12.84-3.73-2-6-4-6.44-8.84-2.17-26,10.89-8.55,18.48-6.67l.7-.78c-6.3-8.21-22.35-9.3-17.76-27.25-3.91,19.26-10.65,1.75-15.49,3.63l.15-.16c11.34,9.15,13,20.14,6.24,32.74,1.56,7.59,8.48,15.71-2.2,22.07,10.69,5.73,6.68,16.94,9.82,25.5-4.18-9.11-14.84-15.54-11.6-27.65-8.59-8-12.25-17.2-6.55-28.52-4.34-9.19-6.62-18.21,2.12-26.35l-.19.19c-5.05-6.28-1.51-12.64.49-18.53,2.23-6.55,5-.88,6.81.73,10.62,9.4,21.74,18,39.26,26.12-14.9-11.82-25.7-20.85-37-29.23-10.22-7.57-3-15-.06-22,1.6-3.82,4.12.08,5.79,1.51,4.65,4,9.18,8.15,17.25,15.36-8.14-15.06-27.42-21.31-14.83-38.15-6.46-2-4.72,11.36-11.59,5.12-9.63-8.75-15-19-3.25-30.26l10.53,10.16-.23.22c-1.73-9.17-15.3-17.79-.15-27.79l10.21,15.63-.25-.27c-.35-10.58-8.58-17.65-12-26.88-2.22-6-5.48-12.34,4.58-14.45l-.49,0c-1.09-22.18,2.82-31.61,38-90.68-22.48,19-31.85,43.35-41.81,67.88-7.39-13.36-7.54-15.59-2.1-27.47,14.28-31.18,31.64-59.86,61.79-78.65,9.36-5.84,2.24-13,.15-19.24-2.18-6.54-5.26-12.89-12.45-15.7-1.35,5.15-6.1,5.88-10,7.9-39.31,20.51-75.94,45.23-110.82,72.45-13.31,10.39-16.8,26.39-18.9,42.52-.48,3.68-2.69,7.14-4.09,10.7l-.5-.05,3.56-3.07c2.8,4.76-3,6.77-3.36,10.54v-.06l2.75,1.26-2.77,1.29-.14-.1c-1,4.44-2.19,12.06-6.53,10.37-5.23-2-4.4-8.89-1.79-15,7.55-17.77,14.22-35.93,14.44-55.69-23.89,13-41.53,33.33-65.11,45.22l3.56.59-2,2.23c-.44-1-.88-2.06-1.31-3.1-3-.16-6-.31-8.92-.48,3.17.61,6.89,1.37,6.51,5.25-.48,4.89-6.47,3.05-9.05,5.9-.5.55-3.52,0-3.67-.5-1.29-4.61,3.15-5.58,5.38-8,.61-.67.68-1.81,1-2.74l33.82-29c-15.33-4.86-22.53-2.24-29.71,4.76C488.47,355.93,365.75,415.6,225.52,440.11c-34.75,6.07-69.74,4.63-104.54-.83-6.12-1-13.19-2.23-14.82-9.21-1.49-6.4,4-10.77,8.46-14.33,25.78-20.58,52.76-39.37,82.44-54l-.36.42c1-3.47,3.55-4.68,6.9-4.69l-.4.3c.91-1.47,1.82-1.83,2.72,0l-.09-.32c14.07-10.3,28.69-19.54,45.77-24.12l-.26.35c2.4-.57,2.82-7.36,7-2.23l-.3-.26c13.25-8.06,26.33-16.46,42.19-18.58l0-.07c19.61-10.64,41.18-16,62.16-22.93,2.5-.83,5.17-.36,5.26,3.36l-.45,0c2-2.46,4.38-3.84,7.62-2.3l0-.16c10.37-11.84,25.81-11.54,39.17-16,12.36-4.08,25.3-6.42,38-9.53l-.24.1,13.65-3.08-.07-.19c13.16-2.53,26.31-5.16,39.5-7.5,3.41-.6,7.22-1.41,9.91,2.12l-.17-.24c25.05-11.81,52.58-7.88,78.84-12a324.16,324.16,0,0,0,41.25-9.46l-.13.35,2.79-.05-.17-.34c5-3.38,9.91-6.85,15-10.1,3.21-2.07,5.19-1.47,4.71,2.86l-.47,0c3.39-5.84,7.1-11.4,13.36-14.6l-.1.27h2.7l-.12-.3c7-4.48,10.78-13.2,19.67-15.28l-.3.41,2.55-2.55-.45.31,2.66-.07-.26-.26c4.77-4.85,9.53-9.7,14.32-14.48.48.49.93.93,1.37,1.36l-1.41-1.59,0,5.29-.29-.1c9.6.15,7.38-13.73,16.62-14l0-.18,2.52-2.53-.37.1h2.58l-.23-.22c13.5-11.29,28.6-20.65,40.5-33.84l-.26.26L764,133.62l.28.51-1.11,4-1-.93-.4.83,1.41.11-1.56-4,.17-.42c-1.66.73-4.19,2.55-4.87,2-14.47-11.36-26.78-.77-39.48,3.86-37.9,13.79-77.49,16.64-117.22,18.27-151.19,6.2-299.73-10-445.29-52.28-27.27-7.92-55.76-10.79-84-14.37-3.51-.45-7.45.31-10-3.14l.35.32c-4.65.8-9.9,4.79-13-2.47-4.4.07-8.79,7.3-13.19,0-4.77,2.27-9.55,4.41-15.58-.9,7.78-2,12.5-7.94,20-7.52,5.52-3.05,10.26-8.13,17.5-6.65,4.66-8.16,13.77-4.66,20.36-7.78l-.17.25c8.29-7.09,11.51-7.35,14.8-1.19l-.16-.22c7.8-4.66,13.47-15,25.09-9.46-.11-.59-.19-1.11-.27-1.64l.27,1.5-.25,2.31-.35.1c4.07-5.34,8.27-10.28,15.67-4.95-1-4.78.8-6.14,6.38-4.29l-6.58,4c-.57,3.95-9,2.92-5.86,9.21h0C138.33,45.86,153.09,38,172.26,38.38c-4.35,2.85-6.11,8.18-11.71,9.23l.19-.11c6.66,1.86,9.61-5.83,15.47-6l.19.27c-1.87-2.88,1.1-4.49,2.35-4.62,10.61-1.14,20.89-5.73,31.86-3.24l-.25-.18,10.36-2.9c.66,3.66-6.12,4.51-2.61,8.34h0c10.09-14,24.95-9,38.38-9.66,0,0-.36-.55-.36-.55l0,.39-6.54,8.75-.2-.21c4.63-1,7.54-4.46,11-7.21,5-3.88,10.47-6.61,14.29,1.7h0c2.57-6.54,7.79-2.8,12-3.09l1.91-1.81.85,1.2-3,.33c-.93,2.83-1.85,5.67-2.78,8.5l0-.08c2-4.72,6.67-5.12,10.71-6.54l.06.49c4.86-8.21,10.16-4.84,15.49-.6v0c2.16-6.28,6.71.37,9.64-1.78l-.25.28c3-3.11,6.07-2.69,9.12,0l-.3-.17c6,.61,12.9-5.83,17.81,2.44l-.28-.38,16.95-2.43c-2.46,4.92-9.91,4.33-9.06,10.39l-.25-.26c9-1.85,15.41-15.49,26.95-6v0c8.1-1.22,16.27-3.58,24,1.32l-.2,0c4.06-2.79,7.65-2.94,10.29,1.9.06.12-.35.63-.63.74a2.76,2.76,0,0,1-1.08,0l.22-.17C422,35.94,431.32,30.2,440,38l-.08-.09c7.82-.75,15.68-1.78,22.85,2.79l-.31-.23c16.36-.43,32.28,1.44,47.09,9.06l-.05.06c6.48-6.68,11.94,1.92,18,1.19l-.21.3c2,.07,5.64-.22,5.75.28.67,2.93-2.25,1.27-3.43,2.06l.32-.2c10.22.92,21.32-2.53,30,6.08v-.08c8.58.34,17.66-1.05,24,6.91l0,0c2.67-4.59,6.51-2.87,8.71-.44,2.63,2.9-3.55,2.7-2.79,6.34,7.73-4.12,16-9.26,22.22,2l-.14.27c2.84-3.2,5,1.4,7.62.67l-.26.35c3.89-4.21,5.65-1.84,6.88,2.22l-.25-.21a53.32,53.32,0,0,1,29.53,9.59l-.29-.26c7.26-1.06,13.81-.19,18.13,6.7l-.29-.1c4.92-1.86,7.76,3.41,12.1,3.53l-.17.35c2.78-2,5-1,7,1.29l-4.61,1,.26-.15,8.58,4.37c1.21-4.55,3.67-2.6,6.23-1.28-1.91,3-4.19,1.9-6.43,1,21,1.75,38.71,12.46,57.19,21.08a5.8,5.8,0,0,0,3.16.73c18.84-3.53,39.39,7,59.58-9.71-3.22,6.1-4.74,9-6.26,11.88l.91.88c10.26-7.33,14.34-23.19,31-22.34L839,113.13l-.21-.31c4.32-3,8.4-6.55,13-9,3.85-2,8.19-2.22,10,3.41v0l11.12-17.6-3.54,1.46c-2.94,3.15-3.75,9.56-12.67,6.78,5.72-2.06,6.7-8.39,12.79-6.52l3.32-1.83c3.59-3.2,7.24-5.83,11.64-1.2l0,0,13.32-4.43-.21.23C895,76,901.83,74,906.47,73.15c3.76-.7,0,2.72,0,4.31l-.35-.43c11.09-3.08,16.61-16.14,30.16-16.57l-8.39,9.89.83.87c4.63-3.31,9.14-6.83,14-9.83,1.91-1.19,4.55-1.22,6.86-1.78q-.88,3.26-1.77,6.54s-.21-.22-.21-.22c9.44-2.24,10.76-16.07,23.74-16.4L960.91,62.38l1.65,2q11.73-10.48,23.46-21c2.48-2.23,5.27-4.95,8.54-3.15s-2,4.05-.67,6.44l0,.05c5.58-4.38,10.59-10.23,21.25-6.15l-12.77,6c6,.45,7.17.92,7.71.53,8-5.71,15.86-11.59,23.88-17.25,1.62-1.15,3.84-2.76,5.48.05.15.26-1.78,1.74-2.7,2.69,0,0-.21-.16-.21-.16,5.35,3.45,8.1-6.11,14.18-2.27l-6.92,5.87.79,1.28c11.17-6.11,22.33-12.24,33.54-18.29.36-.2,1.13.35,1.71.54L1078,21l0,0c5.65,1.24,11.18-3.5,18.67.5L1086,27.68c18.46-.54,26.4-20.08,46-15.31l-16.76,12.25.1-.4c11.23-4.1,22.27-8.57,31.74-16.12,3.8-3,13.86.78,12-5-1.81-5.48-11.72-2.09-17.9-1.79C1020.45,7.17,911.79,49,808.79,109.92c-21.31,12.61-47.57,16.87-72.24-.38-45.68-31.93-98.82-45.48-151.76-59.8C444.19,11.68,301.91,6.84,158.42,27.13,104.89,34.71,54.09,51.46,8.61,81.85,4.79,84.4-1,86.76.14,92.17c1.24,6.14,8,6.08,12.69,6.22,79.91,2.49,155.55,27.6,233,43.34,136.78,27.81,274.74,35.13,413.67,20.85,25.51-2.62,50.26-9.43,72.88-21.9,7.67-4.23,12.24.32,18.6,2.92-29.62,22-58.87,43.4-87.86,65.18-28.3,21.25-58.84,31.55-95.32,30.2-85.44-3.17-165.52,22.2-244.54,51.51a930.42,930.42,0,0,0-207,107.81c-9.6,6.65-19.29,13.25-26.67,22.49-11.89,14.91-8.65,24.64,9.85,28.83,18,4.08,36.33,3.06,54.52,2C296.93,442.91,427.59,400,541.23,310.51c19.25-15.16,36.5-32.46,52.65-50.88,3-3.38,5.37-8.28,11.72-5.9-25.19,25.45-50.51,50.48-75.21,76.11a1107.21,1107.21,0,0,0-92.81,110.53c-10,13.56-25.81,18.69-40.67,24.45C352.91,481.9,306,488.72,261,502.4c-25.54,7.77-50.44,17-72.28,32.92a106.78,106.78,0,0,0-30,32.94c-8.93,15.37-7.85,17.7,9.66,18.27,46.69,1.51,90.15-10.84,131.63-31.35,35.52-17.57,67.65-40.18,97.66-65.93,2.92-2.51,6.34-4.42,9.53-6.61l1.23-1.1-1.44.9c-13,21-26.45,41.73-38.91,63-15.12,25.86-25,53.49-24.66,84,0,1.83,0,3.66.09,5.47.64,9.12.15,20.55,9.46,24,10,3.73,16-6.73,21.47-13.48,26.34-32.76,36.26-71.69,41-112.45,1.4-11.95,3.27-23.85,4.87-35.78A80.77,80.77,0,0,1,444,449.33c26.93-27.15,52.66-55.49,79.93-82.77C508,400,499,434.77,497.94,471.48c-1,34.74,3.86,68.49,19.56,99.91,24.48,49,67.72,65.29,119,45.32,45.08-17.58,74.43-45.23,97.73-92.24,5,2.49,6.28,7.6,8.41,11.89C777.4,606.35,838,641.12,911.08,656c38.76,7.87,69.29-13.22,94.24-40.64,36.4-40,50.38-89.57,56.23-142,2.85-25.48,2.3-51-2-81.43,9.91,29.14,17.51,53.68,26.57,77.68,31.7,84,69.49,164.73,130.7,232.11a154.17,154.17,0,0,0,26,23.2c15.66,10.83,26.44,5.77,29-13.15,3.47-25.94-.17-51.76-3.33-77.43-18.25-148.09-73.06-281.43-161.84-401.19-18.47-24.92-32.29-52.78-46.78-80.24-12.1-23-3.55-44.2,1.16-65.58,2-8.93,13.22-12.71,23-14.6,28.35-5.48,57.07-7.92,85.76-10.62a83.71,83.71,0,0,0,8.7-.83c4.24-.84,8.36-3.51,7.7-7.75s-5.56-2.09-8.45-1.95c-29.86,1.38-59.87,1.54-89,9.63-39.24,10.9-51.23,30.79-43,71,3.93,19.21,11.94,36.55,22.42,53.07,55.33,87.2,109.73,174.93,145.92,272.4,25.31,68.15,39.49,138.78,45.93,211,1.32,14.78-.5,29.85-1,44.78-.11,3.24-.17,7.14-3.67,8.52s-6-2-8.5-3.88c-5.4-4.16-10.56-8.63-15.79-13-.2-1.19-.44-2.36-.67-3.55l-.22-.52.33.75c2.4.78.83,2.15.48,3.33l6.87-2.32-.3.26c-10-9.55-22.88-15.76-30.42-28.15-3-5-1.84-6.58,2.94-7.72l-.17.06c-10.81-3-10.34-12.64-12.36-20.83l.2.27c-4.54,1.67,1,6.77-3.45,9.16-2.54-7.73-12-12.55-7.58-22.53l-.3.3c-5.69-13.41-21.85-19.86-23.76-36.9,6.56,4.58,12,9.24,16.06,15.55l-.33.27c8.69,1.09,11.37,10.49,19.69,13.8-13.18-21.51-43.76-29.34-43.8-59.32l-.09.14c1.85-4.66-.21-7.95-3.73-10.74v0l-3.42.72.28-.39c5.5,6.5,5.09,14.45,4.09,22.87q-6.56-14.72-13.12-29.41l.27.39c-1-.92-2-1.85,0-2.73l-.27.07c-7.75-10.45-7.16-22.94-8.53-34.95l-1,0,.69-.77,0,.95,5.4-1-.27.26-10.52-10.68,0,0c-6.93-2.72-14.75-19.94-11.58-26.11,1.83-3.57,4.1,1.5,6.25.17l-.2.19c-7.71-8.31-12.19-17.34-6.36-28.66l-.22.21c-1.19-7.31-7.3-10.67-12.13-15.07-6.59-6-8-12.42-1.52-19.44ZM541.85,511l3.44,2.19,1.88,2.15,2.38,2,1.39,1.89-1.87-1.39c-.56-.9-1.12-1.79-1.69-2.68-.61-.73-1.22-1.45-1.85-2.17-1.23-.81-2.47-1.62-3.69-2.4l.59-.13Zm11.49,22.25,2.5,1.9c.3.21.87.54.84.6a11.41,11.41,0,0,1-.89,1.44c12.35,9.3,12.35,9.3,8.92,19.62-16.85-12.32-17.19-13-10.68-21.65-.14-.73-.28-1.45-.39-2.19-.64-.42-2.48-.54-.4-1.63C553.27,532,553.3,532.63,553.34,533.27Zm13.75,45.54.27-.28a3.67,3.67,0,0,1-.94,0c-.17,0-.27-.33-.4-.51ZM968.76,246.87l1,.13a1.77,1.77,0,0,1-.6-.43c-.29-.61-.57-1.23-.86-1.84l.74-.29ZM598.33,309.7l-.21-.11.48-.32-.76.59Zm100.83,23.06.7.28a1.48,1.48,0,0,0-.55-.4l-1.63.33c.16-.1.32-.27.49-.28A6.59,6.59,0,0,1,699.16,332.76Zm331.28,25.55c-.29.38-.57.77-.85,1.15l.91.39c0-.52,0-1-.06-1.55-.56.3-1.1.62-1.68.88-.09,0-.3-.16-.45-.25ZM710.23,372a2.65,2.65,0,0,1,.25.3l-.55.31ZM532,533.91a2,2,0,0,1,.48.21l-.62.21.45.09C532.17,534.25,532.07,534.08,532,533.91Zm441.37,61.16-.05,1.32,1.51-.6a10.73,10.73,0,0,0-1.4-.68l-1.45.5ZM622,581.35l3.69.41c-.06.35-.12.7-.19,1-1.14-.49-2.29-1-3.27-1.47l1.46-.14Zm-383.35-66c1.51-2.71,2.92-.59,4.36.1,6.42-2.64,11.42-9.29,19.61-6.94l-.24-.25c13.11-3.8,26.21-7.65,39.34-11.38,3.37-1,7.07-2.64,9.3,2h-.5c28.75-13.26,60.41-16.93,90-27.3.47-2.8,2.63-2.13,4.44-2.17l2.9-3.64,5.48-2.1.27.48-.7-.38c-1.72.65-3.45,1.3-5.1,2l1.24,3.48c.22.23.64.49.61.67a8.54,8.54,0,0,1-.59,1.57c-47.8,37.15-97.67,70.83-155.52,90.57-21.36,7.28-43.34,12.7-66,13.91-4.9.26-14.36,2-11.84-7.28,2.08-7.67,6.22-16,14.94-19.71l-.34-.23c6.21-6.31,12.2-12.87,18.71-18.85,5.64-5.18,6.08-4.88,11.39.05l0-.1c1.89-8.59,6.83-13.18,16-12.19ZM703.62,394l-2.58.06c0-.34,0-.68.05-1,.75.4,1.5.79,2.18,1.24.26.92.52,1.83.77,2.75l-.92-.13C703.28,395.94,703.45,395,703.62,394ZM573.91,566.91c1.74-1.24,3.56-2.42,5.48-.55.43.42.08,1.63.09,2.48-1.86-.66-3.71-1.32-5.52-2a7.71,7.71,0,0,1,.65-.63,7.31,7.31,0,0,1,.7-.43Zm116.37-21c-1.9-1-4.15-1.68-3.12-5,1.19,2,2.22,3.71,3.23,5.38l-.45.14Zm314.54-194.83c2-.32,3.5.21,3.63,2.49,0,.36-1,1.16-1.32,1.07-2-.48-2.93-1.71-2.13-3.81l-.5-.33ZM704.14,486.2l-2.76-5.45c.65,0,1.49-.36,1.93-.07,2.39,1.54,1.82,3.59.8,5.53l.72-1.33Zm328.16,5.87c4.74,1.22,2.86,4.29,2,8.58-.8-3.89-1.3-6.33-1.74-8.82-.75-2.17-2.56-4.33,1.29-8.08C1033.14,487.66,1032.72,489.86,1032.3,492.07ZM848.2,614.72c2.08,2.13,6.8.41,7.38,5.35-3.84-.12-7.39,0-7.27-5.3l-.58.62ZM558.18,316l1.51-2,.62.85-2.35.89-4.8,3.48c-.16-.59-.63-1.31-.45-1.75C553.87,314.81,556.2,316,558.18,316ZM580,583.45c.17-.29.32-.59.51-.87.34-.5.69-1,1-1.47l-1.74,2.18c1.3,1.52,4,2.8,2.06,5.21-1.58,2-3.41.29-4.29-1C575.83,584.88,577.32,583.7,580,583.45Zm-13.9,5.31.12,8.92c2.61.67,4.13-6.63,7.2-1.18,1.67,3-.6,6.5-2.73,7.17-5.45,1.7-2.8-4.08-4.52-6,1.23-2.89-6.35-5.87.08-8.71-.79-2.14-5-1.81-3.88-5.32C567.73,585.84,567.73,585.84,566.06,588.76Zm323.4-395.51c3.06,2.23,7.89-3.07,10.09,2.35.2.49-.83,2-1.57,2.27-4.57,1.76-5.92-2.64-8.51-4.68.31,2.91.94,6.18-3.67,5.71-1.08-.11-2.91-1.6-2.88-2.41C883.06,191.7,887.22,194.31,889.46,193.25ZM582.09,598.51c7.81-1.09,6.47,5.49,10.53,11.41-6.75-3.76-10.27-6.31-10.3-11.64l-.42-.17Zm96.13-47.62c-.52,5.29,7.82,7.77,4.06,15.09-2.77-5.24-7.77-8.78-4-15.07l-5.64.26,6.54,19.08c-4-5.77-21.54-7.79-6.29-18.92ZM562.45,563.54c5.86.2,4.41,4.45,3.9,7.7-.11.75-3.37,2-4.13,1.5-4.55-3.1.79-6.16.38-9.35-2.1-.29-5,2.88-6.14-1.18-.34-1.16.47-2.65.75-4C560.1,558.88,562.66,559.84,562.45,563.54ZM867.33,212.39c3.24-1.46,6.56-2.5,7,2.65.3,3.47-3.05,4.1-5.28,3.89-6.24-.57-2.95-3.93-1.44-6.71.35-3.09-3.62-7,1.49-9.1.87-.36,3.17.54,3.48,1.36C874.45,209.33,868.21,209.11,867.33,212.39ZM692.88,411c.07,4,5.49,6.39,3.83,11.11-9.09-1.25-4.07-6.94-3.85-11.07,2.84-1.29.93-8.56,6.41-5.82a5.65,5.65,0,0,1,1.3,9.28C696.24,418.63,695.87,411.37,692.88,411Zm426,93.21c11.86,2.95,3.44,13.77,5.1,15.55l-5.35-15.31-1.47-.88,1-.95ZM992.1,600.68c-1,1.05-1.13,3.69-3.65,2.29-.43-.24-.6-1-.9-1.44l4.92-.53c-7.6-6-4.71-10.37,2-15.27C996.56,591.92,995.73,596.55,992.1,600.68ZM514.61,445.43c-.44-4.85-6.31-10.26,1.76-14.61,1.86,5.73,7.09,10.31,4.09,17.06L514.22,445c3.36,7.42,4.43,14.45-3.84,19.89C512.29,458.53,504.54,450.27,514.61,445.43Zm10.44,65.31c1.16,2.5,3.79,5,.52,7.66-2,1.62-3.24-.38-4.39-1.6-3.46-3.64-8.11-7.13-2.28-12.49-.52-3.81-1.48-7.68,2.32-12.56C522.75,498.85,536.43,501.4,525.05,510.74Zm16,13.44c-1.47-4.77-11.72-6.49-6.83-11.95,2.55-2.84,5.92,6,9.75,8.77,2,1.4,4.15,3.54,4.63,5.7.65,2.86-2.57.67-3.72,1.62,2.16,2.86,4.34,5.77,2.49,9.6-.35.73-1.43,1.11-2.17,1.65,0-9.19-16.78-7.14-13-19.22Zm138.37-7.91c1.22,3.78,8.38,4.54,5.19,12.85-2.33-5.47-8.63-6.67-5.08-12.81,3.58-2.41,1.93-12.53,10.41-7.43,2.58,1.56,6.84,3.8,3.79,8.43C688.26,525.54,684.05,517,679.37,516.27Zm-152-86.56c-.48,2.32-.19,5.54-1.61,6.76-1.8,1.54-2.88-1.22-3.22-2.83-.9-4.24-7.06-8.91.79-12.6-.67-3.25,1.62-7.66,3.15-7,6.11,2.67,5.19,10,7.82,15.11,1.68,3.29,5.76,8.1-2.19,9.61-.5,2-.46,4.55-3.39,4.66-.39,0-1.31-1.59-1.19-2.3.55-3.14,2.82-2.54,5-2ZM696,465.15l.24-.23c1,4.56.31,8.9-3.45,11.75-1,.75-4.47-.42-5.76-1.73-4-4.1,1.19-7,2-10.57a16.38,16.38,0,0,1,2.11-5c1.2-1.91,1.29-5.8,4.74-4.53a9.2,9.2,0,0,1,5.1,5.16C702,463.53,699.36,465.1,696,465.15ZM938.61,599.47c5.57-.19,11.5.78,12.69,6.73.9,4.52-.89,9.95-7.72,11.39-.28-4-.53-7.73-.79-11.4-5.83.37-3.22,10.68-8.17,7.85-5.9-3.37,2.2-7.51,2.42-11.75.05-.94,1-1.84,1.6-2.76L933.83,601l-.2-1Zm163.1-138.31c4.62,5.1,8.39,10.48,6.1,21.41-2.63-9.22-4.36-15.3-6.09-21.38-5.14-8.16-6.69-17-5.45-28.84,3.79,4.2,8.28,6.89,8.42,9.81C1105,448.46,1113.23,456.67,1101.71,461.16Zm-373-20.45c4.42,6.52,2.13,12.94-.17,19.39-.46-7.17-7.46-13.85-1.59-21.41-2-4.05-5.8-7.76-4.56-12.63,1.57-6.21-4.18-15.53,7.12-17.87-6.27-9.57-.47-17.33,2.87-26.32,15.74,17,16,18.73,5.23,34l-8.51-8c-.75,3.77,2.35,5.69,4,8.28C739.2,425.68,736,433.56,728.69,440.71Zm268.8,95.22.14-.17c2.18,5,5.21,11.54,1.17,15.14-4.26,3.8-10.16-1.42-14.59-3.69-5.32-2.73-4.23-9.15-3.08-13.81,2.1-8.47,8.09-2.58,12.28-2C994.54,531.56,1001,530.26,997.49,535.93ZM547.17,425.3c-3.94,7.39-4.75,7.76-6.6,3.71-3.23-7.09-7.34-14.14-7-25l5.09,6.4c-1.81-6.24-.82-11.22,5.86-14,2-.83,4.28-2.57,5,.81,2.29,10.61,12.31,21.07,1,32.1,5.64-4.09,9.39-4.56,12.2,3.62,3,8.83,7.9,17,12,25.5-1-13.81-11.49-24.3-10.56-38.43l-.19.23c-11.89-16.06-12-27.71-.59-33-3.17-4.27-9.93,5.23-11.61-2.24-1.45-6.48-8.08-15.47-.92-19.51,4.47-2.52,4.47,8.6,8,12.67.71.83,1.35,1.71,2,2.56-.71-3.78-2-8.39,3-9.48,5.94-1.3,4,4.81,4.68,7.36,3.69,13.13,8.32,25.79,15.3,37.56-3.45-15.23-8-30-12.37-44.94-1.72-5.92-2.73-11.52,6.25-12.92,7.46-1.16,11.3.11,12.19,8.72,1,9.09,3.86,18,5.92,26.94.18-15.94-2.09-31.37-4.11-46.83-.38-2.86-2.19-7.08,3.24-7.52s5.25,3.32,5.32,7.24c.09,4.9-1,10.14,3.35,15.54,2.55-13.38,4.5-25.9,7.48-38.17,1.33-5.48,7.47-7.91,12.07-7.22,8.73,1.31,1.9,7.32,1.76,11-.24,6.52-1.57,13-2.45,19.49,1.13-9.49,10-15.23,11.65-23.79.56-2.84-.72-5.88,4-5.65,3.89.19,7.09.2,7.43,5.55s1.7,10.8,2.71,16.71c3.62-2.58.28-8.09,5.38-8.14,1.59,0,4.14,1.07,4.63,2.3,1.79,4.49-1.54,8.28-2.62,12.4-.9,3.47-3.22,4.24-6.64,3.76-5.51-.77-11.07-1.11-16.61-1.63,10.33.16,18.8,8.35,29.57,7.1,4-.47,9.7,1.22,6.89,8.75-2,5.38-2.44,10.53-10.61,7.53-7.69-2.82-15.84-4.7-26.47-3.42,13.79,4.13,25.31,7.4,36.68,11.11,3.22,1,7.77,2.5,5.37,7.57C669,398.1,666.63,412.5,649,405.19c-2.52-1-5.57-.77-12.65-1.62,14.49,4.67,24.93,7.77,35.14,11.46,4.35,1.57,10.78,2.66,6.71,10.27-2.85,5.33-2.94,12.45-13.22,9.2-19.19-6.06-28.64-5.92-40.6-2.66,16.35,4.76,36.24-1.91,49,14.79.75-.93,3.54-5.78,9.56-.95,8.63,6.91-1.12,11.29-2.16,16.74-.89,4.64-3.12,8.66-10,5.81-11.75-4.87-23.94-8.6-37-6.48,11.69,2.61,23.55,4.13,34.75,8.81,6.34,2.65,7.69,5.16,1.65,9.52l.21-.2c-.92,7.36-4,9.74-11.72,6.94-11.72-4.24-23.95-6.5-36.52-4.23,6.21,1.72,12.57,2.34,18.82,3.51,23.47,4.38,23.45,4.44,12.84,24.63-.26.48.11,1.29.24,2.48,3.62-1.46,7.43-5.51,10.63.37,1,1.9,3.22,3.61,1.21,5.68-4.4,4.52-7.33-.83-10.31-2.36-11.81-6.08-23.53-11.56-37.15-7.89,13.84,1.86,26.94,5.4,38.73,13.38,3.92,2.65,3,4.73.86,7.87-3.08,4.44-4.91,2.55-7.12-.7-1-1.52-2.68-2.62-4.68-4.52-.88,6.83,9.7,11.5,2.59,16.33-5.62,3.8-10.64-3.7-16.06-5.81-1.6-.63-2.94-1.95-4.41-2.95L625.9,535c9.35,6.75,18.17,13.68,8.87,27.32-5.42-5.25-7-13.21-13.7-16-3.32,4.24,7.74,7.67.11,12.08,2.32,2.11,4.77,4.1,6.94,6.36,2.4,2.5,3.62,5.64,2.37,9-.51,1.35-3,3.35-3.35,3.13-2.65-1.74-5.64-3.54-7.27-6.11-2.38-3.75-3.71-8.17-5.61-12.61l7.25.57c-10.34-7.62-16.76-9.27-28.13-7.22,20.45,3,21,4.19,12.53,27.66-13.63-1.2-3.88-13.77-9.1-19.51l-5.56,9c-3.48-4.42-8.5-7.74-9.22-14.14-3.31,1.81,1.45,8.26-5.55,7.26-5.24-.75-5.34-3.85-5.34-7.63,0-7.12,0-14.24,0-22.57-2.71,3.21-2.72,8.59-8,3.58-6.74-6.44-10.47-13-6.95-22.2-10.53,3.49-13.13-6.66-17.51-11.61-5.54-6.26,1.57-12,5.18-19.5,4.32,10.45,15.68,15,14.12,26.95,6.48-5.41,6.39,6.12,11.74,4.56-6.27-14.35-19.77-24.29-23-40l.3.29c-11.79-7.86-17.06-22.15-10.55-28.6l-.23.19c3.51-7.71,4.86-1.35,6.41,1.12,7.18,11.46,14.22,23,21.31,34.54a145,145,0,0,0-15.46-33.79c-4.29-7-4.56-12.54,2.08-17.79C551.25,426.44,548.54,426.43,547.17,425.3ZM734,339.06c4.87,10.43,7.74,20.6-3.56,28.83-12.93-11.09-4.68-23.47-3.12-37.31,3.07,3.92,5,6.4,6.94,8.88-4.47-11.57-6.45-23,1.61-35.17,5.05,11.64,8.15,22.61,4.89,34.55,4.55.16,3.32-6.6,7.23-3.91,2.41,1.66.63,4.47-.6,6.82C739.9,356.13,738.51,340,734,339.06Zm255.33,92.73c1.47,2.36,3,4.7,4.41,7.09,3.73,6.27,12.92,12,8.66,19.43-3.84,6.71-12.26-.52-18.75-.21-2.68.13-9.32,1.53-7.14-4.43,3-8.12,2.77-18,11.15-23.67-3.27-4.75-.89-9,2-12.51.7-.88,5.13-.1,6.66,1.26,4.56,4.05.45,8.7-.44,12.81C994.62,437.19,991.58,431.3,989.35,431.79Zm-48,144.82.2-.26a24.45,24.45,0,0,0,3.16,3.87c3.71,3,10.23,4.34,8,11.15-1.75,5.41-6.82,3-10.32,2.68-7.29-.73-7.78-6-7.23-12.06.53-5.77.35-11.61.35-17.42,0-3-.56-6.48,3.67-6.44,5.39.06,15-.07,15.39,1.61,1.43,6.12,1.61,13.94-1.24,19.24S946,575.36,941.31,576.61Zm-58.67-3.55.45.09c-2.41,4.94,1.63,8.06,3.3,11.88,1.48,3.37,7.24,6.93,3.32,10-3.43,2.71-10,3.74-14.28,2.44-4.75-1.45-.95-6.88-.88-10.57.08-3.42,1.76-7.1-1.35-9.7-4.65,1,.63,11.89-8.65,7.93-2,3.8,6,8,0,11-2.27,1.17-7.49.35-9-1.5-3-3.65,1.16-7.82,1.58-11.9.51-5,3.26-2.73,5.62-1.68-3.24-5.44,0-11.31,3.48-12.52,9.09-3.16,19.35-6.39,28.28-4.8,3.55.64,1.41,13.56-2.08,22.07C888.71,581,885.68,577,882.64,573.06Zm29.26-4.4h0c-.45,12.58,14.34,14.68,17.84,24.71-9,4.1-17.71-3.93-26.69,1.65-3.32,2.07-6.12-3.47-5.19-8.2a108.81,108.81,0,0,0,2-12.9c.83-11.55,19-21.14,29.5-15.28a5.62,5.62,0,0,1,2.21,4.29c-.1,7.49-.56,15-1,23.7C922.32,581.26,916,576.15,911.9,568.66Zm-519-39.61c1,.25,2,.53,3.06.73s3.18.19.26,1.23h0c9.76-4.22,4.68-16.89,13.56-23.37-2.53,47.08-12.55,90.42-39.25,128.69-2.56,3.67-5.4,9.19-10.85,7.35-4.76-1.6-3.95-7.41-4.2-11.6-3.21-53.19,24.42-94.55,52-135.88-3.68,11.48-5.09,24-14.6,32.9Zm653-191c-13.13-27.89-26.57-55.33-44.69-80.21-35.42-48.64-79.4-82.52-142.21-87.59-11.65-.94-22.53-11.3-36-18.51,64.88-25.71,128.77-42.49,191.21-60.63C1019.61,174.79,1023.88,257.37,1045.86,338ZM717.78,325.61c-11.95-13.42-25.48-22.21-41.26-27.25-5.2-1.66-4.85-5.58-4.83-9.6.12-29,13.11-50.88,36.79-66.84C736.25,203.21,764,184.45,792,166.11c3.39-2.22,8.9-10.61,12.48-.87,2.53,6.87,12,15.1-.44,22.3C784.12,199,768.36,215,755.41,233.85,736.62,261.23,725.57,291.84,717.78,325.61ZM591.34,300.88l59.32-51.29c.69,16.24-6.19,28.12-10.56,40.67-1,3-3.35,3.45-6,3.5C619.75,294,606.14,297.7,591.34,300.88ZM994.77,486.07c-2.93,4.41-1,12.77-9.09,10.18s-23.35,1.62-23.06-6c.35-9.16,1.88-26.46,15.29-27.38C990.48,462,989.38,477.94,994.77,486.07Zm-48.68,34.56c7.64-8.51,4.84-20.49,15.75-21.39,8.43-.69,19.18-2.11,24.67,4.65,3.45,4.23-2.48,12.25-6.74,20.43l-2.95-17C975.94,531.78,959.25,517.86,946.09,520.63Zm16.38-147.41c-3.92-4.32-12.49,2-11.05-6.5a114,114,0,0,1,9.31-30.07c2.94-6.13,6.5,6.57,12.33,1.79,2.71-2.22,3.84,2.33,2.89,4.67C972,353,975.35,366.66,962.47,373.22Zm21.38,12.9c1.67-1.88,3.41-5.14,4.62-4.95,3.06.47,2.89,3.49,2.22,6.12-1,3.85-2.55,7.66-2.83,11.57-1.14,15.82-12.29,10.2-19.62,8.15-9.58-2.69-.15-8.5-.23-12.93,0-3.06,1.8-6.18,2.93-9.23,1.3-3.52,1.28-7.88,7.37-7.32S982.48,382.94,983.85,386.12ZM532.41,494.64c-6.71-4.69-12.64-10-6.64-19.72-3.67-.65-4.24,6.62-6.69,3-4-5.84,1.55-10.41,5.09-16.43C530.17,472.6,549.25,478.46,532.41,494.64Zm251.2,29.54c5.31,2.16,9.79,3.57,13.87,5.75,7.85,4.19,2.44,12.48,5.15,18.38.75,1.63,0,4.23-2.33,3.62-3.78-1-10.17-2.58-10.43-4.57C788.85,539.64,781.93,533.71,783.61,524.18ZM789.47,553c16.72.13,16.68,12.46,19.08,22.42.36,1.47-2.29,4.74-4.18,5.44-3.15,1.16-5.43-1.42-6.5-4.28C795,569,792.39,561.3,789.47,553ZM668.89,407.26c4.34-6.21,8.19-12.79,13.33-18.12,1-1.05,8.43,3.57,7.34,7.33-1.8,6.21-1.23,15.23-9.79,16.83C676.78,413.87,671.42,412.14,668.89,407.26Zm279.2-93.2c-3.67,4.48,4.42,16.95-10.23,17-3.62,0-6.27-.73-4.14-4.59,3.93-7.09-1.27-18.65,9.47-21.87C949.2,302.81,948.32,308.68,948.09,314.06Zm51.83,171.28c3.11-5.52,1.48-14.3,8-16.43,3.31-1.07,5.28,7,4.71,10.64-1,6.44-.27,15.69-6.52,18.09C1002.39,499.09,1002.18,489.85,999.92,485.34Zm7.61-37c-13.23-7.45-9.31-16.23-6.42-24.69,1.25-3.67,4.08-2.62,6.08-1C1017.31,431.08,1005.34,438.74,1007.53,448.36ZM926.07,293.43c4.58-3.13-3.55-14.15,7.41-15.92,4.43-.72,5.51,2.81,4.11,6.46-2.15,5.6,3.24,14.91-7.71,16.2C926.28,300.59,924.24,299.15,926.07,293.43Zm60.56,54.68c-.62,6.58-1.54,12.31-1.58,18.05,0,5.09-2.25,7.72-7,7-6-.95-1.78-5.2-1.43-7.61a180.94,180.94,0,0,1,4-17.88c.63-2.5-.17-6.93,4-6.13C988.31,342.23,986.52,346.27,986.63,348.11Zm28.86,84.95c12.86,10,2.27,20,2.21,29.71,0,.78-2.51,2.4-2.82,2.17a9.9,9.9,0,0,1-3.42-3.83C1007.06,450.89,1014.69,442.72,1015.49,433.06ZM884.11,233.49c1.88-4.61-2.39-14,7.09-12.47,7.67,1.23,3.28,9.67,4.34,14.82,1.27,6.17-3.76,5.78-7.61,5.95C879.9,242.14,885.15,236.45,884.11,233.49ZM819.66,580.23a5.33,5.33,0,0,1-4.76-6.93c1.52-3.66.52-10.79,7.62-9.55,3.72.65,9.56.19,9.52,6.48C832,578.31,824.17,577.27,819.66,580.23Zm101.39,18.61c3.12.52,8.27-1.33,7.05,4.79-.73,3.61.4,10.36-5.51,9.32-4.13-.72-10.36-3.37-10.57-9.16S917.4,599.5,921.05,598.84Zm-72.58-4.28c-4.53-5.88-10.13-11-7-18,1.32-2.93,10-5.51,11.12-3.09C855.67,580.21,852.11,587.21,848.47,594.56Zm101.22-306c-1.73,3.73,3.4,10.76-5.27,11.39-3.48.26-5.91-1.91-4.37-5.35,2.34-5.25-2.43-14.11,5.15-15.73C952,277.38,948.8,284.66,949.69,288.53Zm50.54,229.54c3.61,13.54-11-.88-11.25,7-1.78-.44-4.11-1.21-3-3.32,2.53-4.73,1.5-12.71,8.09-13.55C998.71,507.62,1000.7,512.92,1000.23,518.07ZM743.45,314.43c-3.32-11-8.82-20.19-.35-30.5C746.43,294,751.65,303.09,743.45,314.43ZM673,345.08c-3.37,1.23,2.6,10-6,8.71-2.61-.38-8.38.5-6.94-4.15s1-11.6,7.37-12.67C670.57,336.43,674.54,338.91,673,345.08ZM1014.23,413c-6.83-8.22-9.46-15.46-4.84-23.46,1.48-2.55,4.8-.37,5.49.84C1018.89,397.39,1016.25,404.41,1014.23,413ZM596.42,576.9c2.71,2.9,6.77,5.32,7.52,8.51,1,4.14-2.43,9.15-6.25,9.74-2.41.37-7.36-4.13-8.05-7.15C588.73,584,592.62,580.42,596.42,576.9ZM835.63,608c-5.38-2.11-7.49-6.9-9.08-11.44-1-3,2.48-3.29,4.37-2.56,5.14,2,13.3.11,14.52,7.16C846.45,606.9,837.92,603.65,835.63,608Zm157-265.52c6.74,13.2,1.71,22.75.37,32.25-.08.62-2.21.95-3.39,1.41-.58-1.54-1.81-3.17-1.62-4.6C989.2,363,990.7,354.48,992.67,342.44ZM765.47,538.3c6.57,7.75,16.2,5,16.3,13.88,0,3.05-3.47,8.64-6.12,7.47C769,556.69,768.06,549.29,765.47,538.3ZM957.35,305.16c.86.9,3,2.21,2.87,3.16-1.06,6.71-2.4,13.4-4.09,20-.6,2.33-4.17,3.45-5,1.67-3-6.35,1.76-12.33,2.07-18.66C953.3,309.12,953.28,306.1,957.35,305.16Zm114.82,54.59c-7.5-11.55-7.58-22.08-10.65-32.94C1074.07,334.57,1074.11,345.33,1072.17,359.75ZM541.76,376.53c-.18,5.52,10.58,10.81.84,16.45-2.35,1.36-6.19,6.06-7.94,2.21C531.39,388,538.08,382.71,541.76,376.53ZM680.27,435.7c2.45-3.06,4.73-7.55,8.39-9.82,1.85-1.14,6.3,2.11,5.44,6.16s-2.16,9-6.67,9.91C685.31,442.38,680.91,441,680.27,435.7Zm291-118.85c-3.64,3.77,2.94,12.38-5.85,14.51-3,.73-4.52-2-3.34-4.94,2.17-5.42-.5-13.05,5.49-16.26C970.51,308.58,971.42,313.14,971.28,316.85Zm32.38,40.1c6.69,7.81,2.94,15.18,1.6,22.22-.46,2.4-3.39,1.63-4.45.47-4.84-5.3.46-10.76.24-16.21C1001,361.6,1002.49,359.72,1003.66,357Zm-7.85,34.78c7.41,7,6.57,13.74,3.9,20.19-1.14,2.73-5.71,1.48-6.6-.08C989.22,405,994.44,399.25,995.81,391.73ZM887.48,613.52c2.92-4.48,3.65-11.33,10.63-12.13,1.71-.19,3.78,2.9,5.69,4.49-4.15,3.94-8,8.33-12.58,11.62C889,619.09,887.74,616.23,887.48,613.52ZM625.61,598.3c.28-4.06-.56-9.9,4.43-10.42,3.56-.37,4.71,5,3.94,8.72s1.61,10.16-4.65,10.37C624,607.14,626.37,601.56,625.61,598.3ZM875,617.09c-1.33-4-9.69,3.36-9.43-4.87.1-3,2-8.06,6-8,5.25.14,7.12,5.65,8.95,9.6C882.13,617.34,878.85,617.71,875,617.09Zm86-38.27c.37-1.36-.8-6.19,4.32-5,3.06.71,8.21,1.62,7.63,6.16-.42,3.3-.87,8.84-6.6,8.13C962.32,587.61,960,584.77,961,578.82Zm32.79-15.25c-3.6-2.29-10.55-.42-10.9-7.83-.08-1.81-.9-5.64,2.2-4.45,4.77,1.83,11.24,1.86,13.34,7.84C999.33,561.74,997.64,564,993.77,563.57ZM672.63,496.7c1.74,1.93,6.56,1.82,5.19,5.44s-3,8.66-8,8.58c-1.84,0-5.47-4.28-5.07-5.69C665.76,501.56,667.9,497.91,672.63,496.7ZM609.8,592.84c9.15,4.39,7,9.39,3.5,14.78-1.44,2.25-3.59,5.54-5.55,3.31C602.49,604.94,609.48,599.79,609.8,592.84Zm68.6-231.29c1.78,1.72,5.51,2,4.39,5.3-1.45,4.27-1.72,9.77-6.61,11.72-1.79.71-6-.94-5.25-3.84C672.2,370.09,673.51,365,678.4,361.55Zm41.82,26.83c.62-7.41,1.24-14.81,2-23.47C732.5,374.3,725.69,381.38,720.22,388.38Zm-137-69.57c3.28,16.08,2.55,16.85-12.43,13.06C574.08,326.66,577.77,322.09,583.2,318.81Zm77.66,272.77c-5.43-5.3-9.8-10-5.47-17.19.44-.73,2.72-1.3,3.27-.86C665,578.62,662.15,584.76,660.86,591.58Zm313.95-17.87c-2.73-2.6-9.36-1.07-8.9-7.25.18-2.43,1.75-5.67,5.67-5.4,5,.34,7.09,3.15,6.86,7.87C978.34,571.11,979.58,574.52,974.81,573.71Zm-183.22.44c-5.91-3.16-13.23-4.8-11.92-12.78.26-1.52,3-2.65,4.55-4Q787.91,565.78,791.59,574.15ZM668,307.58c5,10.07,8,16.25,5.48,23.53-.34,1-3.57,2.18-4.31,1.66-6.61-4.71,0-11.11-1.77-16.6C667,314.94,667.54,313.42,668,307.58Zm388.3-14.39c-5.73-8.07-2.65-15.42-2.35-24.12C1062.81,277.32,1059.14,284.71,1056.3,293.19Zm-16.72,187.49c-6.5-12.47-2.29-20.6,2.34-28.73C1041.22,460.47,1040.53,469,1039.58,480.68ZM929.49,622c3,.68,6.15,1.07,5.75,5.16-.37,3.87-2.11,7.39-6,8-2.58.39-6.73-1-6.18-4.4S924.67,622.82,929.49,622Zm84.27-63c-2.4-1.34-6.6-1.51-5.76-5.16.68-2.95.77-8.07,5.86-7.43,2.48.31,6,1.87,5.09,5.64C1018.26,554.8,1018.35,558.78,1013.76,559Zm-2.61-191.19c5.88,6.35,10.38,10.21,8.14,16.82-1,3-3.43,1.78-5.31.82C1006.15,381.36,1012.41,375.42,1011.15,367.76Zm-318.46,5c4.71,5,4.07,9.46.26,13.76-2.56,2.9-5.28.47-6.16-1.12C683,378.55,690.54,377.12,692.69,372.72Zm-52,173.12c5.52,3,13,3.89,13.39,11.06.07,1.22-3,2.61-4.67,3.92Zm-20.79,47.83c-11-8.8-11.33-11.25-3.28-19C617.67,580.87,618.66,586.64,619.87,593.67ZM960,274.68c-4.68,0-5-3.27-5-6.73,0-2.34.35-4.5,3.47-4,3.47.53,6.23,1.8,5.94,6.17C964.23,273,963.48,275.09,960,274.68ZM569.52,354.32c-1.26-10.25-3.66-18.51,10.32-14.61Zm70.75,242c-.74-8.82-1.24-14.73-1.86-22.17C649.2,580.3,646.62,586.75,640.27,596.3Zm321.41,24.75c-4.86-.42-5.52-2.43-4.71-5.34.92-3.34,1-8,5.55-7.92,3.7,0,3.7,3.72,3,6.64S964.9,621.16,961.68,621.05Zm59.17-211.69c4.79,6,8.7,10,6,16.1-1.27,2.81-2.93.57-4.28-.15C1015.15,421.38,1020.52,416,1020.85,409.36ZM697.7,443.31c1.21-2.51,1-7.19,4.47-6.15,3.67,1.11,5.79,5.26,5.29,9.57-.27,2.23-.57,5.94-4.11,4.65A8.32,8.32,0,0,1,697.7,443.31Zm289,19.53c9.74,1.66,18.29,2.21,9.24,14ZM656,318c4.47.42,2.72,4.18,3.34,6.47.71,2.56,2.18,6.15-3.18,5.24-2.72-.47-6-.18-5.87-4.49C650.36,321.32,653.4,320,656,318ZM712.36,486.9c-2.94-5.86-8.66-8.86-6.83-15.22.21-.72,3.09-1.43,3.16-1.31C711.13,475.05,717,478.83,712.36,486.9Zm198.56-254c-3.4.51-4.62-1.44-4.4-4.44.2-2.63-1.68-6.53,2.37-7.35,4.73-1,4.78,3.3,5.43,6.38C914.9,230.28,914.59,232.69,910.92,232.94Zm-11-15.42c3.38,10,3.88,16.36-.69,26.86C897.2,233.86,896.55,227.49,899.9,217.52ZM562.1,342.29c1.64,5,4.3,9.12-.3,12.93-1.37,1.14-4.67,2.45-5.66-.07C554,349.73,559,346.89,562.1,342.29ZM678.64,355c1.9-2.92.32-8.07,5.1-9.35.9-.24,3.58,2.47,3.79,4.05a8.31,8.31,0,0,1-4.69,8.82C680.37,359.71,679,357.78,678.64,355Zm251.14-94.41c4.93-2.19,3.08,11.6,10.62-1.15-2.42,6.61,2.22,13.63-6.09,13C924.29,271.75,932.44,264.19,929.78,260.59ZM1023,474.18c3.21,7.28,4,13.09-1.42,19.25C1019.48,486.67,1017.41,480.93,1023,474.18Zm-3-103.12c-3.89-4.49-8.31-7.49-6.42-13.31.17-.52,2.38-1,3.15-.59C1022.1,360,1022.71,364.46,1020,371.06ZM953.24,227.19c4.15,4.59,9.65,6.6,8.45,13.88C955.25,239.46,950.94,237,953.24,227.19Zm-134,372.12c-6.65-3.77-11.73-6.23-14.77-12.73C813.33,586,816.88,590.17,819.2,599.31ZM1006,34l23.19-5.85C1022.45,36.47,1016.27,37,1006,34ZM544.71,560.5c-7-2.12-6.37-7.32-5.8-12.38.3-2.7,2.19-2.56,3.85-1.37C548.2,550.64,545.69,555.56,544.71,560.5ZM942.82,268c1.1-2-1.56-6.21,3.18-6.33,3.23-.08,4,2.48,3.8,5.22s.9,6.24-3.47,6.47C942.73,273.53,942.67,270.81,942.82,268Zm16.41,32.76c-3.44,0-4.65-1.7-4.36-4.73.23-2.41-.27-5.56,2.87-6.07,2.53-.41,5.12,1,4.91,4.16C962.47,296.71,962.87,300,959.23,300.75Zm38.71-1.43c-7.11-1-6.36-6.1-6.23-10.63,0-.52,2.38-1.69,3.11-1.36C1000.73,290,998,294.86,997.94,299.32ZM592.37,332c1.7-1.41,3.71-4.39,6-4.66,2.55-.3,3.44,3,3.17,5.67-.32,3.2-2.05,4.33-5.19,3.21C594.58,335.51,591.75,336.17,592.37,332ZM1066.9,19.43c-4.36,3.63-8.06,9-15.89,7.49C1054.56,19.64,1061,20.18,1066.9,19.43Zm-405,516.63c2.22-1.91,4-4.49,5.18-4.26,3.53.65,6.45,3.17,6.78,7,.19,2.11-2.09,4.28-4.3,3.26C666.93,540.78,664.81,538.38,661.93,536.06Zm178.76,55.57c-11.17-.89-11.59-5-5.63-12.58ZM942.7,643c8-5.09,6-12.6,13.36-12.21.86.05,2.49,2,2.31,2.63C957.05,638.49,953.34,641,942.7,643Zm15.76-383.35c-1.37-.1-4.41-.8-4.19-5.3.09-1.93.44-3.88,2.86-3.22,2.89.78,6.65.64,7.08,5.14C964.5,259.24,963.19,260.16,958.46,259.66Zm70.22,151.27c-4.68-2.63-7.05-6.07-5.87-11.26.45-2,1.82-3.1,3.86-1.67C1031.61,401.46,1029.71,406,1028.68,410.93ZM984.71,573c.29-2.2-1-5.84,3.45-4.63,2.22.6,5.79,1.06,5.12,4.4-.5,2.5-1.26,6.27-5,6.06C985,578.62,984.85,575.6,984.71,573ZM975,334.36c-2-7.29.65-12.53,2.85-17.83C979.45,322.48,980.32,328.29,975,334.36ZM655.3,305.73c3.46,5.8.57,8.94-3.2,11.54-.55.37-2.86-.49-3.12-1.23C647,310.5,651.64,308.8,655.3,305.73Zm28.26,30.48c-.09-4.92-2.12-9.4,2-12.76.57-.46,3.17.22,3.34.81C690.18,328.85,688.91,332.69,683.56,336.21Zm18,176-11-12.5c.79-.6,1.93-1.91,2.34-1.71C696.73,499.87,700.18,502.21,701.58,512.2Zm-185.29,6.24c9.16,4,4.21,9.88,4.13,15.71C512.43,529.75,517.59,523.81,516.29,518.44ZM922.82,635.78c.56.87,2.92,3.09,2.48,4.16-.94,2.32-3.32,4.06-5.12,6-1.46-1.36-4.14-2.75-4.11-4.07C916.13,639.24,917.76,636.69,922.82,635.78ZM994.2,325.62c6.13,4.47,4.56,9.13,3.44,13.6-.09.36-2.23.79-2.74.37C990.14,335.7,993.27,331.33,994.2,325.62Zm32.72,43.28c4.95,5.83,4.42,10.5,2.85,16.28C1024,380.44,1025.73,375.48,1026.92,368.9Zm-138-159.29c2.27,0,4.25.51,4.46,3.27s-1.64,3.52-3.94,3.76c-2.48.25-4.07-.73-4.39-3.28C884.68,210.48,886.61,209.83,888.92,209.61ZM686.5,487.81c-2.43-1.85-5-2.91-6-4.8a3.18,3.18,0,0,1,3-4.46c2.92.08,5.57,1.69,5.89,4.86C689.54,484.6,687.77,486,686.5,487.81Zm-12.15,4.36c.91-2.77,1.61-5.5,4.2-4.79,2.16.58,4.75,2.37,5.59,4.3s-1.28,4.28-3.71,3.75C678.24,495,676.31,493.27,674.35,492.17Zm-135,71.35c6.16,2.69,7,6.72,5.17,12.76C538.39,573,538.69,568.58,539.33,563.52Zm38.32-211.47,8.76-11.47C586.65,349.63,590.17,357.42,577.65,352.05Zm62.63-49c2.09,4.17,4.09,7.65,2.27,11.62-.19.4-4,.08-4.85-.95C634.49,309.49,638.64,306.86,640.28,303Zm66.52,114.9L712,433.29C704.46,430.35,703.47,426.55,706.8,417.91Zm185.46,216c-2.48-1.85-6-1.5-5.83-4.73.07-1.24,2.11-3.07,3.53-3.38,3.07-.68,4.54,1.88,4.91,4.33C895,631.2,893.23,632.58,892.26,633.9Zm68.39-354c2,.21,3.08,2.06,2.84,5s-2.38,3-4.56,2.82c-2.68-.23-3.43-2.05-3.28-4.39S956.77,279.22,960.65,279.88ZM550.49,551.31c4.71,6.31,3.24,10.41,2,16.16C548.07,562.07,549.49,557.72,550.49,551.31Zm459.74-22.44c-2.64-3.9-3.3-7.14-1.54-10.5.18-.34,2.83-.1,3.51.64C1015.33,522.4,1013.59,525.33,1010.23,528.87ZM717,513.85c-3.73-3.8-6.85-6.45-4.1-11.49C717.71,504.52,719.4,507.65,717,513.85ZM947.12,226.56c2.18.53,2.59,2.48,2.56,4.71,0,2.42-.81,4.23-3.67,3.52s-2.42-3-2.33-5.09C943.76,227.8,944.32,226.26,947.12,226.56Zm-364.3,68c-2.51,3.45-4.94,6.85-9.45,7.08-.48,0-1.85-2.54-1.5-3.18C574.33,294,579.35,296.63,582.82,294.52ZM1110.33,11.21c-5.68,6.16-9.58,5.74-16.57,2.13Zm-104,554.15c.38-2.07.22-4.89,3.48-4.16,1.45.33,3.82,2.23,3.66,3-.41,1.9-1.66,4.53-3.19,5C1008,570,1006.34,568,1006.29,565.36ZM658.42,540.29a15.74,15.74,0,0,1,2.3-1.77c2.31,2.28,4.44,4.76,6.61,7.2-1.05.73-2.85,2.25-3,2.07C662.16,545.74,658,545.47,658.42,540.29Zm356.71-195.83c4,2.72,6.64,4.83,5.68,9.87C1016.58,352.52,1013.48,350.94,1015.13,344.46Zm-36.9,235.81c.37,5.05,1.55,8.58-1.14,11.45-.42.45-3.36-.33-3.46-.87C972.89,587.15,975.06,584.39,978.23,580.27ZM719,488.83l5.29,11.85C720.21,498.37,714.92,496.74,719,488.83Zm282.87-94.29c-1.05-4.91-5.62-5.92-3.46-10,.31-.58,2.78-.6,3.85-.08C1005.92,386.29,1004.53,389.06,1001.83,394.54ZM935.27,227.75c.09-1.94.63-3.93,3-2.77a5.27,5.27,0,0,1,2.41,4c0,1.32-1.7,3.76-2.52,3.71C935.38,232.52,935.75,229.74,935.27,227.75ZM522.83,393.93l2.8,1.46-5.07,12.81-2.23-.88Zm489.87-84.12c-8.07-3.78-9.89-7.65-7.88-15.22ZM924,204.85c4.13,1.31,5.77,3.47,5,6.79-.19.79-2.53,1.94-3,1.62C923.23,211.37,923.27,208.49,924,204.85ZM558.93,371.26c-.61-4.17-4.55-7.2.51-9.39,1.14-.49,3.74-.42,3.91.05C564.72,365.6,561.57,367.51,558.93,371.26ZM918.15,615.32c-4.13,1.91-6.74,2.93-8.9.16-.37-.48.07-2.23.69-2.75C913.22,610,914.64,613.8,918.15,615.32ZM943.52,252c.27-1.22,0-3.45,2.49-3.31,3.3.18,3.65,2.63,3.58,5.29-.06,2.17-1.17,3.21-3.26,3.05C943.35,256.83,943.43,254.6,943.52,252ZM532.18,567.77c-2.2-4.37-2.66-7.51-.27-11.7C535,560.2,534.29,563.35,532.18,567.77Zm374.4-330.19a16.26,16.26,0,0,1,3.95-1.9c2.16-.45,4.62-.19,4.3,2.79-.08.78-2.61,1.58-4.1,1.84S907.06,241.13,906.58,237.58ZM905,625.49c1.89,1.53,4,2.4,4.41,3.77.74,2.46-1.35,4.2-3.56,4.14-1.23,0-3.21-1.92-3.39-3.18S903.9,627.39,905,625.49Zm103.65-279.07c-6.19-2.54-4.36-6.57-3-10.67C1010.91,337.68,1010.32,341.33,1008.65,346.42ZM948.27,626.24,941,639.68C939.85,634.71,940,630.6,948.27,626.24Zm59.54-304.1c1.46,3.1,2.57,4.83,3,6.72.12.55-1.69,1.53-2.62,2.32a30.77,30.77,0,0,1-2.81-5.23C1005.16,325.3,1006.46,324.16,1007.81,322.14Zm-20.38,16.28c-5.14-8.62-3-12.83,0-20.64ZM1036,400.3c-.17-3.83-.35-7.67-.66-14.4C1038.73,392.3,1039.91,396,1036,400.3Zm-475.7-90c3.88-1.91,5.8-5.67,7.79-9.15C571.75,309.67,565.55,309.68,560.28,310.3Zm408.77-7.65c-.58-1.1-1.93-2.49-1.88-3.82.07-1.93.77-5.12,1.89-5.46,2.6-.78,3.38,1.72,3.33,4C972.35,299.35,972.82,301.72,969.05,302.65ZM855.81,192.59c.12-1.44.59-3.07,3-3.25,2.12-.16,3.48.63,3.62,2.91s-1.25,3.11-3.19,3.62C856.69,196.52,856,195.18,855.81,192.59ZM671.47,522.26c5,3.9,8.48,5.87,9.24,11.46C675.56,531.91,672.31,530,671.47,522.26ZM531.66,538.93c4.53,3.32,2.57,6.53,1.85,11.18C529.22,545.91,529.7,542.83,531.66,538.93Zm167.27,2.36c-3.59-4-6-6.38-4.71-11C698.21,532.56,700.19,535,698.93,541.29ZM970.68,292c-1.43-3.67-2.42-5.12-2.44-6.58,0-1.17,1-3.13,1.85-3.36,2.5-.66,2.86,1.53,2.72,3.28C972.68,286.85,971.91,288.29,970.68,292ZM512.89,495.62c-1.61-4.69-1-8.2,3.11-11.63C517.77,489.08,516.82,492.5,512.89,495.62ZM1000,307.8c-1.1,1.54-1.67,3.21-2.51,3.36-2.6.46-3.87-1.38-4-3.7,0-1.16.82-2.34,1.27-3.51Zm32.54,133.36c2.09,4.56,1.73,7.8-.36,11.33C1028.17,448.89,1029,445.63,1032.56,441.16Zm-365,128c4.33,3.29,7.93,4.94,6.6,9.5-.22.78-1.87,2-2.17,1.78C668.43,578.39,668.86,574.63,667.52,569.18ZM616.59,310.51c3.35-2.2,4.86-3.57,6.64-4.28,2.58-1,2.85,1.25,3,2.89.27,2.41-1.43,2.87-3.35,2.64C621.42,311.59,620,311.19,616.59,310.51ZM930.3,246.2c2.29,3.78,3.37,6.17.9,8.9C928.35,252.77,928.43,250.25,930.3,246.2ZM1015,494.62c1.81,2.18,2.74,4.39,1.29,6.82a2.83,2.83,0,0,1-2.69.24C1011.08,498.88,1013.05,496.82,1015,494.62ZM929.1,232.13c-2.83-3.4-3.65-5.72-1.49-8.51C930.93,225.65,930.3,228.31,929.1,232.13ZM589.88,325.91l2.35-8.7c1.15.37,3,.43,3.33,1.16C596.83,321.33,594.35,322.57,589.88,325.91Zm316-124.06c3-.2,4.36.9,4.41,2.93,0,1.18-.56,3.24-1.26,3.42-2.54.67-4-1-4.3-3.4C904.63,203.75,905.58,202.59,905.89,201.85Zm-23.24,2.08c3-1,4.15-1.65,5.32-1.74,1.78-.13,3.9.12,3.28,2.62-.18.73-2.33,1.32-3.58,1.33C886.59,206.14,885.5,205.24,882.65,203.93Zm33.29-2.8c2.72,3.81,4.45,6.47.79,9.67C914.84,208,913.15,205.48,915.94,201.13ZM976.5,548.52c-.3,3.27-.54,5.89-.79,8.51-1.15-.4-3-.48-3.33-1.24C971,552.6,972.77,550.57,976.5,548.52Zm-158,36.77c2.72-1.64,4.29-2.74,6-3.57,1.41-.69,3.34-.44,2.79,1.41-.51,1.69-2.27,3.24-3.86,4.24C822.81,587.76,821.14,586.47,818.49,585.29Zm63.39,17.77c3,.24,4.73.9,4.14,3.22-.29,1.12-1.73,1.94-2.64,2.9l-3.91-4.7Zm-23.72-.76c2.21,4,3.29,5.1,3.11,5.87-.29,1.19-1.46,2.16-2.25,3.22-1-1.13-2.46-2.13-2.79-3.42C856,606.87,857,605.44,858.16,602.3Zm-217.46-43c3.22,2.79,3.8,5.37.43,7.89-.61.47-2.54.4-2.72,0C636.9,564.07,638.69,561.79,640.7,559.33Zm387.65-87.85c-4.27-3.13-4.95-5.9-2-9.55C1029.66,464.34,1029.56,467.24,1028.35,471.48ZM1017.2,330c3,3.46,4,6.23,1.86,10.07C1014.84,337.42,1015,334.42,1017.2,330Zm-64.92-89.65c5.17,3.34,9.07,2.88,11.14,8.36C958.9,247.71,955.31,248.16,952.28,240.33Zm58.5,79.09c-3.52-2.07-6.77-2.87-4.67-7.72C1008.57,313.3,1011.38,314.08,1010.78,319.42ZM1024.52,512c3.92.66,6.56,1.41,6.13,6.15C1027.09,517.54,1025.37,515.84,1024.52,512ZM877,212.86l2.87-2.38c.75,1,1.93,2,2.18,3.12.42,2-.63,3.71-2.82,3.24C878.36,216.65,877.92,214.63,877,212.86Zm44.17,15c-.24.41-5.53-1.74-.43-5.23C921,225.72,921.18,228.26,921.15,227.87Zm-346.93,342c1.92,2.34,3.62,3.52,3.8,4.9.15,1.12-1.53,2.48-2.39,3.73-.7-1-1.81-1.87-2-2.93C573.41,574.13,573.89,572.6,574.22,569.84Zm265.32,3.39L837,570c.77-.55,1.68-1.68,2.28-1.54a13,13,0,0,1,3.39,2Zm5.44,37c2.17-1.38,3.25-2.63,4.23-2.56a5,5,0,0,1,3.16,2.14c1,1.48.23,2.71-1.6,2.43C849.22,612,847.74,611.19,845,610.2ZM702.64,349.33c-.64.56-1.27,1.13-1.9,1.7-1.29-1.84-2.63-3.63-3.74-5.56-.09-.16,1.4-1.23,2.15-1.88Zm303.63,60.23c1,2.32,2,4.34,2.85,6.37-1.19.12-2.81.78-3.49.25C1003.31,414.34,1003.41,412.14,1006.27,409.56ZM1037,422.25l-2.4-.3,1.08-8.5,2.12.29C1037.53,416.58,1037.27,419.41,1037,422.25ZM711.57,521.8c-3.94-2.35-6.47-4.22-5.32-8.57C709.94,514.44,711.22,516.88,711.57,521.8Zm359.89-159.4c2.48,2,3.58,4.07,1.88,7.48C1071,367.83,1069.84,365.76,1071.46,362.4ZM549.91,344.85c-.27,3.53-.44,7-5.38,7.2Zm344-141.28c2.45-.79,3.73-1.66,4.64-1.37s1.71,1.68,2.54,2.59c-1.08.58-2.18,1.64-3.22,1.58S895.91,205.09,893.87,203.57ZM993.18,320l1.87-2.91a30.05,30.05,0,0,1,3.75,3.15c.22.25-.77,1.56-1.2,2.38Zm-181,246.7c-.87-1.94-1.66-3.07-1.82-4.28-.2-1.41.4-3,2.23-1.94.88.53,1.37,2.13,1.53,3.32C814.22,564.43,813.23,565.22,812.19,566.7Zm216.25-67.53c.54,2.31,1,3.34,1,4.36-.05,1.93.13,5.34-3.05,2.77C1024.26,504.6,1026.17,501.94,1028.44,499.17ZM961.84,570c-.69-5.08-1.07-6.15-.93-7.14.35-2.39,1.41-4.67,3.63-1.58C965.21,562.24,963.53,564.86,961.84,570Zm-430-105.3c-3.82-3-6.62-4.16-5.31-7.76C529.85,457.5,529.93,460.29,531.84,464.73ZM700.9,495.85l-1.32,1.41a24.43,24.43,0,0,1-2.54-1.7c-1.69-1.47-3.41-3.37-.27-4.6C697.41,490.71,699.48,494.13,700.9,495.85ZM945.22,238c1.92,1.56,3.37,2.21,3.79,3.26.24.62-1.18,2.67-1.86,2.67a4.18,4.18,0,0,1-3.15-1.87C943.62,241.4,944.58,240,945.22,238Zm-360,334.84c1-.86,1.93-2,2.17-1.89a19.92,19.92,0,0,1,3.1,2.51l-2.4,2.74ZM694.54,356.31c2.92,3.69,1.36,5.66-1.69,7.25C691.17,361.06,691.54,358.91,694.54,356.31ZM933,215.11c1.45-1.14,2.32-2.21,2.7-2.06a10.44,10.44,0,0,1,3.34,2.28c.21.21-.51,1.36-.8,2.08ZM703.13,532.3c-3.18-2.12-5.15-3.93-5-7,0-.33,1.18-1,1.55-.87C702.69,525.55,703.41,528,703.13,532.3Zm205.23,92.83c3.39-1.76,4.29-2.43,5.3-2.69a11.1,11.1,0,0,1,2.88,0c-.57,1.15-.86,2.73-1.77,3.3S912.44,625.6,908.36,625.13Zm120.22-95.42-3.23,2.43c-.25-1-.91-2.14-.64-3s1.45-1.66,2.22-2.47ZM707.21,353.07a12.46,12.46,0,0,1,3.2-.77c.43,0,1.15.95,1.15,1.46a8.69,8.69,0,0,1-.77,2.52Zm263.86-89.15c-1.23-3.25-1.93-4.38-2-5.55-.06-.88.67-1.83,1.05-2.74.85.85,2.18,1.58,2.44,2.58S972,260.54,971.07,263.92Zm-34.68-23.6,1.37-2.92c.84.5,2.41,1,2.38,1.5-.07,1.09-.88,2.13-1.4,3.19ZM1006,574.61c.57,1.81,1.29,2.87,1,3.49a13.13,13.13,0,0,1-2.43,3c-.33-.79-1.08-1.69-.9-2.34C1004,577.56,1004.89,576.5,1006,574.61ZM902.55,213.85c-1.56.91-2.85,2-3.18,1.78a14.15,14.15,0,0,1-2.49-3c.8-.57,1.85-1.78,2.34-1.58C900.34,211.49,901.19,212.63,902.55,213.85Zm-24.36-12.08,2.76,2.61c-.91.74-1.72,1.8-2.75,2.1-.56.17-2.23-1.23-2.15-1.45A17.15,17.15,0,0,1,878.19,201.77ZM951.55,54.56c1.9-1.55,3.21-4.71,6.37-1.82C956.34,55.56,954.46,56.66,951.55,54.56ZM652.1,593.42c1-.6,2.07-1.53,2.36-1.34a3.6,3.6,0,0,1,1.56,2.33c0,.54-1.27,1.12-2,1.69C653.5,595.34,653,594.59,652.1,593.42Zm-78.89,12.39c1.1-.74,1.9-1.69,2.66-1.67a2.85,2.85,0,0,1,2.07,1.67c.46,1.67-.52,2.53-2.18,2A11.23,11.23,0,0,1,573.21,605.81ZM901.46,638.2c-1.33-.78-2.46-1.09-2.83-1.8-.22-.43.73-1.47,1.15-2.25.78.48,1.8.79,2.27,1.48C902.33,636.05,901.76,637.05,901.46,638.2ZM650.38,597.08c-1.56,1.75-2.09,2.88-2.87,3.1-2.24.64-2.16-1.12-1.79-2.43a2.91,2.91,0,0,1,1.83-1.88C648.38,595.78,649.31,596.58,650.38,597.08ZM857,185.5l-2.3-2.59c.77-.68,1.45-1.72,2.33-1.92s1.72.63,2.6,1Zm15.3,11.79c2.77-1.28,3.8-2.07,4.89-2.15.85-.06,1.77.75,2.66,1.17-.71,1-1.25,2.62-2.18,2.9S875.37,198.48,872.27,197.29Zm-270,113.81c.94-1.37,1.34-2.53,2.15-3,1.32-.82,3.34-4.41,4.25-.34C609.27,310.49,606.26,311.46,602.25,311.1Zm104.92,78.06-1.49.92a27.11,27.11,0,0,1-1.47-2.55c-.78-1.71-2.58-4.16,1.35-3.7C706.3,383.91,706.64,387.3,707.17,389.16ZM959.25,592.43c1.39-.62,2.29-1.37,3.12-1.3s1.75.91,2.62,1.42c-.7.82-1.27,2-2.16,2.34C962.38,595.09,961.34,593.92,959.25,592.43ZM531,381.35c-1.68-4.93-.9-6.85,3.47-7.12ZM510.46,495.16c3.32,5.4,3.57,7.64,0,10.14Zm482.9-211.32c-2.09-3.35-2.75-4.43-3.42-5.5.79-.24,1.74-.88,2.35-.63a4.14,4.14,0,0,1,2.23,2.08C994.77,280.51,994.06,281.57,993.36,283.84ZM723.11,519.51l-2,3c-.68-.47-2-1.07-1.91-1.38a5.47,5.47,0,0,1,1.52-2.68C721,518.29,722.1,519.06,723.11,519.51ZM970.86,267.78c2.42,3.22,2.71,5.68-.06,8.45C969.1,273.59,968.29,271.23,970.86,267.78Zm46.76,270.79a13.93,13.93,0,0,1-1.72-2.17c-.1-.18.64-.81,1-1.24a18.76,18.76,0,0,1,2,1.81A10.29,10.29,0,0,1,1017.62,538.57Zm-390-235.29a21.51,21.51,0,0,1,3.48-1.91c.48-.15,1.19.43,1.8.67a13.47,13.47,0,0,1-2.07,2.36C630.5,304.61,629.6,304,627.59,303.28Zm352.5-11.82c-2.82-2.32-1.89-4.66-.38-7.21C982.12,286.6,982,288.9,980.09,291.46ZM864,181.45c.3-.11.78-.39.87-.3a13.49,13.49,0,0,1,1.08,1.49c-.2.1-.52.33-.58.28A19.06,19.06,0,0,1,864,181.45Zm.67,9.63c1.15-.89,1.83-1.82,2.49-1.81s1.44.88,2.15,1.38c-.55.71-1,1.9-1.67,2S866.06,191.88,864.65,191.08Zm113.28,84.54,1.52-3.66c.57.67,1.54,1.3,1.6,2,.08.93-.55,1.93-.88,2.9ZM980.45,304c-2-2.14-3.57-4.48,0-7.11ZM655,549.25c-1.2-1.11-2.28-1.69-2.55-2.52-.17-.55.81-1.48,1.28-2.23.75.67,1.77,1.22,2.17,2.06C656.18,547.08,655.48,548,655,549.25Zm22.44-.85c1.25-1,2.16-2.1,2.52-1.94a3.56,3.56,0,0,1,1.86,2.08c.17.68-.56,1.59-.89,2.4Zm229.07,88c3.63-1.3,5-2,6.42-2.21.6-.1,1.35.69,2,1.08a22.56,22.56,0,0,1-2.42,3.39C912.35,638.89,911.15,638.16,906.55,636.4ZM937.85,247c1.26,2.45,2.16,3.37,2,4.17-.17,1.38,1.05,4.87-2.49,2.83C936.71,253.55,937.58,250.43,937.85,247ZM599.1,610.82a13.28,13.28,0,0,1-2.21-2.58c-.19-.41.41-1.17.65-1.77.75.31,2,.48,2.12,1C599.9,608.23,599.42,609.23,599.1,610.82Zm23.25-3a35.29,35.29,0,0,1-3.39,2c-.11,0-1.12-1.15-1-1.37a27.05,27.05,0,0,1,2.21-3C620.74,606.05,621.3,606.67,622.35,607.84Zm231.8-8.62c.31.88.6,1.69.88,2.5-.63.21-1.64.76-1.82.56a7.78,7.78,0,0,1-1.06-2.25ZM551.46,579.44a15.43,15.43,0,0,1,3.13-1.5c.28-.06,1.24,1.17,1.11,1.51-.29.78-1.09,1.92-1.64,1.9C553.31,581.33,552.6,580.34,551.46,579.44ZM905.75,214.69c1.12-.89,1.79-1.86,2.42-1.83.92,0,1.81.78,2.71,1.22-.57.69-1.08,1.86-1.74,1.95C908.31,216.14,907.36,215.38,905.75,214.69ZM546.26,585.77a14.51,14.51,0,0,1,.61,2.84c0,.22-1,.47-1.53.71a13.09,13.09,0,0,1-1-2.54C544.28,586.61,545.4,586.2,546.26,585.77Zm382.5,57.67c.55.49,1.26.87,1.23,1.16a2.35,2.35,0,0,1-.85,1.73c-.47.22-1.27-.22-1.92-.37Zm59.49-340.93c.27.63.8,1.29.66,1.74s-.89.92-1.38,1.37a5,5,0,0,1-.31-1.79C987.31,303.36,987.86,303,988.25,302.51Zm-287,245.56,1.42-1.31a5.33,5.33,0,0,1,.29,1.45c0,.27-.56.78-.64.74A5.37,5.37,0,0,1,701.2,548.07Zm345.42-525,.84,1.26c-.31.17-.67.52-.93.46A7.18,7.18,0,0,1,1045,24C1045.56,23.69,1046.08,23.36,1046.62,23.05ZM869.4,628.23l.61-1.8a5.54,5.54,0,0,1,1.69.82c.16.17-.22,1.33-.45,1.36A5.46,5.46,0,0,1,869.4,628.23Zm221.23-196.91c-.08-.8-.14-1.44-.2-2.07.48,0,1.34-.08,1.37.05a4.26,4.26,0,0,1,0,1.88C1091.81,431.29,1091.06,431.28,1090.63,431.32ZM900.08,616.16l1.43-1c.15.28.49.63.41.82a9.83,9.83,0,0,1-.92,1.51ZM539,361.74l.94,1.33c-.28.15-.54.41-.82.44a2.64,2.64,0,0,1-.91-.25C538.49,362.79,538.73,362.31,539,361.74ZM920,238.53l.47-1.92c.58.21,1.66.43,1.65.62a9.19,9.19,0,0,1-.61,2.28C921,239.2,920.47,238.89,920,238.53ZM660.46,570c-1-1.35-1.84-2-1.86-2.67a7.49,7.49,0,0,1,.95-2.66c.54.59,1.39,1.11,1.52,1.78C661.23,567.29,660.8,568.24,660.46,570ZM928,238.72l1-1.88a7.44,7.44,0,0,1,1.4,2c.13.44-.51,1.1-.8,1.66Zm45.5,364.18c.62.24,1.42.34,1.79.79.19.24-.35,1.09-.56,1.67l-2.42-1.19C972.71,603.74,973.09,603.32,973.51,602.9Zm-372.37-4,1.78-1.69c.17.29.55.67.47.87a10.36,10.36,0,0,1-1,1.65Zm268-402.52a11.53,11.53,0,0,1,1.74,2.25c.09.22-.77,1.22-1.13,1.19a10,10,0,0,1-2.51-.89ZM546.67,324.86l.88-1.69,1.9,1.21c-.41.46-.76,1.17-1.25,1.3S547.21,325.18,546.67,324.86ZM905.49,193.92l2.34,2.45a7.73,7.73,0,0,1-2.17,1.29c-.4.09-1.46-.73-1.42-1A11.28,11.28,0,0,1,905.49,193.92Zm-29.71-5.66,1.05,2.14c-.58.26-1.25.82-1.73.69a8.21,8.21,0,0,1-2.14-1.32Zm-4.19-5.16a8.54,8.54,0,0,1,2.87-.46c.44.08.68,1.18,1,1.81a15.21,15.21,0,0,1-3,.53C872.27,185,872,184,871.59,183.1Zm107.92,77.18c.38.62,1,1.16,1,1.73s-.5,1.19-.79,1.78c-.37-.55-1-1.08-1-1.64S979.2,261,979.51,260.28ZM544.59,580.57l-3,1.66c-.25-.6-.84-1.33-.67-1.77.26-.69,1-1.6,1.59-1.65S543.71,579.76,544.59,580.57ZM888.9,81.14l-.76-.42c.22-.2.51-.6.63-.56a4.18,4.18,0,0,1,.92.69ZM848.43,100l.78-.29c0,.34.1.69.16,1a2.49,2.49,0,0,1-.83-.13C848.43,100.54,848.47,100.2,848.43,100ZM979.11,310.66l-.58.38-.1-.6Zm7.18,5.24c-.2-.33-.38-.61-.56-.89a7.79,7.79,0,0,1,1.47-.74c.13,0,.42.45.64.7Zm-383.16,8.28-.42-1.5c.25.07.69.12.7.22A4.83,4.83,0,0,1,603.13,324.18Zm85.11,13.89c.35.19.91.41.89.51a12.53,12.53,0,0,1-.56,1.77c-.28-.19-.81-.39-.79-.55A10.07,10.07,0,0,1,688.24,338.07ZM1025,345.71l.86-1.55c.2.24.61.52.56.69a8.77,8.77,0,0,1-.7,1.49Zm.68,46.07a8.73,8.73,0,0,1-.59-1.59c0-.17.38-.43.6-.65a11,11,0,0,1,.66,1.6C1026.39,391.29,1026,391.55,1025.69,391.78Zm8,41c.18-.25.32-.59.57-.7s.44.28.67.44l-.92,1.08C1033.86,433.33,1033.76,433.05,1033.65,432.78ZM705.54,496.23c.08-.31.17-.63.26-1,.24.1.66.17.68.31a2.45,2.45,0,0,1-.19.93Zm8.74,33.24a3.12,3.12,0,0,1,.39-.89c.07-.08.71.15.72.27a1.12,1.12,0,0,1-.29.87C715,529.82,714.56,529.57,714.28,529.47Zm303.52,0h1.51c-.21.19-.43.54-.64.53S1018.15,529.71,1017.8,529.48ZM517.09,539.65l.58-.81a11.8,11.8,0,0,1,.89,1.52c.05.12-.39.43-.61.65Zm133.36,30.26.93-1.69a8,8,0,0,1,1.07,1.34c.09.17-.3.85-.42.83A7.38,7.38,0,0,1,650.45,569.91Zm-18.33,11.3-.43.83-.35-.88Zm354.13,5c-.21-.23-.64-.51-.6-.68a10,10,0,0,1,.66-1.6c.22.22.67.49.63.65A7.25,7.25,0,0,1,986.25,586.2ZM554.94,596l.51.73-.9.06Zm426.67,16.65c.21-.23.47-.68.62-.64a10.31,10.31,0,0,1,1.61.63c-.23.21-.48.63-.67.6A6.17,6.17,0,0,1,981.61,612.67Zm-11.53,9.46c.27-.54.54-1.09.82-1.63.27.2.8.49.76.61a11.5,11.5,0,0,1-.76,1.73Zm-108.91.36c.22.26.57.5.6.78s-.35.47-.54.71c-.22-.23-.61-.46-.6-.69S861,622.76,861.17,622.49Zm34.75,1.39,1.19.29-.44.74ZM974.41,46.33l-.81-.57a9.37,9.37,0,0,1,1.52-.83c.15,0,.47.36.71.56Zm-443,351.91-.66.4,0-.72ZM696.75,339l.54-.36.06.6Zm-154.49-8.86-.54.38-.08-.61Zm474.86-6-.39-.53.59-.1Zm-37.87,293,.61-.41.08.65ZM810.92,581.47l.73.69c-.24.24-.47.67-.71.67s-.49-.41-.74-.64C810.45,582,810.69,581.72,810.92,581.47Zm50.54-382-.4-.65.69-.05ZM820,162l-.4-.57.59-.1Zm195.32,380.49-.73.46-.08-.74Z"/></g></g></svg>