<svg xmlns="http://www.w3.org/2000/svg" viewBox="0 0 316.48 181.58"><defs><style>.cls-1{fill:#5d2f15;}</style></defs><g id="Layer_2" data-name="Layer 2"><g id="Layer_1-2" data-name="Layer 1"><path class="cls-1" d="M43.5,102.66c2-.91.47-3,1.58-4.39.65.29-.46,2.74,1.52,1.54l-.06-.07c-.73,1.62-2,3.12-.93,5.61,1.17-2.3,2.35-4.13,1.72-6.54l.12.15-.09-.17a.37.37,0,0,1-.27.42l.09.08a9.84,9.84,0,0,0,1.31-7.44l0,0c.18-1.67.29-3.37.57-5,.36-2.13-.92-.6-1.47-.71l0,0,2.2-4.29-.08-.1.43.36.22-.36-.08.08c1.76-1,2.74-2.37,2-5.08L49.8,80.72l.06-.06L47.79,82a68.92,68.92,0,0,1,3.84-5.76c1.19-1.45,1.63-3.25.89-4.54-1.29-2.28.43-3.57.91-5.31,1-3.57,4.19-6.34,3.86-10.82l-3.91,6.66c1-5.1,4.29-9.29,5.5-15.59L56.8,50c1.07-4.9,3.1-9.5,3.14-14.62,0-2.92,0-5.92,1.53-8.69.7-1.29.29-2.82-.16-4.24-.29-.91-1.54-1.78-.82-2.69s2-.06,3,.17A265.9,265.9,0,0,1,111.1,35.68c3.11,1.39,3.83,4.23,1.07,6-1,.65-2.11,2.28-4.08,1.95-1-.17-3-.19-3.21,1.84-.25,2.21,1.72,1.25,2.64,1.73a34.07,34.07,0,0,0,3.73,1.41l.07-.07c-1.48-.28-3-.63-4.46-.82-.83-.1-2-1-2.4.56-.32,1.37,1,1.6,1.82,1.9,2.27.79,4.61,1.42,6.88,2.22.54.18,1.56.17,1.29,1.27l.07-.08-7.47-2.29c-2.11-.64-3-.09-2,2.13l-.06-.08a2.19,2.19,0,0,1-.59-.43c-.54-.72-.09-2.16-1.56-2.17-1.2,0-.82,1-.86,1.6-.07,1.29,0,2.38,1.75,2.76a44.53,44.53,0,0,1,15.12,6.36,3.77,3.77,0,0,1,.63.78l.05-.05c-3.75-1.54-7.45-3.19-11.26-4.56a51.09,51.09,0,0,0-8.08-2.12c-.87-.15-2.72-1-2.88.62s-.89,4.13,2.24,4.6c5.16.78,9.71,3.27,14.36,5.45h0c-1.15.71-2.08-.07-3-.48a62.34,62.34,0,0,0-14.51-4.46c-2.62-.42-5.17-.87-3.88,3.53-1.51-1.2,0-4.19-2.48-3.81-2.61.39-.38,3.13-1.69,4.8L87.46,61c-1.81,5.46-1.12,6.61,3.87,7.06,7.94.7,14.59,2.73,20,6.46-6.19-2-11.24-4-16.59-4.79A15.25,15.25,0,0,0,91,69.25c-1.34.15-3.58-1.71-3.91.94-.28,2.26-.36,4.73,3.42,5a30.62,30.62,0,0,1,16.49,6c-4.17-1.39-8.32-2.83-12.51-4.15a17.9,17.9,0,0,0-4.78-1c-1.77-.06-4.82-1.63-5.06.48-.27,2.37-.36,6.11,4.12,6.62a22.87,22.87,0,0,1,9.08,3.42l.08-.07c-2.74-.73-5.46-1.49-8.21-2.17-1-.25-2.53-.77-3-.32-.77.72.36,1.89.57,2.89.09.44.16.88.24,1.31l.06-.05c-1.27-.24-1.31-1.49-1.47-2.29-.78-3.83-3.87-2.3-6.08-2.77-.14,0-.46.13-.46.21-.13,2.57,1.07,4.86,1.57,7.3.24,1.17.88,1.56,2.08,1.59a23.6,23.6,0,0,1,8.63,1.42c-3-.14-5-.09-7-.36-2.63-.37-3.22.54-2.22,2.87a17.52,17.52,0,0,1,.52,2.28c-1.8-2.5-1.48-6.31-5.46-5.1-.49.15-1.1,0-1.35.65-.72,1.94,2.63,6.91,4.68,6.91a28.71,28.71,0,0,1,11,2c-4.4-.24-7.58-.38-10.75-.61-1.7-.13-2.1.39-1.39,2A24,24,0,0,1,82,111a53.34,53.34,0,0,1-3.25-6.45c-1.11-3.17-3.39-2.23-5.32-1.68-2.54.71-.42,2.34-.26,3.46.72,5.13,2.94,8.71,9,8a7.56,7.56,0,0,1,2.37.47c.11,0,.18.28.36.58-2.35-.18-4.59-.3-6.83-.53-1.64-.17-1.65.39-1.35,1.85,1,4.64,3.47,6.93,8.34,6.5a6.06,6.06,0,0,1,3.39,1c-1.77,0-3.56-.11-5.32,0-1,.09-3.09-1-2.87.78.19,1.55.19,4.16,3.11,4.3a44.21,44.21,0,0,1,16,3.56c-4.82-.7-9.54-2.09-14.44-2.23-.75,0-1.78-.82-2.29.47,0,0,.05.16.11.21a.86.86,0,0,0,.23.13h0c-2-1.14-4.16-.9-6.37-.82-2.85.12-2.54,2.17-2.1,3.6.34,1.09-.27,4.3,3.06,2.64.76-.38,1.79,1.45,3.25.93,3.47-1.24,6.92.09,10.36.36,1.31.11,2.13,0,2.29-1.4,1.87,3.53,5.55,2.61,8.32,3.45,2.17.66.35-2.44,1.69-3.05,1.43.93-.44,3.68,1.77,3.87s3.75-1.21,4.28-3.53c.73.65-.21,2.33,1.66,2,2-.36,1.52-1.83,1.39-3.12,1.53,0,.25,2.42,2,2a1.43,1.43,0,0,0,1.24-1.26c.14-1.42.27-2.84.41-4.26a10.91,10.91,0,0,0-1.72.19c-3.38.91-6.71,2.06-10.28,2.08a140.28,140.28,0,0,0,15.9-4.76c2.7-1.06,3.14-2.83,2.34-5.28,2.62.11.11,3.38,2.32,3.73-2.32,1.54-1.65,4-2.35,6.76,1.94-1.55,5.65-.9,3.56-4.23,2.2-.19,1.56-2,2.12-3.42l-3.4,1a5.3,5.3,0,0,1,1.54-1c2.86-.68,2.62-3.28,2-4.71s-2.11.62-3.29.9a16.7,16.7,0,0,0-2.46,1l-1.27.33,0,0c1.91-1.07,3.81-2.17,5.74-3.19a2.47,2.47,0,0,0,1.6-2.2c.54-6.46-2.71-2.13-4.59-1.66l-.18-.19c1.57-2,5.56-2.32,4.42-6.78,1,4.79,2.64.44,3.85.91l0,0c-2.82,2.27-3.24,5-1.55,8.13-.39,1.89-2.11,3.91.55,5.49-2.66,1.42-1.66,4.21-2.44,6.34,1-2.26,3.68-3.86,2.88-6.87,2.13-2,3-4.28,1.63-7.09,1.08-2.29,1.64-4.53-.53-6.55l.05,0c1.25-1.56.37-3.14-.13-4.6-.55-1.63-1.24-.22-1.69.18a37.56,37.56,0,0,1-9.76,6.49c3.71-2.94,6.39-5.18,9.2-7.26,2.54-1.88.75-3.73,0-5.48-.39-1-1,0-1.44.38-1.15,1-2.28,2-4.28,3.82,2-3.75,6.81-5.3,3.68-9.49,1.61-.48,1.17,2.83,2.88,1.28,2.4-2.18,3.74-4.72.81-7.52l-2.62,2.52.06,0c.43-2.27,3.8-4.42,0-6.9l-2.54,3.88.06-.06c.09-2.63,2.13-4.39,3-6.68.55-1.5,1.36-3.07-1.14-3.6h.12c.27-5.51-.7-7.85-9.44-22.54C125,61,127.31,67,129.79,73.1c1.83-3.33,1.87-3.88.52-6.83-3.55-7.75-7.87-14.88-15.36-19.55-2.33-1.45-.56-3.23,0-4.78s1.31-3.21,3.1-3.91c.33,1.28,1.51,1.46,2.48,2A180.81,180.81,0,0,1,148,58c3.31,2.59,4.18,6.56,4.7,10.57a11.85,11.85,0,0,0,1,2.66h.12l-.88-.76c-.7,1.18.75,1.68.83,2.62v0l-.69.32.69.32,0,0c.26,1.1.55,3,1.63,2.58,1.3-.51,1.09-2.21.44-3.73-1.88-4.42-3.53-8.93-3.59-13.85,5.94,3.25,10.33,8.29,16.19,11.24l-.89.15.49.56.33-.78c.74,0,1.49-.07,2.22-.12-.79.16-1.71.35-1.62,1.31.12,1.22,1.61.76,2.25,1.47a1.1,1.1,0,0,0,.91-.13c.32-1.14-.78-1.38-1.34-2a2,2,0,0,1-.25-.68l-8.4-7.2c3.81-1.2,5.6-.55,7.38,1.19,25.46,24.78,56,39.61,90.82,45.71a79.21,79.21,0,0,0,26-.21c1.52-.24,3.28-.55,3.69-2.29s-1-2.68-2.11-3.56A113,113,0,0,0,267.5,89.91l.09.1a1.57,1.57,0,0,0-1.71-1.16l.1.07c-.23-.36-.46-.45-.68,0l0-.08a34.61,34.61,0,0,0-11.37-6l.06.09c-.59-.14-.7-1.83-1.75-.56l.08-.06c-3.29-2-6.55-4.09-10.49-4.62v0c-4.88-2.64-10.24-4-15.45-5.7-.63-.2-1.29-.09-1.31.84h.11a1.45,1.45,0,0,0-1.9-.58v0c-2.57-2.94-6.41-2.87-9.73-4-3.08-1-6.29-1.6-9.45-2.37l.06,0-3.39-.76,0,0c-3.27-.63-6.54-1.28-9.82-1.86-.85-.15-1.8-.36-2.46.52l0-.06c-6.23-2.93-13.07-2-19.6-3a80.58,80.58,0,0,1-10.25-2.35l0,.08h-.69l0-.08c-1.24-.84-2.46-1.71-3.72-2.52-.8-.51-1.29-.36-1.18.72l.12,0A8.42,8.42,0,0,0,150,52.91l0,.06h-.67l0-.08c-1.74-1.11-2.67-3.28-4.88-3.8l.07.11-.63-.64.11.08-.66,0,.06-.06q-1.77-1.82-3.56-3.6l-.34.34.35-.4v1.32l.07,0c-2.39,0-1.83-3.41-4.13-3.48v0l-.63-.63.1,0h-.64l0-.06c-3.35-2.8-7.11-5.13-10.06-8.41l.06.07,1.83-.46-.07.13.28,1,.24-.23.1.21-.35,0,.39-1,0-.1c.41.18,1,.64,1.21.5,3.6-2.82,6.66-.19,9.81,1,9.42,3.43,19.26,4.14,29.14,4.54,37.58,1.54,74.5-2.48,110.68-13,6.78-2,13.86-2.68,20.87-3.57.87-.11,1.85.07,2.5-.78l-.09.08c1.16.19,2.46,1.19,3.23-.62,1.1,0,2.19,1.82,3.28,0,1.19.56,2.38,1.1,3.88-.22-1.94-.5-3.11-2-5-1.87-1.37-.76-2.55-2-4.35-1.66-1.15-2-3.42-1.16-5.06-1.93l0,.06c-2.05-1.76-2.86-1.82-3.67-.29l0-.06c-1.94-1.16-3.35-3.73-6.24-2.35,0-.15.05-.28.07-.41l-.07.37.06.58.09,0c-1-1.32-2.06-2.55-3.9-1.23.26-1.18-.2-1.52-1.58-1.06l1.63,1c.14,1,2.24.72,1.46,2.29h0c-3.11-3.2-6.78-5.16-11.54-5.06,1.08.71,1.52,2,2.91,2.29l-.05,0c-1.66.46-2.39-1.45-3.84-1.5l-.05.07a.74.74,0,0,0-.59-1.15c-2.63-.28-5.19-1.43-7.91-.8l.06,0-2.58-.72c-.16.91,1.52,1.12.65,2.07h0c-2.5-3.48-6.2-2.24-9.53-2.4l.09-.14v.1l1.62,2.18.05-.06a6.84,6.84,0,0,1-2.74-1.79c-1.24-1-2.61-1.64-3.56.42h0c-.64-1.63-1.94-.7-3-.77l-.47-.45-.21.3.75.08L246,9.32v0c-.5-1.17-1.66-1.27-2.66-1.62l0,.12c-1.2-2-2.52-1.21-3.85-.15h0c-.54-1.56-1.67.1-2.4-.44l.06.07a1.46,1.46,0,0,0-2.27,0l.08,0c-1.48.15-3.21-1.45-4.43.6l.07-.09-4.21-.61c.61,1.23,2.46,1.08,2.25,2.59l.06-.07c-2.24-.46-3.83-3.85-6.7-1.49h0c-2-.3-4.05-.89-6,.33h0c-1-.7-1.9-.73-2.55.47,0,0,.08.16.15.19a.82.82,0,0,0,.27,0l0,0c-2.26-.18-4.59-1.6-6.74.33l0,0c-1.95-.19-3.9-.44-5.68.69l.07,0a23.51,23.51,0,0,0-11.7,2.25h0c-1.61-1.66-3,.48-4.48.3l0,.07c-.5,0-1.4,0-1.43.07-.16.73.56.32.85.52l-.07,0c-2.54.22-5.3-.63-7.45,1.51v0c-2.13.08-4.39-.26-6,1.72h0c-.67-1.14-1.62-.71-2.17-.11s.89.67.7,1.58c-1.92-1-4-2.31-5.53.48l0,.07c-.71-.8-1.24.35-1.9.17l.07.08c-1-1-1.41-.45-1.71.55l.06-.05a13.31,13.31,0,0,0-7.34,2.38l.07-.06c-1.8-.26-3.43-.05-4.5,1.67l.07,0c-1.22-.46-1.93.85-3,.88l0,.08c-.69-.49-1.24-.24-1.74.33l1.15.25-.06,0-2.14,1.09c-.3-1.13-.91-.64-1.54-.32.47.75,1,.48,1.59.26-5.22.44-9.62,3.1-14.21,5.24a1.41,1.41,0,0,1-.79.18c-4.68-.88-9.79,1.73-14.81-2.41l1.56,2.95a2.39,2.39,0,0,1-.23.22c-2.55-1.82-3.56-5.76-7.71-5.55l.64,1.8,0-.08a32.12,32.12,0,0,0-3.24-2.23c-1-.49-2-.55-2.48.85h0l-2.76-4.37.88.36c.73.78.93,2.38,3.15,1.68-1.42-.51-1.67-2.08-3.18-1.62l-.83-.45c-.89-.8-1.8-1.45-2.89-.3h0l-3.31-1.1,0,.06c.64-2-1.07-2.51-2.22-2.72-.94-.17,0,.68,0,1.07l.08-.1c-2.75-.77-4.12-4-7.49-4.12l2.08,2.46-.2.21c-1.15-.82-2.27-1.69-3.47-2.44a5.81,5.81,0,0,0-1.71-.44c.15.54.29,1.08.44,1.62l0-.05c-2.34-.56-2.67-4-5.9-4.08l2.58,3.2-.41.49c-2-1.74-3.9-3.47-5.84-5.22-.61-.55-1.3-1.23-2.12-.78s.51,1,.17,1.6h0C68,10.52,66.8,9.07,64.15,10.08l3.17,1.5c-1.49.11-1.78.23-1.92.13-2-1.42-3.94-2.88-5.93-4.29-.4-.28-.95-.68-1.36,0,0,.06.44.43.67.67l0,0c-1.33.85-2-1.52-3.52-.57L57,9l-.2.32c-2.78-1.52-5.55-3-8.34-4.55-.09-.05-.28.09-.42.14l.45.34h0c-1.41.3-2.78-.88-4.64.12l2.67,1.55C42,6.75,40,1.89,35.11,3.07l4.17,3.05,0-.1a27.21,27.21,0,0,1-7.89-4c-.94-.75-3.44.2-3-1.24S31.3.25,32.84.33c30,1.45,57,11.85,82.61,27,5.3,3.14,11.82,4.2,18-.09,11.35-7.94,24.56-11.31,37.72-14.87,34.94-9.46,70.31-10.66,106-5.62,13.3,1.89,25.93,6,37.24,13.61.94.63,2.37,1.21,2.1,2.56-.31,1.53-2,1.51-3.15,1.55-19.87.61-38.67,6.86-57.91,10.77a339.34,339.34,0,0,1-102.83,5.18A47.15,47.15,0,0,1,134.45,35c-1.91-1-3,.08-4.63.72,7.37,5.46,14.64,10.79,21.84,16.2a35.57,35.57,0,0,0,23.7,7.51c21.23-.79,41.14,5.52,60.78,12.81A231.32,231.32,0,0,1,287.61,99a30.08,30.08,0,0,1,6.62,5.59c3,3.71,2.15,6.13-2.44,7.17s-9,.76-13.55.49c-35.56-2.16-68-12.83-96.29-35.07a99.53,99.53,0,0,1-13.08-12.64c-.74-.85-1.34-2.06-2.92-1.47,6.27,6.32,12.56,12.55,18.7,18.92a275.33,275.33,0,0,1,23.07,27.47c2.49,3.37,6.41,4.65,10.11,6.08,10.93,4.24,22.59,5.94,33.77,9.34,6.35,1.93,12.54,4.23,18,8.18a26.61,26.61,0,0,1,7.44,8.19c2.22,3.82,1.95,4.4-2.4,4.54-11.6.38-22.41-2.69-32.72-7.79a117.19,117.19,0,0,1-24.27-16.39,27.73,27.73,0,0,0-2.37-1.64l-.31-.28.36.23c3.23,5.22,6.58,10.37,9.67,15.67,3.76,6.43,6.22,13.29,6.13,20.88,0,.45,0,.91,0,1.36-.16,2.26,0,5.1-2.35,6-2.48.93-4-1.67-5.34-3.35-6.55-8.14-9-17.82-10.2-27.95-.35-3-.81-5.93-1.21-8.89a20.08,20.08,0,0,0-5.85-11.92c-6.7-6.75-13.09-13.8-19.87-20.58a64.55,64.55,0,0,1,6.46,26.08c.24,8.64-1,17-4.87,24.84-6.08,12.17-16.83,16.23-29.57,11.26-11.21-4.37-18.5-11.24-24.29-22.93-1.24.62-1.56,1.89-2.09,3-8.65,17.4-23.71,26-41.88,29.73-9.63,2-17.22-3.29-23.42-10.1-9-9.95-12.52-22.27-14-35.3a78.21,78.21,0,0,1,.5-20.23c-2.47,7.24-4.36,13.34-6.61,19.3-7.88,20.89-17.27,40.95-32.49,57.7a38.55,38.55,0,0,1-6.47,5.77c-3.89,2.69-6.57,1.43-7.2-3.27-.86-6.45,0-12.87.83-19.25C5.71,120.86,19.34,87.72,41.4,58c4.6-6.2,8-13.12,11.63-20,3-5.7.89-11-.28-16.3-.49-2.22-3.29-3.16-5.72-3.63-7.05-1.36-14.18-2-21.31-2.64a19.44,19.44,0,0,1-2.17-.2c-1.05-.21-2.08-.88-1.91-1.93s1.38-.52,2.1-.48c7.42.34,14.88.38,22.12,2.39,9.76,2.71,12.74,7.65,10.69,17.65A38.82,38.82,0,0,1,51,46.05C37.23,67.73,23.71,89.53,14.71,113.76A201.51,201.51,0,0,0,3.29,166.21c-.32,3.67.13,7.42.25,11.13,0,.8,0,1.77.91,2.12s1.5-.49,2.12-1c1.34-1,2.62-2.14,3.92-3.23,0-.29.11-.58.17-.88l.05-.13-.08.19c-.6.19-.21.53-.12.83l-1.71-.58.08.06c2.47-2.37,5.69-3.91,7.56-7,.76-1.25.46-1.64-.73-1.92h0c2.69-.74,2.57-3.14,3.07-5.18l-.05.07c1.13.42-.26,1.68.86,2.28.63-1.92,3-3.12,1.89-5.6l.07.07c1.41-3.33,5.43-4.93,5.91-9.17a14,14,0,0,0-4,3.87l.09.06c-2.16.27-2.83,2.61-4.9,3.43,3.28-5.34,10.88-7.29,10.89-14.74l0,0a2.15,2.15,0,0,1,.93-2.67h0l.85.18-.07-.1c-1.37,1.62-1.27,3.59-1,5.68q1.63-3.65,3.26-7.31l-.06.1c.23-.23.49-.46,0-.68l.07,0c1.93-2.6,1.78-5.7,2.12-8.69h.24l-.17-.19,0,.24-1.34-.26.07.06,2.61-2.65h0c1.72-.67,3.67-5,2.88-6.49-.45-.89-1,.37-1.55,0l0,0c1.91-2.06,3-4.31,1.58-7.12l0,0c.3-1.82,1.82-2.65,3-3.74,1.64-1.5,2-3.09.38-4.84ZM181.8,127l-.86.55-.46.53-.59.49-.35.47.47-.35c.13-.22.27-.44.41-.66l.46-.54.92-.6-.14,0ZM179,132.55l-.63.47c-.07.06-.21.14-.21.15s.15.24.22.36c-3.07,2.31-3.07,2.31-2.21,4.88,4.19-3.07,4.27-3.23,2.65-5.38,0-.18.07-.36.1-.55s.62-.13.1-.4Zm-3.42,11.32-.07-.07a.88.88,0,0,0,.23,0s.07-.09.1-.13ZM75.69,61.36l-.25,0a.35.35,0,0,0,.15-.11l.22-.46-.19-.07ZM167.76,77l.05,0-.12-.08.19.15ZM142.7,82.71l-.18.07a.36.36,0,0,1,.14-.1l.41.08s-.08-.06-.12-.06A2,2,0,0,0,142.7,82.71ZM60.35,89.06l.22.29-.23.1c0-.13,0-.26,0-.39l.42.22s.08,0,.11-.06ZM140,92.47l-.07.08.14.07Zm44.31,40.24-.12,0,.15.05-.11,0ZM74.55,147.91v.33l-.37-.15a2.28,2.28,0,0,1,.35-.17l.36.13Zm87.32-3.41-.92.1.05.27c.28-.13.57-.25.81-.37l-.36,0Zm95.29-16.41c-.38-.67-.73-.14-1.09,0-1.6-.66-2.84-2.31-4.87-1.73l.06-.06q-4.89-1.42-9.78-2.83c-.84-.24-1.76-.65-2.31.5h.12c-7.15-3.29-15-4.2-22.38-6.78-.12-.7-.65-.53-1.1-.54l-.72-.91-1.37-.52-.06.12.17-.09c.43.16.86.32,1.27.5-.1.29-.21.58-.31.86,0,.06-.16.13-.15.17a1.43,1.43,0,0,0,.15.39c11.88,9.23,24.27,17.61,38.65,22.51a61,61,0,0,0,16.41,3.46c1.22.06,3.57.51,2.94-1.81a6.91,6.91,0,0,0-3.71-4.9l.08-.06c-1.54-1.56-3-3.19-4.65-4.68-1.4-1.29-1.51-1.21-2.83,0v0c-.47-2.14-1.7-3.28-4-3ZM141.59,97.93l.64,0V97.7a4.68,4.68,0,0,0-.54.3l-.2.69.24,0Zm32.24,43c-.43-.3-.88-.6-1.36-.13-.11.1,0,.4,0,.61l1.37-.49a1.21,1.21,0,0,0-.16-.16l-.18-.11Zm-28.93-5.22c.48-.24,1-.41.78-1.25-.29.5-.55.93-.8,1.34l.11,0ZM66.72,87.27c-.5-.08-.87,0-.9.62,0,.08.24.28.33.26.49-.12.73-.42.53-1l.12-.08Zm74.74,33.58.69-1.35c-.17,0-.37-.09-.48,0-.6.38-.46.89-.2,1.37l-.18-.33Zm-81.57,1.46c-1.18.3-.71,1.07-.51,2.13.2-1,.33-1.57.44-2.19s.63-1.08-.32-2Zm45.76,30.49c-.52.53-1.69.1-1.83,1.33,1,0,1.83,0,1.8-1.32l.15.16Zm72.09-74.25-.37-.49-.16.21.58.22,1.2.87c0-.15.16-.33.11-.44C178.81,78.25,178.23,78.55,177.74,78.55ZM172.33,145a2.39,2.39,0,0,0-.13-.21l-.26-.37.43.55c-.32.37-1,.69-.51,1.29s.85.07,1.07-.26C173.35,145.38,173,145.09,172.33,145Zm3.45,1.32,0,2.22c-.65.17-1-1.65-1.79-.29a1.32,1.32,0,0,0,.68,1.78c1.36.42.7-1,1.12-1.5-.3-.72,1.58-1.46,0-2.17.19-.53,1.23-.44,1-1.32C175.37,145.62,175.37,145.62,175.78,146.34ZM95.4,48c-.77.55-2-.77-2.51.58,0,.12.2.49.39.56,1.14.44,1.47-.65,2.12-1.16-.08.72-.24,1.54.91,1.42.27,0,.72-.4.71-.6C97,47.65,96,48.3,95.4,48Zm76.4,100.73c-1.94-.27-1.61,1.36-2.62,2.83,1.68-.93,2.55-1.57,2.56-2.89l.11,0Zm-23.9-11.84c.13,1.32-1.94,1.93-1,3.75.68-1.3,1.93-2.18,1-3.74l1.4.06-1.62,4.74c1-1.43,5.35-1.93,1.56-4.7Zm28.78,3.15c-1.46,0-1.1,1.1-1,1.91,0,.19.84.5,1,.37,1.13-.77-.2-1.53-.1-2.32.52-.07,1.24.71,1.53-.29.08-.29-.12-.66-.19-1C177.27,138.92,176.63,139.16,176.68,140.08ZM100.9,52.79c-.81-.36-1.63-.62-1.74.66-.08.87.75,1,1.31,1,1.55-.14.73-1,.35-1.67-.08-.77.91-1.73-.36-2.26a.94.94,0,0,0-.87.34C99.13,52,100.68,52,100.9,52.79Zm43.36,49.37c0,1-1.37,1.58-.95,2.76,2.26-.31,1-1.73,1-2.76-.71-.31-.24-2.12-1.6-1.44a1.41,1.41,0,0,0-.32,2.31C143.42,104.06,143.52,102.25,144.26,102.16ZM38.38,125.32c-3,.74-.86,3.43-1.27,3.87.18-.52.76-2.16,1.33-3.81l.37-.22-.25-.23Zm31.5,24c.26.26.28.92.91.57.11-.06.15-.24.22-.36l-1.22-.13c1.89-1.48,1.17-2.58-.49-3.8A3.46,3.46,0,0,0,69.88,149.31Zm118.69-38.59c.11-1.21,1.57-2.55-.44-3.63-.46,1.42-1.76,2.56-1,4.24l1.55-.71c-.84,1.84-1.1,3.59,1,4.94C189.15,114,191.08,111.92,188.57,110.72ZM186,127c-.29.62-.95,1.25-.13,1.91.49.4.8-.1,1.09-.4.86-.91,2-1.77.56-3.11a3.5,3.5,0,0,0-.57-3.12C186.55,124,183.15,124.63,186,127Zm-4,3.34c.37-1.18,2.92-1.61,1.7-3-.63-.7-1.47,1.5-2.43,2.18a2.86,2.86,0,0,0-1.15,1.42c-.16.71.64.17.93.4-.54.71-1.08,1.44-.62,2.39.09.18.36.27.54.41,0-2.29,4.17-1.78,3.23-4.78Zm-34.39-2c-.31.94-2.08,1.12-1.29,3.19.58-1.36,2.14-1.66,1.26-3.18-.89-.6-.48-3.12-2.59-1.85-.64.39-1.7,1-.94,2.1C145.41,130.63,146.45,128.51,147.62,128.33Zm37.77-21.52c.12.58.05,1.38.4,1.68s.72-.3.8-.7c.23-1.06,1.76-2.22-.19-3.14.16-.8-.41-1.9-.79-1.73-1.52.66-1.29,2.48-1.94,3.75-.42.82-1.43,2,.54,2.39.13.51.12,1.13.85,1.16.09,0,.32-.39.29-.57-.13-.78-.7-.63-1.23-.49Zm-41.89,8.81-.06-.06a2.68,2.68,0,0,0,.85,2.92c.25.19,1.12-.1,1.44-.43,1-1-.3-1.74-.5-2.62a3.67,3.67,0,0,0-.52-1.24c-.3-.48-.32-1.45-1.18-1.13a2.31,2.31,0,0,0-1.27,1.28C142,115.22,142.65,115.61,143.5,115.62ZM83.18,149c-1.39,0-2.86.19-3.15,1.67a2.29,2.29,0,0,0,1.91,2.83l.2-2.83c1.45.09.8,2.65,2,1.95,1.47-.84-.54-1.87-.6-2.92,0-.24-.26-.46-.4-.69l1.2.37,0-.26ZM42.64,114.63A5.28,5.28,0,0,0,41.12,120c.66-2.29,1.09-3.8,1.52-5.32A10.51,10.51,0,0,0,44,107.47c-.94,1-2.06,1.71-2.09,2.44C41.82,111.47,39.78,113.51,42.64,114.63Zm92.72-5.08c-1.1,1.62-.53,3.21,0,4.81.11-1.78,1.86-3.44.4-5.32.5-1,1.44-1.93,1.13-3.14-.39-1.54,1-3.86-1.77-4.44,1.56-2.38.12-4.31-.71-6.54-3.92,4.23-4,4.65-1.3,8.44l2.11-2c.19.94-.58,1.41-1,2.06C132.75,105.81,133.54,107.77,135.36,109.55ZM68.54,133.21l0,0c-.54,1.25-1.3,2.87-.29,3.76s2.53-.35,3.63-.91c1.32-.68,1.05-2.28.76-3.43-.52-2.11-2-.65-3-.5C69.28,132.13,67.68,131.8,68.54,133.21Zm111.94-27.5c1,1.84,1.18,1.93,1.64.93.8-1.76,1.82-3.52,1.73-6.21L182.58,102c.45-1.55.2-2.79-1.46-3.48-.5-.21-1.06-.64-1.24.2-.57,2.64-3.06,5.24-.25,8-1.4-1-2.33-1.13-3,.9a61.89,61.89,0,0,1-3,6.34c.25-3.43,2.86-6,2.63-9.55l.05,0c2.95-4,3-6.88.14-8.21.79-1.06,2.47,1.3,2.89-.56.36-1.61,2-3.84.23-4.84-1.11-.63-1.12,2.13-2,3.14-.18.21-.34.43-.51.64.18-.94.49-2.08-.75-2.36-1.47-.32-1,1.2-1.16,1.83a38.75,38.75,0,0,1-3.8,9.34c.86-3.78,2-7.47,3.07-11.17.43-1.47.68-2.86-1.55-3.21-1.86-.29-2.81,0-3,2.17a58.4,58.4,0,0,1-1.47,6.69,81.61,81.61,0,0,1,1-11.64c.09-.71.54-1.76-.81-1.87s-1.3.83-1.32,1.8c0,1.22.26,2.52-.83,3.86-.63-3.32-1.12-6.43-1.86-9.48a2.68,2.68,0,0,0-3-1.8c-2.17.33-.47,1.82-.44,2.75.06,1.62.39,3.23.61,4.84-.28-2.36-2.48-3.78-2.9-5.91-.13-.71.18-1.46-1-1.41-1,0-1.77,0-1.85,1.38s-.42,2.69-.67,4.16c-.9-.64-.07-2-1.34-2a1.46,1.46,0,0,0-1.15.57c-.45,1.12.38,2.06.65,3.09.22.86.8,1,1.65.93,1.37-.19,2.75-.27,4.13-.4-2.57,0-4.67,2.07-7.35,1.76-1-.12-2.41.3-1.72,2.18.5,1.33.61,2.61,2.64,1.87a13.43,13.43,0,0,1,6.58-.85c-3.43,1-6.29,1.84-9.12,2.76-.8.26-1.93.62-1.33,1.88,1.23,2.59,1.8,6.17,6.19,4.36a15.94,15.94,0,0,1,3.15-.41c-3.61,1.16-6.2,1.93-8.74,2.85-1.08.39-2.68.66-1.67,2.55.71,1.33.73,3.1,3.29,2.29,4.77-1.5,7.12-1.47,10.09-.66-4.06,1.18-9-.48-12.18,3.68-.19-.23-.88-1.44-2.38-.24-2.14,1.72.28,2.81.54,4.16.22,1.16.78,2.15,2.48,1.45,2.92-1.21,5.95-2.14,9.2-1.62-2.91.65-5.86,1-8.64,2.19-1.58.66-1.91,1.29-.41,2.37l-.05,0c.23,1.83,1,2.42,2.91,1.73a17.35,17.35,0,0,1,9.08-1.06c-1.55.43-3.13.59-4.68.88-5.83,1.09-5.83,1.1-3.19,6.12.06.12,0,.32-.06.62-.9-.37-1.85-1.37-2.64.09-.26.47-.8.89-.3,1.41,1.09,1.12,1.82-.21,2.56-.59,2.93-1.51,5.85-2.87,9.23-2a21.72,21.72,0,0,0-9.62,3.33c-1,.66-.76,1.17-.22,2,.77,1.11,1.22.64,1.77-.17a9,9,0,0,1,1.16-1.12c.22,1.69-2.41,2.86-.64,4.05,1.4.95,2.65-.91,4-1.44a6.36,6.36,0,0,0,1.1-.73l.61.59c-2.33,1.68-4.52,3.4-2.21,6.79,1.35-1.3,1.73-3.28,3.41-4,.82,1.06-1.92,1.91,0,3-.58.53-1.18,1-1.72,1.59a2.08,2.08,0,0,0-.59,2.23c.12.34.75.84.83.78a5.85,5.85,0,0,0,1.81-1.52,21.9,21.9,0,0,0,1.39-3.13l-1.8.14c2.57-1.89,4.17-2.3,7-1.8-5.08.76-5.21,1-3.11,6.88,3.39-.3,1-3.42,2.26-4.85l1.38,2.24c.87-1.1,2.11-1.93,2.29-3.52.82.45-.36,2.06,1.38,1.81,1.3-.19,1.33-1,1.33-1.9v-5.61c.68.8.68,2.13,2,.89,1.68-1.6,2.6-3.22,1.73-5.52,2.62.87,3.26-1.66,4.35-2.89,1.38-1.55-.39-3-1.29-4.84-1.07,2.6-3.89,3.72-3.51,6.7-1.61-1.35-1.58,1.52-2.92,1.13,1.56-3.57,4.92-6,5.73-10l-.07.07c2.93-2,4.24-5.5,2.62-7.11l.06,0c-.87-1.92-1.21-.33-1.59.28-1.79,2.85-3.54,5.72-5.3,8.58a36,36,0,0,1,3.84-8.39c1.07-1.75,1.14-3.12-.51-4.43C179.46,106,180.14,106,180.48,105.71ZM134,84.28c-1.21,2.59-1.92,5.12.89,7.16,3.21-2.75,1.16-5.83.77-9.27L134,84.38c1.11-2.88,1.6-5.73-.4-8.74-1.26,2.89-2,5.62-1.22,8.58-1.13,0-.82-1.64-1.79-1-.6.41-.16,1.11.15,1.7C132.57,88.52,132.92,84.5,134,84.28Zm-63.46,23c-.37.59-.74,1.17-1.1,1.76-.93,1.56-3.21,3-2.15,4.83,1,1.67,3.05-.13,4.66,0,.67,0,2.32.38,1.77-1.1-.73-2-.68-4.49-2.77-5.89.81-1.18.22-2.23-.48-3.11-.18-.22-1.28,0-1.66.32-1.13,1-.11,2.16.11,3.18C69.26,108.67,70,107.21,70.57,107.33Zm11.94,36-.05-.07a6.12,6.12,0,0,1-.79,1c-.92.76-2.54,1.08-2,2.77.43,1.35,1.69.76,2.56.67,1.81-.18,1.93-1.49,1.8-3s-.09-2.88-.09-4.33c0-.73.14-1.61-.91-1.6-1.34,0-3.73,0-3.83.4a7.34,7.34,0,0,0,.31,4.78C80.21,145.2,81.36,143,82.51,143.33Zm14.58-.89-.11,0c.6,1.22-.41,2-.82,2.95s-1.8,1.72-.83,2.49a4.44,4.44,0,0,0,3.55.6c1.19-.36.24-1.71.22-2.62s-.43-1.77.34-2.41c1.15.25-.16,3,2.15,2,.49.94-1.48,2,0,2.74a2.35,2.35,0,0,0,2.23-.37c.74-.91-.28-1.95-.39-3-.13-1.24-.81-.68-1.4-.42a2.17,2.17,0,0,0-.86-3.11c-2.26-.78-4.81-1.59-7-1.19-.88.16-.35,3.37.52,5.48Zm-7.27-1.09h0c.12,3.13-3.56,3.65-4.43,6.14,2.24,1,4.4-1,6.63.41.83.52,1.53-.86,1.3-2a25.06,25.06,0,0,1-.51-3.2c-.21-2.87-4.72-5.26-7.34-3.8a1.45,1.45,0,0,0-.55,1.07c0,1.86.14,3.72.24,5.89A12.75,12.75,0,0,0,89.82,141.35Zm129-9.85-.76.18c-.29.06-.79,0-.07.31h0c-2.43-1.05-1.17-4.2-3.37-5.81.62,11.7,3.11,22.47,9.75,32,.64.91,1.34,2.28,2.7,1.82,1.18-.4,1-1.84,1-2.88.8-13.22-6.07-23.5-12.92-33.78.91,2.86,1.26,6,3.63,8.18ZM56.52,84c3.26-6.93,6.61-13.75,11.11-19.94C76.43,52,87.37,43.57,103,42.31c2.89-.23,5.6-2.81,9-4.6-16.13-6.39-32-10.56-47.53-15.07C63.05,43.45,62,64,56.52,84Zm81.55-3.09a22.65,22.65,0,0,1,10.26-6.77c1.29-.41,1.2-1.38,1.2-2.39,0-7.2-3.26-12.64-9.15-16.61-6.9-4.65-13.79-9.31-20.76-13.87-.84-.55-2.21-2.64-3.1-.22-.63,1.71-3,3.76.11,5.55a37.25,37.25,0,0,1,12.09,11.51C133.39,64.93,136.13,72.54,138.07,80.93Zm31.43-6.14L154.75,62c-.17,4,1.54,7,2.63,10.11.26.74.83.86,1.5.87C162.44,73.08,165.82,74,169.5,74.79Zm-100.28,46c.73,1.1.24,3.17,2.26,2.53s5.8.4,5.73-1.5c-.08-2.27-.47-6.57-3.8-6.8C70.29,114.83,70.56,118.8,69.22,120.82Zm12.1,8.59c-1.9-2.12-1.2-5.09-3.91-5.32-2.1-.17-4.77-.52-6.14,1.16-.85,1,.62,3,1.68,5.08l.73-4.24C73.9,132.18,78.05,128.72,81.32,129.41ZM77.25,92.77c1-1.07,3.1.5,2.75-1.62a28.3,28.3,0,0,0-2.32-7.47c-.73-1.52-1.61,1.63-3.06.44-.68-.55-1,.58-.72,1.16C74.89,87.74,74.05,91.14,77.25,92.77ZM71.93,96c-.41-.47-.84-1.28-1.14-1.24-.76.12-.72.87-.55,1.53a17.15,17.15,0,0,1,.7,2.87c.28,3.93,3,2.54,4.87,2,2.39-.67,0-2.12.06-3.22a6.79,6.79,0,0,0-.73-2.29c-.32-.88-.32-2-1.83-1.82S72.28,95.18,71.93,96Zm112.22,27c1.66-1.17,3.14-2.48,1.65-4.9.91-.16,1,1.64,1.66.75,1-1.46-.38-2.59-1.27-4.09C184.7,117.47,180,118.93,184.15,123Zm-62.44,7.34c-1.32.54-2.44.89-3.45,1.43-2,1-.61,3.1-1.28,4.57-.19.41,0,1.05.58.9.94-.25,2.53-.64,2.59-1.14C120.4,134.13,122.12,132.66,121.71,130.29Zm-1.46,7.18c-4.16,0-4.14,3.09-4.74,5.57-.09.36.57,1.18,1,1.35.78.29,1.35-.35,1.61-1.06C118.87,141.43,119.52,139.52,120.25,137.47Zm30-36.24a35.74,35.74,0,0,0-3.31-4.5c-.25-.27-2.1.88-1.82,1.82.44,1.54.3,3.78,2.43,4.18A2.77,2.77,0,0,0,150.22,101.23ZM80.82,78.06c.91,1.12-1.1,4.22,2.55,4.23.9,0,1.55-.18,1-1.14-1-1.76.32-4.63-2.35-5.43C80.55,75.27,80.77,76.73,80.82,78.06ZM67.94,120.64c-.77-1.37-.37-3.56-2-4.09-.82-.26-1.31,1.74-1.17,2.65.25,1.6.07,3.9,1.62,4.5C67.33,124.06,67.38,121.76,67.94,120.64Zm-1.89-9.19c3.29-1.86,2.31-4,1.6-6.14-.32-.91-1-.65-1.52-.24C63.62,107.15,66.59,109.05,66.05,111.45ZM86.3,72.94c-1.14-.78.88-3.52-1.85-4-1.1-.18-1.37.7-1,1.6.54,1.4-.8,3.71,1.92,4C86.24,74.72,86.75,74.36,86.3,72.94ZM71.24,86.53c.16,1.63.39,3.06.4,4.48,0,1.27.56,1.92,1.73,1.74,1.48-.24.44-1.3.35-1.9a43.05,43.05,0,0,0-1-4.44c-.15-.62,0-1.72-1-1.52S71.27,86.07,71.24,86.53Zm-7.17,21.11c-3.2,2.49-.56,5-.55,7.39,0,.19.62.59.7.54a2.49,2.49,0,0,0,.85-.95C66.16,112.08,64.27,110,64.07,107.64ZM96.73,58c-.47-1.15.59-3.48-1.77-3.1-1.9.3-.81,2.4-1.07,3.68-.32,1.54.93,1.44,1.89,1.48C97.77,60.19,96.47,58.77,96.73,58Zm16,86.18a1.32,1.32,0,0,0,1.18-1.72c-.38-.91-.13-2.68-1.9-2.37-.92.16-2.37,0-2.36,1.61C109.68,143.75,111.62,143.49,112.75,144.22Zm-25.21,4.63c-.77.13-2.05-.33-1.75,1.19.18.9-.1,2.58,1.37,2.32,1-.18,2.58-.84,2.63-2.28S88.45,149,87.54,148.85Zm18-1.06c1.12-1.47,2.51-2.74,1.73-4.47-.33-.73-2.49-1.37-2.76-.77C103.8,144.22,104.68,146,105.59,147.79ZM80.43,71.72c.43.93-.85,2.67,1.31,2.83.86.06,1.46-.47,1.08-1.33-.58-1.3.61-3.51-1.28-3.91C79.85,69,80.65,70.76,80.43,71.72ZM67.86,128.77c-.89,3.37,2.73-.22,2.8,1.75.44-.11,1-.3.74-.83-.63-1.17-.37-3.16-2-3.37C68.24,126.18,67.75,127.49,67.86,128.77Zm63.83-50.61c.83-2.73,2.19-5,.09-7.58C131,73.08,129.65,75.34,131.69,78.16Zm17.5,7.61c.84.31-.64,2.49,1.5,2.17.65-.1,2.09.12,1.73-1s-.24-2.88-1.83-3.15C149.8,83.63,148.82,84.24,149.19,85.77ZM64.38,102.65c1.7-2.05,2.35-3.85,1.21-5.83-.37-.64-1.2-.1-1.37.21C63.22,98.78,63.88,100.52,64.38,102.65ZM168.24,143.4c-.68.72-1.69,1.32-1.87,2.11a2.13,2.13,0,0,0,1.55,2.42c.6.09,1.83-1,2-1.78C170.15,145.16,169.18,144.27,168.24,143.4Zm-59.46,7.72a4.17,4.17,0,0,0,2.25-2.85c.26-.74-.61-.81-1.08-.63-1.28.48-3.31,0-3.61,1.78C106.09,150.85,108.21,150.05,108.78,151.12Zm-39-66c-1.67,3.28-.42,5.65-.09,8,0,.16.55.24.84.36.15-.39.45-.79.41-1.15C70.6,90.22,70.23,88.11,69.74,85.12Zm56.48,48.68c-1.64,1.93-4,1.25-4.06,3.45,0,.76.87,2.15,1.53,1.86C125.35,138.37,125.57,136.53,126.22,133.8Zm-47.7-58c-.21.23-.75.55-.71.79.26,1.67.59,3.33,1,5,.15.58,1,.86,1.25.42.75-1.58-.44-3.07-.51-4.64C79.53,76.84,79.53,76.08,78.52,75.85ZM50,89.42c1.87-2.87,1.89-5.49,2.65-8.19C49.51,83.16,49.5,85.84,50,89.42Zm131.84,4.17c.05,1.37-2.63,2.69-.21,4.09.59.34,1.54,1.51,2,.55C184.4,96.44,182.74,95.13,181.82,93.59ZM147.39,108.3a9.44,9.44,0,0,0-2.08-2.44c-.46-.29-1.57.52-1.35,1.53s.53,2.23,1.65,2.46A1.61,1.61,0,0,0,147.39,108.3ZM75.06,78.76c.91.93-.73,3.07,1.45,3.6.75.19,1.13-.49.83-1.22-.54-1.35.13-3.25-1.36-4C75.25,76.7,75,77.83,75.06,78.76Zm-8,10c-1.66,2-.73,3.78-.4,5.53.12.59.85.4,1.11.12,1.2-1.32-.11-2.68-.06-4C67.68,89.88,67.3,89.41,67,88.72ZM69,97.37a4,4,0,0,0-1,5c.29.68,1.42.37,1.64,0C70.6,100.67,69.3,99.24,69,97.37ZM95.89,152.5c-.73-1.11-.91-2.82-2.64-3-.43,0-.94.73-1.42,1.12A30.44,30.44,0,0,0,95,153.49C95.51,153.88,95.82,153.17,95.89,152.5ZM161,148.72c-.07-1,.14-2.46-1.1-2.59-.89-.1-1.17,1.24-1,2.16s-.4,2.53,1.16,2.58C161.37,150.91,160.79,149.53,161,148.72Zm-62,4.67c.33-1,2.41.83,2.34-1.21,0-.76-.49-2-1.5-2-1.3,0-1.77,1.41-2.22,2.39S98,153.54,99,153.39Zm-21.38-9.52c-.09-.33.2-1.54-1.07-1.24-.77.18-2,.4-1.9,1.53.1.82.22,2.2,1.64,2C77.29,146.06,77.86,145.35,77.62,143.87Zm-8.15-3.79c.89-.57,2.62-.1,2.71-1.94,0-.45.22-1.41-.55-1.11-1.18.46-2.79.46-3.32,1.95C68.09,139.63,68.51,140.2,69.47,140.08Zm79.82-16.62c-.43.48-1.63.45-1.29,1.35s.76,2.16,2,2.14c.46,0,1.36-1.07,1.26-1.42A2.72,2.72,0,0,0,149.29,123.46Zm15.62,23.9c-2.27,1.09-1.73,2.33-.87,3.67.36.56.89,1.38,1.38.83C166.73,150.37,165,149.09,164.91,147.36Zm-17-57.49c-.44.43-1.37.5-1.09,1.32.36,1.06.43,2.42,1.64,2.91.45.18,1.5-.23,1.31-1A5.24,5.24,0,0,0,147.86,89.87Zm-10.4,6.67L137,90.7C134.41,93,136.1,94.8,137.46,96.54Zm34.06-17.3c-.81,4-.63,4.19,3.09,3.25A9.6,9.6,0,0,0,171.52,79.24Zm-19.3,67.81c1.35-1.32,2.43-2.49,1.36-4.28a.87.87,0,0,0-.81-.21C151.19,143.82,151.9,145.35,152.22,147.05Zm-78-4.45c.68-.64,2.33-.26,2.21-1.8A1.32,1.32,0,0,0,75,139.46a1.64,1.64,0,0,0-1.7,2C73.31,142,73,142.81,74.18,142.6Zm45.54.11c1.47-.78,3.29-1.19,3-3.17-.07-.38-.74-.66-1.13-1C120.94,139.94,120.33,141.33,119.72,142.71Zm30.72-66.26c-1.24,2.51-2,4-1.36,5.85.09.25.89.55,1.07.41,1.65-1.17,0-2.76.44-4.12A9.25,9.25,0,0,0,150.44,76.45ZM53.93,72.88c1.42-2,.66-3.84.58-6C52.31,68.93,53.22,70.77,53.93,72.88Zm4.15,46.6c1.62-3.1.57-5.12-.58-7.14ZM85.45,154.6c-.76.17-1.53.27-1.43,1.29s.52,1.83,1.5,2c.64.1,1.67-.25,1.53-1.09S86.65,154.81,85.45,154.6Zm-21-15.67c.6-.33,1.64-.37,1.43-1.28-.17-.73-.19-2-1.45-1.85-.62.08-1.5.47-1.27,1.41C63.38,137.9,63.36,138.89,64.5,138.93Zm.65-47.52c-1.46,1.58-2.58,2.54-2,4.18.25.74.85.45,1.32.21C66.39,94.79,64.84,93.32,65.15,91.41Zm79.16,1.24a2.24,2.24,0,0,0-.07,3.42c.64.72,1.31.11,1.53-.28C146.71,94.09,144.84,93.74,144.31,92.65Zm12.93,43c-1.37.75-3.24,1-3.33,2.75,0,.3.75.64,1.16,1Zm5.17,11.89c2.73-2.19,2.81-2.8.81-4.73ZM77.86,68.28c1.16,0,1.24-.82,1.24-1.68,0-.58-.09-1.12-.86-1s-1.55.45-1.48,1.54C76.81,67.87,77,68.38,77.86,68.28Zm97.06,19.79c.32-2.55.91-4.6-2.56-3.63Zm-17.58,60.15c.18-2.19.3-3.66.46-5.51C155.12,144.24,155.76,145.84,157.34,148.22Zm-79.89,6.15c1.2-.1,1.37-.6,1.17-1.33s-.26-2-1.38-2c-.92,0-.92.93-.74,1.66S76.65,154.4,77.45,154.37ZM62.74,101.75c-1.19,1.49-2.17,2.49-1.48,4,.31.7.72.15,1.06,0C64.16,104.74,62.82,103.4,62.74,101.75Zm80.32,8.44c-.3-.62-.26-1.79-1.11-1.53a2.14,2.14,0,0,0-1.31,2.38c.06.56.14,1.48,1,1.16A2.07,2.07,0,0,0,143.06,110.19Zm-71.84,4.86c-2.42.41-4.55.55-2.3,3.48C69.65,117.44,70.29,116.47,71.22,115.05Zm82.21-36c-1.11.11-.67,1-.83,1.61s-.54,1.53.79,1.3c.68-.11,1.48,0,1.46-1.11S154.07,79.53,153.43,79Zm-14,42c.73-1.46,2.15-2.21,1.69-3.79-.05-.18-.76-.35-.78-.32C139.72,118.08,138.25,119,139.42,121ZM90.06,57.9c.85.13,1.15-.36,1.1-1.1s.41-1.63-.59-1.83c-1.18-.24-1.19.82-1.35,1.59S89.15,57.84,90.06,57.9Zm2.74-3.83A7.91,7.91,0,0,0,93,60.74C93.47,58.13,93.63,56.55,92.8,54.07Zm84,31c-.41,1.24-1.07,2.27.07,3.22.34.28,1.16.6,1.41,0C178.78,86.93,177.55,86.22,176.77,85.08Zm-29,3.16c-.47-.73-.08-2-1.27-2.32-.22-.06-.89.61-.94,1a2.07,2.07,0,0,0,1.17,2.2C147.37,89.41,147.71,88.93,147.8,88.24ZM85.37,64.77c-1.22-.54-.76,2.89-2.64-.28.61,1.64-.55,3.38,1.52,3.24C86.74,67.55,84.71,65.67,85.37,64.77Zm-23.16,53.1c-.8,1.8-1,3.25.35,4.78C63.08,121,63.59,119.54,62.21,117.87ZM63,92.23c1-1.11,2.06-1.86,1.6-3.31a.9.9,0,0,0-.79-.14C62.43,89.49,62.28,90.59,63,92.23ZM79.54,56.47c-1,1.14-2.39,1.64-2.1,3.45C79,59.52,80.12,58.92,79.54,56.47ZM112.86,149c1.65-.94,2.92-1.55,3.67-3.17C114.32,145.65,113.44,146.69,112.86,149ZM66.43,8.44,60.67,7C62.34,9.07,63.88,9.2,66.43,8.44ZM181.09,139.32c1.74-.53,1.58-1.82,1.44-3.08-.07-.67-.54-.63-1-.34C180.22,136.87,180.85,138.09,181.09,139.32Zm-99-72.71c-.27-.49.39-1.54-.79-1.57-.8,0-1,.62-.94,1.3s-.23,1.55.86,1.6C82.16,68,82.17,67.31,82.13,66.61Zm-4.08,8.15c.86,0,1.16-.43,1.09-1.18-.06-.6.07-1.38-.72-1.51a1,1,0,0,0-1.22,1C77.25,73.75,77.15,74.58,78.05,74.76Zm-9.62-.36C70.2,74.15,70,72.89,70,71.76c0-.13-.59-.42-.77-.34C67.74,72.08,68.43,73.29,68.43,74.4Zm100.81,8.11c-.42-.35-.92-1.09-1.5-1.16s-.86.76-.79,1.41.51,1.08,1.29.8C168.69,83.4,169.4,83.56,169.24,82.51ZM51.29,4.83c1.08.9,2,2.23,4,1.86C54.36,4.88,52.75,5,51.29,4.83ZM152,133.25c-.55-.48-1-1.12-1.29-1.06a1.94,1.94,0,0,0-1.68,1.73.79.79,0,0,0,1.07.8A10.51,10.51,0,0,0,152,133.25Zm-44.43,13.81c2.77-.22,2.88-1.25,1.4-3.13ZM82.16,159.83c-2-1.27-1.49-3.13-3.32-3-.21,0-.62.48-.57.65C78.6,158.71,79.52,159.33,82.16,159.83ZM78.25,64.54c.34,0,1.09-.2,1-1.31,0-.48-.11-1-.71-.81s-1.66.16-1.76,1.28C76.75,64.44,77.07,64.67,78.25,64.54Zm-17.46,37.6a2.4,2.4,0,0,0,1.46-2.8c-.11-.48-.45-.77-1-.41C60.06,99.79,60.54,100.93,60.79,102.14Zm10.93,40.28c-.07-.54.26-1.45-.86-1.15-.55.15-1.44.26-1.27,1.09.13.63.31,1.56,1.25,1.51S71.69,143.07,71.72,142.42Zm2.43-59.31c.48-1.81-.17-3.11-.71-4.43C73,80.16,72.81,81.6,74.15,83.11ZM153.6,76c-.86,1.45-.14,2.23.8,2.87.13.1.71-.12.77-.3C155.66,77.18,154.51,76.76,153.6,76Zm-7,7.58c0-1.22.52-2.34-.49-3.17-.14-.12-.79,0-.83.2C144.93,81.74,145.25,82.7,146.58,83.57Zm-4.48,43.74,2.73-3.1c-.19-.15-.48-.48-.58-.43C143.3,124.25,142.44,124.83,142.1,127.31Zm46.05,1.56c-2.27,1-1,2.45-1,3.9C189.11,131.68,187.83,130.2,188.15,128.87ZM87.1,158c-.13.22-.72.77-.61,1a5.86,5.86,0,0,0,1.27,1.49c.36-.33,1-.68,1-1C88.77,158.89,88.36,158.26,87.1,158ZM69.36,80.94c-1.52,1.11-1.13,2.27-.85,3.38a.77.77,0,0,0,.68.09C70.37,83.44,69.59,82.36,69.36,80.94ZM61.23,91.7a3.81,3.81,0,0,0-.71,4C62,94.56,61.52,93.33,61.23,91.7Zm34.3-39.6c-.56,0-1.06.13-1.11.81s.41.88,1,.94A.87.87,0,0,0,96.49,53C96.58,52.32,96.11,52.16,95.53,52.1Zm50.32,69.15c.6-.46,1.24-.72,1.48-1.19a.8.8,0,0,0-.75-1.11,1.38,1.38,0,0,0-1.46,1.21C145.09,120.46,145.53,120.8,145.85,121.25Zm3,1.09c-.23-.69-.4-1.37-1.05-1.2a2.3,2.3,0,0,0-1.39,1.07c-.22.51.32,1.07.92.94A6.19,6.19,0,0,0,148.87,122.34Zm33.56,17.73c-1.53.67-1.76,1.67-1.29,3.17C182.66,142.44,182.59,141.33,182.43,140.07ZM172.9,87.51l-2.18-2.85C170.66,86.9,169.79,88.84,172.9,87.51ZM157.33,75.32c-.52,1-1,1.9-.56,2.89A1.57,1.57,0,0,0,158,78C158.77,76.93,157.74,76.27,157.33,75.32ZM140.8,103.88l-1.28,3.82C141.38,107,141.63,106,140.8,103.88ZM94.7,157.57c.62-.46,1.5-.38,1.45-1.18,0-.31-.53-.76-.88-.84-.76-.17-1.13.47-1.22,1.08C94,156.89,94.46,157.24,94.7,157.57Zm-17-88c-.5.05-.77.51-.71,1.23s.6.75,1.14.7.85-.51.81-1.09S78.67,69.4,77.7,69.57Zm102,67.47c-1.17,1.56-.8,2.58-.49,4C180.25,139.71,179.9,138.63,179.65,137ZM65.38,131.46a2.38,2.38,0,0,0,.38-2.61,1.06,1.06,0,0,0-.87.16C64.11,129.85,64.54,130.58,65.38,131.46Zm72.9-3.74c.92-.94,1.7-1.6,1-2.85C138.09,125.4,137.67,126.18,138.28,127.72ZM81.06,56.31c-.54.14-.64.62-.63,1.18s.2,1,.91.87.6-.75.58-1.27S81.76,56.24,81.06,56.31Zm90.56,16.9c.62.85,1.22,1.7,2.35,1.76a1.06,1.06,0,0,0,.37-.79C173.73,73.07,172.48,73.73,171.62,73.21ZM40.5,2.79c1.41,1.53,2.38,1.42,4.11.53ZM66.36,140.53c-.1-.52-.06-1.22-.87-1-.36.08-.95.55-.91.73.1.47.41,1.13.79,1.25C65.94,141.68,66.34,141.19,66.36,140.53Zm86.47-6.23a3.67,3.67,0,0,0-.58-.44c-.57.56-1.1,1.18-1.64,1.79.26.18.71.55.75.51C151.89,135.65,152.94,135.59,152.83,134.3ZM64.16,85.62c-1,.68-1.65,1.2-1.41,2.45C63.8,87.62,64.57,87.23,64.16,85.62Zm9.17,58.61c-.09,1.26-.38,2.14.28,2.85.11.11.84-.08.87-.22C74.66,145.94,74.12,145.26,73.33,144.23Zm64.45-22.72-1.32,2.94C137.47,123.88,138.78,123.47,137.78,121.51ZM67.47,98.07c.26-1.22,1.39-1.47.85-2.48-.07-.15-.68-.15-.95,0C66.45,96,66.79,96.71,67.47,98.07ZM84,56.61c0-.48-.16-1-.74-.69a1.29,1.29,0,0,0-.6,1c0,.33.42.94.62.92C84,57.8,83.89,57.11,84,56.61ZM186.53,97.92l-.7.36,1.26,3.18.56-.21C187.27,100.14,186.9,99,186.53,97.92ZM64.76,77c2-.94,2.46-1.9,2-3.78Zm22-26.09c-1,.32-1.43.86-1.23,1.69,0,.19.63.48.74.4C87,52.54,87,51.82,86.81,50.92Zm90.74,41.36c.16-1,1.14-1.79-.12-2.33-.29-.12-.93-.11-1,0C176.12,90.88,176.9,91.35,177.55,92.28ZM88.26,153c1,.47,1.68.73,2.22,0a.77.77,0,0,0-.17-.69C89.49,151.62,89.14,152.57,88.26,153ZM82,62.65c-.07-.31,0-.86-.62-.83-.82,0-.91.66-.89,1.32s.29.8.81.76C82,63.84,82,63.28,82,62.65ZM184.2,141.13a2.67,2.67,0,0,0,.07-2.91A2.44,2.44,0,0,0,184.2,141.13ZM91.14,59.05a4.24,4.24,0,0,0-1-.47c-.54-.11-1.15,0-1.07.69,0,.2.65.4,1,.46S91,59.94,91.14,59.05Zm.39,96.43c-.46.38-1,.59-1.09.93a.81.81,0,0,0,.88,1,1.21,1.21,0,0,0,.85-.79C92.21,156.33,91.81,156,91.53,155.48ZM65.77,86.11c1.54-.63,1.08-1.64.75-2.66C65.21,83.93,65.35,84.84,65.77,86.11Zm15,69.55L82.6,159C82.87,157.77,82.83,156.75,80.78,155.66ZM66,80.07a9.36,9.36,0,0,0-.74,1.67c0,.14.42.38.65.58a8.6,8.6,0,0,0,.7-1.3C66.64,80.86,66.31,80.57,66,80.07ZM71,84.12c1.28-2.14.76-3.19,0-5.13ZM59,99.5l.16-3.58C58.29,97.51,58,98.44,59,99.5ZM177.22,77.13a5,5,0,0,1-1.94-2.28C174.37,77,175.91,77,177.22,77.13ZM75.61,75.23c.15-.28.48-.62.47-1,0-.48-.19-1.27-.47-1.36-.65-.19-.84.43-.83,1S74.68,75,75.61,75.23Zm28.15-27.36a.75.75,0,0,0-.73-.81c-.53,0-.87.16-.9.73s.31.77.79.9S103.72,48.51,103.76,47.87Zm45.82,81.95c-1.25,1-2.11,1.45-2.3,2.84A2.84,2.84,0,0,0,149.58,129.82ZM184.33,134c-1.12.82-.64,1.62-.46,2.78A2,2,0,0,0,184.33,134Zm-41.57.59c.89-1,1.48-1.59,1.17-2.75A2.14,2.14,0,0,0,142.76,134.55Zm-67.55-62a6.74,6.74,0,0,0,.6-1.63c0-.29-.23-.78-.46-.84-.62-.16-.71.38-.67.82A9.49,9.49,0,0,0,75.21,72.58ZM189,123.19a2.33,2.33,0,0,0-.78-2.89A2.28,2.28,0,0,0,189,123.19ZM67.91,76.51c.28.38.42.8.63.83.65.12,1-.34,1-.92a2.43,2.43,0,0,0-.32-.87Zm-8.08,33.15a2.7,2.7,0,0,0,.09,2.81C60.92,111.58,60.7,110.77,59.83,109.66Zm90.73,31.82c-1.07.82-2,1.23-1.64,2.36.06.19.47.49.54.44C150.34,143.77,150.23,142.83,150.56,141.48Zm12.66-64.3a11.3,11.3,0,0,0-1.65-1.06c-.64-.26-.71.31-.75.72-.07.6.35.71.83.65S162.38,77.35,163.22,77.18Zm-78-16c-.56.94-.83,1.53-.22,2.21C85.73,62.83,85.71,62.2,85.24,61.2Zm-21,61.74a1.39,1.39,0,0,0-.32,1.7.69.69,0,0,0,.67.06C65.17,124,64.68,123.49,64.19,122.94ZM85.54,57.7c.71-.85.91-1.42.37-2.12C85.09,56.09,85.24,56.75,85.54,57.7ZM169.86,81l-.58-2.16c-.29.09-.75.1-.83.29C168.13,79.87,168.75,80.18,169.86,81ZM91.31,50.17c-.75-.05-1.08.23-1.09.73,0,.29.14.81.31.85.63.17,1-.26,1.07-.84C91.63,50.65,91.39,50.36,91.31,50.17Zm5.78.52a7.81,7.81,0,0,0-1.32-.43c-.45,0-1,0-.82.65,0,.18.58.33.89.33S96.38,51,97.09,50.69ZM88.82,50c-.68.95-1.11,1.61-.2,2.41A1.85,1.85,0,0,0,88.82,50ZM73.76,136.34l.2,2.12c.28-.1.74-.12.83-.31C75.14,137.36,74.69,136.85,73.76,136.34ZM113,145.48c-.68-.41-1.07-.68-1.49-.88s-.83-.11-.69.35a2.18,2.18,0,0,0,1,1.05C112,146.1,112.38,145.78,113,145.48ZM97.28,149.9c-.73.06-1.18.22-1,.8.07.28.43.48.66.72l1-1.17Zm5.9-.19c-.55,1-.82,1.27-.78,1.46a3,3,0,0,0,.56.8c.25-.28.61-.53.7-.85S103.46,150.49,103.18,149.71Zm54-10.68c-.8.69-.94,1.33-.11,2a.77.77,0,0,0,.68,0C158.17,140.21,157.73,139.64,157.23,139ZM60.87,117.19c1.07-.78,1.23-1.46.5-2.37C60.55,115.42,60.57,116.14,60.87,117.19ZM63.64,82a2,2,0,0,0-.46,2.51C64.23,83.87,64.19,83.13,63.64,82ZM79.78,59.74c-1.28.83-2.25.71-2.77,2.08C78.14,61.57,79,61.68,79.78,59.74ZM65.24,79.4c.88-.52,1.68-.72,1.16-1.92C65.79,77.88,65.09,78.07,65.24,79.4Zm-3.42,47.87c-1,.16-1.63.35-1.52,1.52A1.66,1.66,0,0,0,61.82,127.27ZM98.5,52.91l-.71-.59c-.19.26-.48.49-.55.77-.1.5.16.93.7.81C98.15,53.85,98.27,53.35,98.5,52.91Zm-11,3.73c.06.1,1.37-.43.11-1.3C87.56,56.11,87.51,56.74,87.52,56.64Zm86.23,85c-.47.58-.9.88-.94,1.22s.38.62.59.93c.18-.24.45-.47.5-.73A5.81,5.81,0,0,0,173.75,141.64Zm-65.95.84.63-.81c-.19-.14-.42-.42-.57-.38a3.24,3.24,0,0,0-.84.48Zm-1.35,9.19c-.54-.34-.8-.65-1-.63a1.2,1.2,0,0,0-.78.53c-.25.37-.06.67.39.6A9,9,0,0,0,106.45,151.67Zm35.38-64.84.48.42a15.75,15.75,0,0,0,.92-1.38s-.34-.31-.53-.47Zm-75.47,15-.71,1.59c.3,0,.7.19.87.06C67.1,103,67.07,102.44,66.36,101.8ZM58.72,105l.6-.08-.27-2.11-.52.07Zm80.89,24.74c1-.58,1.61-1,1.33-2.13C140,127.87,139.7,128.48,139.61,129.7ZM50.16,90.08a1.32,1.32,0,0,0-.47,1.86A1.39,1.39,0,0,0,50.16,90.08ZM179.8,85.72c.06.87.11,1.74,1.33,1.79ZM94.3,50.6c-.61-.2-.93-.41-1.15-.34s-.43.42-.63.64c.26.15.54.41.8.4S93.79,51,94.3,50.6ZM69.62,79.54l-.47-.72a7,7,0,0,0-.93.78c-.06.06.19.39.3.59Zm45,61.32a4.67,4.67,0,0,0,.46-1.06c0-.35-.1-.76-.56-.49a1.25,1.25,0,0,0-.38.83C114.1,140.3,114.34,140.49,114.6,140.86ZM60.85,124.08a5.75,5.75,0,0,0-.24,1.08c0,.48,0,1.33.76.69C61.89,125.43,61.42,124.76,60.85,124.08Zm16.56,17.61a12.73,12.73,0,0,0,.23-1.78c-.09-.59-.35-1.16-.91-.39C76.57,139.75,77,140.41,77.41,141.69Zm106.88-26.18c1-.73,1.64-1,1.32-1.92C184.78,113.72,184.76,114.41,184.29,115.51Zm-42,7.74.32.35a5.89,5.89,0,0,0,.64-.42c.42-.37.84-.84.06-1.14C143.13,122,142.62,122.82,142.27,123.25ZM81.54,59.17c-.48.38-.84.54-.94.81s.29.66.46.66a1,1,0,0,0,.78-.47C81.93,60,81.7,59.65,81.54,59.17ZM171,142.39c-.24-.21-.48-.5-.55-.46a4.87,4.87,0,0,0-.77.62l.6.68ZM143.85,88.57c-.73.91-.34,1.4.42,1.8C144.68,89.75,144.59,89.21,143.85,88.57ZM84.57,53.47c-.36-.28-.58-.55-.67-.51a2.48,2.48,0,0,0-.83.56c-.06,0,.12.34.2.52Zm57.14,78.84c.79-.53,1.28-1,1.25-1.75,0-.08-.29-.25-.38-.22C141.82,130.63,141.64,131.25,141.71,132.31Zm-51,23.07a9.5,9.5,0,0,0-1.32-.66,2.41,2.41,0,0,0-.71,0c.14.28.21.68.44.82S89.68,155.5,90.7,155.38ZM60.82,131.67l.8.6c.06-.25.22-.53.16-.74s-.36-.41-.55-.61ZM140.7,87.76a3.2,3.2,0,0,0-.8-.19c-.1,0-.28.23-.28.36a2.17,2.17,0,0,0,.19.63ZM75.11,65.6a6.86,6.86,0,0,0,.5-1.38c0-.22-.17-.45-.26-.68-.21.21-.54.39-.61.64S74.88,64.76,75.11,65.6Zm8.62-5.87L83.39,59c-.21.12-.6.26-.59.37a2.4,2.4,0,0,0,.35.79Zm-17.3,83.1c-.14.45-.32.71-.25.87a3.2,3.2,0,0,0,.6.74c.08-.19.27-.42.23-.58A6.21,6.21,0,0,0,66.43,142.83ZM92.14,53.16c.39.22.71.5.79.44a3.26,3.26,0,0,0,.62-.75c-.2-.14-.46-.44-.58-.39A3.41,3.41,0,0,0,92.14,53.16Zm6.06-3-.69.65c.23.19.43.45.69.52s.55-.3.53-.36A4.6,4.6,0,0,0,98.2,50.15ZM80,13.56c-.47-.38-.79-1.17-1.58-.45C78.77,13.81,79.24,14.08,80,13.56ZM154.4,147.5c-.26-.15-.52-.38-.59-.33a.87.87,0,0,0-.39.58c0,.13.32.28.49.42ZM174,150.58c-.28-.18-.48-.42-.67-.41a.69.69,0,0,0-.51.41c-.11.42.13.63.54.49A3.21,3.21,0,0,0,174,150.58Zm-81.6,8c.33-.19.62-.27.71-.44s-.18-.37-.29-.56c-.19.12-.45.19-.56.37S92.34,158.35,92.41,158.63Zm62.41-10.22c.39.44.52.72.72.77.55.16.53-.27.44-.6a.73.73,0,0,0-.45-.47C155.32,148.09,155.09,148.29,154.82,148.41ZM103.47,46.11l.57-.64c-.19-.17-.36-.43-.57-.48s-.43.16-.65.25ZM99.67,49a5.45,5.45,0,0,0-1.21-.54c-.22,0-.45.19-.67.3.18.25.31.65.55.72S98.9,49.33,99.67,49Zm67.12,28.29c-.24-.34-.34-.63-.54-.75s-.83-1.1-1.05-.09C165,77.18,165.79,77.42,166.79,77.33Zm-26.08,19.4.37.23c.12-.21.26-.41.36-.63.2-.43.64-1-.33-.92C140.92,95.43,140.84,96.27,140.71,96.73ZM78.05,147.26c-.35-.16-.57-.34-.78-.33s-.43.23-.65.36c.18.2.32.48.54.58S77.53,147.63,78.05,147.26ZM184.49,94.79c.42-1.23.23-1.7-.86-1.77Zm5.11,28.29c-.82,1.34-.88,1.9,0,2.52Zm-120-52.53.85-1.37c-.2-.06-.43-.21-.58-.15a1,1,0,0,0-.56.52C69.22,69.73,69.4,70,69.57,70.55Zm67.17,58.58.5.76c.17-.12.49-.27.47-.35a1.34,1.34,0,0,0-.38-.66C137.28,128.83,137,129,136.74,129.13ZM75.16,66.56c-.6.8-.67,1.41,0,2.1A1.58,1.58,0,0,0,75.16,66.56ZM63.54,133.87a3.39,3.39,0,0,0,.43-.54c0-.05-.16-.2-.25-.31a4.22,4.22,0,0,0-.49.45A2.48,2.48,0,0,0,63.54,133.87Zm97-58.48a4.72,4.72,0,0,0-.87-.48c-.12,0-.29.11-.44.17a3.16,3.16,0,0,0,.51.58C159.77,75.72,160,75.57,160.49,75.39ZM72.87,72.45c.7-.58.47-1.16.09-1.79A1.2,1.2,0,0,0,72.87,72.45ZM101.73,45.1c-.07,0-.19-.09-.22-.07a2.45,2.45,0,0,0-.26.37s.13.08.14.07S101.62,45.23,101.73,45.1Zm-.17,2.4c-.28-.23-.45-.46-.61-.45s-.36.22-.54.34c.14.18.25.47.42.5S101.21,47.69,101.56,47.5Zm-28.15,21L73,67.6c-.14.17-.38.32-.4.5a2.05,2.05,0,0,0,.22.72Zm-.63,7.06c.49-.53.89-1.11,0-1.77Zm80.89,61c.29-.28.56-.43.63-.63s-.2-.37-.32-.56c-.19.17-.44.31-.54.52S153.56,136.22,153.67,136.53Zm-5.58-.22c-.31-.25-.54-.52-.63-.48a.87.87,0,0,0-.46.52c0,.17.14.39.22.59ZM91.15,158.19a11.13,11.13,0,0,0-1.6-.55c-.15,0-.33.17-.5.27a5.57,5.57,0,0,0,.6.84C89.71,158.81,90,158.62,91.15,158.19ZM83.37,61.38c-.31.61-.54.84-.51,1s-.26,1.21.62.7C83.65,63,83.44,62.25,83.37,61.38Zm84.2,90.45a3.31,3.31,0,0,0,.55-.64c0-.1-.1-.29-.16-.44-.19.07-.49.12-.53.24S167.49,151.43,167.57,151.83Zm-5.78-.74a8.36,8.36,0,0,0,.84.49s.28-.28.25-.34a6.55,6.55,0,0,0-.55-.75Zm-57.62-2.15-.22.63c.16.05.41.18.46.13a1.86,1.86,0,0,0,.26-.55ZM179.41,144a3.09,3.09,0,0,0-.78-.37c-.07,0-.3.29-.27.37s.27.48.41.47S179.13,144.25,179.41,144ZM91.35,53.36c-.28-.22-.45-.46-.6-.45a2,2,0,0,0-.68.3c.14.17.27.46.43.49S91,53.54,91.35,53.36ZM180.7,145.6a4.11,4.11,0,0,0-.15.71c0,.05.25.12.38.18a3.9,3.9,0,0,0,.26-.64S180.92,145.71,180.7,145.6ZM85.63,159.94c-.14.12-.32.21-.31.28s.1.38.21.43.32-.05.48-.09ZM70.84,75.19c-.07.16-.2.32-.16.44s.22.23.34.34a1.47,1.47,0,0,0,.08-.45C71.08,75.41,70.94,75.31,70.84,75.19Zm71.35,61-.35-.32a1.15,1.15,0,0,0-.07.35.31.31,0,0,0,.16.19A1.69,1.69,0,0,0,142.19,136.23ZM56.33,5.73,56.12,6c.08,0,.17.13.23.12A1.93,1.93,0,0,0,56.73,6Zm44.05,150.42-.15-.44a1.36,1.36,0,0,0-.42.2s.06.33.11.34A1.32,1.32,0,0,0,100.38,156.15Zm-55-48.94,0-.51c-.12,0-.33,0-.34,0a1.23,1.23,0,0,0,0,.47A1.53,1.53,0,0,0,45.39,107.21Zm47.37,46-.36-.25c0,.07-.12.16-.1.2a2.14,2.14,0,0,0,.23.38ZM182.5,89.92l-.23.33c.07,0,.13.1.2.11a.75.75,0,0,0,.23-.07ZM87.81,59.29l-.11-.48c-.15,0-.41.11-.41.16a1.94,1.94,0,0,0,.15.56A3.87,3.87,0,0,0,87.81,59.29Zm64.51,82.39c.24-.33.46-.5.46-.66a1.76,1.76,0,0,0-.24-.66c-.13.14-.34.27-.37.44A2.86,2.86,0,0,0,152.32,141.68ZM85.82,59.34l-.27-.47a2.11,2.11,0,0,0-.35.51c0,.11.13.27.21.41ZM74.51,149.86c-.16.06-.36.08-.45.2s.09.27.14.41l.6-.3Zm92.55-1-.44-.42c0,.08-.14.17-.12.22a2.8,2.8,0,0,0,.25.41Zm-66.6-100a3,3,0,0,0-.43.56c0,.06.19.31.28.3a2.56,2.56,0,0,0,.62-.22Zm80.14,32-.22-.42-.47.3c.1.11.19.29.31.32S180.47,80.83,180.6,80.75ZM91.41,48.2l-.58.61a2,2,0,0,0,.54.32c.1,0,.36-.18.35-.25A2.71,2.71,0,0,0,91.41,48.2Zm7.39-1.4-.26.53c.14.06.31.2.43.17a2.32,2.32,0,0,0,.53-.33Zm1-1.29a2.16,2.16,0,0,0-.71-.11c-.11,0-.17.29-.26.45a3.83,3.83,0,0,0,.74.13C99.67,46,99.73,45.73,99.84,45.51ZM73,64.7c-.09.15-.24.28-.25.43s.13.29.2.44c.09-.14.25-.27.26-.41S73.09,64.86,73,64.7Zm108.11,79.61.74.41c.06-.15.2-.33.16-.44s-.25-.4-.39-.41S181.34,144.11,181.12,144.31ZM95.53,20.17l.19-.11s-.12-.15-.15-.13a.91.91,0,0,0-.23.17Zm10.06,4.68-.19-.07,0,.26a.71.71,0,0,0,.21,0A.34.34,0,0,0,105.59,24.85ZM73.11,77.22l.15.09,0-.15Zm-1.78,1.3.14-.22a1.81,1.81,0,0,0-.37-.18s-.1.11-.16.17Zm95.24,2.06.1-.37c-.06,0-.17,0-.17.05A1.23,1.23,0,0,0,166.57,80.58ZM145.41,84c-.08,0-.22.1-.22.13a3.73,3.73,0,0,0,.14.44c.07,0,.2-.1.2-.14A4,4,0,0,0,145.41,84ZM61.7,85.93l-.21-.38c-.05,0-.15.13-.14.17a1.81,1.81,0,0,0,.18.37Zm-.16,11.45a2,2,0,0,0,.14-.39s-.09-.11-.15-.16a3.2,3.2,0,0,0-.16.39S61.47,97.33,61.54,97.38Zm-2,10.19c-.05-.06-.08-.14-.14-.17s-.11.07-.17.11l.23.27Zm81.55,15.78-.06-.24c-.06,0-.17,0-.17.08a1,1,0,0,0,0,.23Zm-2.17,8.26a.64.64,0,0,0-.1-.22s-.17,0-.18.06a.3.3,0,0,0,.08.22S138.87,131.63,138.94,131.61Zm-75.44,0h-.38c.05,0,.11.13.16.13S63.41,131.67,63.5,131.61ZM188,134.14l-.14-.2a1.79,1.79,0,0,0-.22.38s.1.1.15.16Zm-33.14,7.52-.23-.42a1.63,1.63,0,0,0-.27.33.28.28,0,0,0,.1.21A1.79,1.79,0,0,0,154.81,141.66Zm4.55,2.81.11.2.09-.21Zm-88,1.24c0-.06.16-.13.15-.17a2.83,2.83,0,0,0-.17-.4c0,.06-.16.12-.15.16A1.48,1.48,0,0,0,71.34,145.71Zm107.21,2.44-.13.18.22,0ZM72.49,152.29c0-.06-.12-.17-.15-.16a2,2,0,0,0-.4.16c0,.05.12.15.16.14A1.3,1.3,0,0,0,72.49,152.29Zm2.87,2.35-.21-.41c-.06.06-.19.13-.19.16s.13.28.19.43Zm27.07.09c-.06.06-.14.12-.15.19s.09.12.13.18.16-.12.15-.17S102.48,154.8,102.43,154.73Zm-8.64.35-.29.07.1.18ZM74.28,11.52l.2-.15a2.28,2.28,0,0,0-.38-.2s-.11.09-.17.14ZM184.38,99l.17.1v-.18ZM143.3,84.26l-.14-.09v.15Zm38.4-2.2.13.09,0-.15Zm-118-1.49.1-.14-.14,0Zm9.42,72.82-.15-.1,0,.16Zm41.84-8.86-.18.18c.06,0,.11.16.17.16s.13-.1.19-.16ZM102.36,49.59l.1-.16h-.18Zm10.31-9.31.1-.14-.15,0ZM64.12,134.85l.18.12,0-.18Z"/><path class="cls-1" d="M170.66,24.67l-1.25.94h0c-1.82-2.88-4-2.15-6.21-.59l0,0c-.62-1-1.34.13-2-.09l-1.16.13a.62.62,0,0,0-.07.19s.05.08.08.12l0-.3,1.21-.11c-.16,1.61-1.56,1.48-2.61,1.85l.07.09c0-.42,1-1,.05-1.21a3.51,3.51,0,0,0-3.92,1.2l.06-.07c-1.15-.06-2.31-.14-2.59,1.4v0c-.89-1-1.5.23-2.27.28l.07.07c.08-1.75-1-.68-1.51-.55-4,1-7.86,2.14-11.8,3.18a4.93,4.93,0,0,1-2.91.18c29.93-11.18,62.18-12.22,93.71-17,20.65-3.12,41.58-.26,62.21,3.06.31.05.54.58.81.89l.05,0c-5.16-.64-10.33-1.3-15.49-1.9-.76-.09-1.9-.72-2.06.83v.06c-1.56-1.72-3.59-1.53-5.61-1.38l-.08,0,.13-.06-.5.92h0c-1.4-.85-1.46-.83-2.86.78l.07-.08a8.64,8.64,0,0,0-4.08,2l0,0c-.64-1.37,3-1.46,1-3.25,1.24.31,2.58,1.2,3.49-.6-1-.54-1.91-.15-2.86.12l-.7-.24s-.09.09-.13.13l.9.11-.69.48-1.89.74,0,.07c.68-1.09.06-1.85-.89-1.83-1.36,0-3.1-1.5-4.07.74l.05-.07c-1.48-.08-3.09-.36-3,2l.05.07c-1-1.29-1.86-.32-2.78.1-3.63,1.65-6.73,4.31-10.59,5.51l.05.06c2.67-2.6,6.06-4.06,9.24-5.84.9-.51,1.66-.91,1.44-2.09l0,0c1.32,1.59,2.24.19,3.27-.83h-8.5l0,.06c-1.69-.07-3.52-1.33-5,.58l0-.08c-1.92-1-3.54-.06-5.15.86a5.16,5.16,0,0,0,.51-1.12c-.74-.53-1.51-.35-2.62,0l2.14,1.08,3.66,1.74,0-.06c-1.29.56-2.21-.46-3.29-.77-1.51-.43-2.65-.1-3,1.61l.06-.06c-.61.06-1.37-.44-1.76.46h0l-.51-2.42h0c1.15,1.78,2,.47,3.2-.25-3.25-2.29-6.33-.88-9.32-.24-.91.19-2.09,1-.13,1.75l.06-.07c-3.17-1-5,2.2-7.75,2.51l-.17-.19c-1.07-.61-2.11-1.28-3.22-1.8a1.59,1.59,0,0,0-1.87.7c-.68.8.9.68.65,1.38l.06-.07c-2.9-1.27-4.53,1.71-7,2.07l.05.05a4.22,4.22,0,0,0,.55-.8c.44-1.17,3.32-.85,2.23-2.31s-3.25-.88-4.71.5l.08-.06c-1.86-1.12-3.57.76-5.37.13-.44,1,1.25.74.76,1.63v0c-.87-.74-1.54.16-2.32.27l0,.08c.35-.64.81-1.52-.39-1.51-1.77,0-3.63-.05-5.46,1.11,1.67.91,3.07,1.68,4.76.94l-.08-.07-.33.92.06-.06-3.41,1.43.05.06c-.38-.75,1.46-1,.53-1.64-1.31-.84-2.81-1.67-4.48-.72l0,.07c.14-.49.82-1.27-.45-1.11-1.71.21-3.55-.07-5.06,1.1l0-.05L178.3,23l0,.06c-1.48-1.09-2.82-1.26-3.89.56l.06-.08a4.25,4.25,0,0,0-3.3.08c-.5-.88-1.16-.48-1.79-.21-.1,0-.12.29-.18.44l1.47.25,0,.56Zm38.58-6.59-2.38.26c1,.84,1.95,1.13,2.34-.32h.3s-.09-.07-.11-.06A.87.87,0,0,0,209.24,18.08Zm9.94-.94c-2.65-1.23-4.76.15-7.37.32C214.7,20.22,216.85,19.29,219.18,17.14Zm1.38,0,.54-.91c-.23-.07-.48-.23-.67-.18a2.68,2.68,0,0,0-.74.5Z"/><path class="cls-1" d="M16.74,131.85c2.4-4,5-7.82,5.86-12.51l0,0c1.43-2.27,2.84-4.54,4.3-6.79.56-.87.75-1.62-.25-2.27l.05.06c3.13-2.22,4.32-5.68,5.72-9l-.09.09c.68-.4.11-.82,0-1.24l.08.05a44.15,44.15,0,0,0,4.91-8.4c.41-.92.69-1.64-.39-2.22l0,0c3.46-2.48,4.38-6.42,5.78-10.09l-.11.09c1-.38.31-.79,0-1.2l.07.05c2-3,3.86-6,4.52-9.64l.07,0c1.14-2.81,2.32-5.6,3.38-8.44.3-.83,1.2-1.77.09-2.7l.05.05c1-2.87,2.89-5.41,3.43-8.51.17-1,.54-1.92-.39-2.72l0,0c1.8-1.73,1.31-4.63,3.23-6.29h0c-5.91,29.33-20,55.41-32.83,82-6.06,12.51-11.31,25.26-14.06,39-1.9-2.63,1-6-1.1-8.59h0c2.16-2.34,2.48-5.38,3.15-8.29l-.11.08c1-.39.14-.81,0-1.22l.08,0a33.74,33.74,0,0,0,4.34-11.49Z"/><path class="cls-1" d="M234.88,92.65l-9.8-4.35.06.08c-.21-.36-.43-.42-.64,0l.07-.07-6.78-4.12c-.77-.46-1.55-1-2.3,0l0,0a38.66,38.66,0,0,0-15.25-9.14c0-.16,0-.31,0-.46l0,.44a3.26,3.26,0,0,1,1.89,2.46l.05,0c-2.64-2.4-5-5.19-8.51-6.4-1.42-.48-2.6-1.83-4.31-.93l0,0c-2.19-1.74-4.36-3.55-7.48-2.92l.06-.07c-.65-1.15-2.88-.6-2.79-2.57h0c20.94,6.36,38.09,20.69,58.61,27.93,8.52,3,17.09,5.91,25.62,8.91.78.27,2.17,0,2,1.56l0,0q-9-3.1-18-6.21a1.73,1.73,0,0,0-2.14.65h0c-2.56-3.19-6.65-3.1-10-4.67l.08.1c-.21-.42-.43-.34-.66,0Z"/><path class="cls-1" d="M123.94,57.25A19.47,19.47,0,0,1,128.55,66l-4.77-8.64Z"/><path class="cls-1" d="M226.9,20c-3.25,1.15-6,3.58-9.56,3.94l.07.09c3.23-1.23,5.89-3.83,9.56-4Z"/><path class="cls-1" d="M18.82,160.67a9.46,9.46,0,0,0-4,4.06v0c1.12-3.11,3.64-4.91,6.25-6.62L21,158l-2.2,2.76Z"/><path class="cls-1" d="M189.92,70.73c3.27.61,4.79,3,5.93,5.81v0a23.23,23.23,0,0,0-5.9-5.84S189.92,70.73,189.92,70.73Z"/><path class="cls-1" d="M299.12,20.3a13.56,13.56,0,0,1-5.44-4.91l0,.06a15.21,15.21,0,0,1,5.44,4.89Z"/><path class="cls-1" d="M40,111.18c-.51,2-2.73,2.83-3.5,4.69l0,0c-.07-2.49,2-3.4,3.52-4.69Z"/><path class="cls-1" d="M242.45,15.94c.07.88.75.76,1.32.81l0,0c-2,.59-3.56-.15-5.05-1.34l0,.08,3.88.55Z"/><path class="cls-1" d="M33.68,122.8c-1.47.84-2.15,2.92-4.28,2.75h0c1.81-.32,2.18-3,4.35-2.7Z"/><path class="cls-1" d="M176.8,25,175,24.64l0,.05c-.19-.38-.37-.76-.56-1.15l-.06.08,3.89-.56,0-.06L176.79,25Z"/><path class="cls-1" d="M171.92,25.89l-.12-.72-.07.08,3.33-.56,0-.05c-.74,1.19-1.64,2-3.14,1.23Z"/><path class="cls-1" d="M182.48,24.45l.75-.88-.06.06,2.76-1.11,0-.07c-.81,1.26-1.81,2.19-3.47,1.92Z"/><path class="cls-1" d="M29.58,140.94c-1.74-.11-2,2.62-4,2.06h0c1.56-.24,1.95-2.75,4-2C29.6,141,29.58,140.94,29.58,140.94Z"/><path class="cls-1" d="M234.49,10.88c-.54-1.05-1.69-1.08-2.58-1.55H232a.77.77,0,0,1,.22-.47l0,.06,2.78-.55-.07-.06c-1.82.6.08,1.76-.38,2.57Z"/><path class="cls-1" d="M19.34,122.61c-.81,1.16-1.61,2.32-2.43,3.47l.05,0c-.13-1.81,1.25-2.56,2.42-3.46Z"/><path class="cls-1" d="M203.94,67.62c1.24.68,2.91.75,3.44,2.43l.07,0c-1.1-.88-2.75-1-3.44-2.44Z"/><path class="cls-1" d="M158.65,26.79c-.61.69-1.22,1.37-1.84,2.05h0l-.8-1.5-.06.07,2.77-.54Z"/><path class="cls-1" d="M279.28,13.13c1-.62,1.68-.39,2.09.7l-.06-.09-2.59,0,0,.11c.6,0,.57-.38.58-.8Z"/><path class="cls-1" d="M188.49,24.41l1.35.4-.05-.06c-.93.52-1.86,1-2.8,1.53l0,.06,1.46-1.91Z"/><path class="cls-1" d="M207.12,9.44c1.1-.06,1.91.53,3.16,1.48-1.6-.17-2.57-.42-3.14-1.5Z"/><path class="cls-1" d="M34.25,121.23c1.32-.09,1.69-2.09,3.27-1.68l-.08-.07c-1,.79-1.52,2.34-3.23,1.75Z"/><path class="cls-1" d="M123.78,57.4a5.41,5.41,0,0,1-2.1-2.79v0a4.23,4.23,0,0,1,2.25,2.66Z"/><path class="cls-1" d="M9.29,147.27c1-.33.69-2.24,2.25-1.94l0,0c-1,.35-.86,2-2.21,1.95Z"/><path class="cls-1" d="M262.27,9.73c1-.34,1.73.08,3,1.33l-3-1.33Z"/><path class="cls-1" d="M122.22,119.36c-.34.87-1.19.93-2.67,1.58,1.21-1.08,1.71-1.7,2.69-1.56Z"/><path class="cls-1" d="M50.87,57.8a3.12,3.12,0,0,1-1.6,2.75l0,.05a3.61,3.61,0,0,1,1.6-2.75Z"/><path class="cls-1" d="M214.82,20.39l-2.38,1.92h0c-.46-2,1.45-1.44,2.21-2.11Z"/><path class="cls-1" d="M200.52,24c.82-.75,1.61-1.55,2.85-1.51l-.05-.05A2.9,2.9,0,0,1,200.44,24Z"/><path class="cls-1" d="M235.17,25l3-1.35-.05-.05a2.57,2.57,0,0,1-2.9,1.34Z"/><path class="cls-1" d="M204,67.56c-1-.37-2.06-.74-3.09-1.13,0,0,0,0,0,0a2.32,2.32,0,0,1,3,1.16Z"/><path class="cls-1" d="M265.53,102.91c1.41-.64,2.63-.74,3.18,1.1v0c-.84-.93-2-1-3.14-1.14Z"/><path class="cls-1" d="M180.12,15.6a4.34,4.34,0,0,0-2.8-.89,0,0,0,0,0,0,0c1.2-.65,2.07-.19,2.79.82Z"/><path class="cls-1" d="M47.64,86.15l-1.3,2.56h0c-.65-1.42.38-2,1.33-2.55Z"/><path class="cls-1" d="M70,12.15c.85.53,1.71,1.06,1.47,2.29l.08-.07c-.69-.62-1.51-1.15-1.56-2.22Z"/><path class="cls-1" d="M118.45,51.31a2.3,2.3,0,0,1-2.19-1.63l0,0a2.63,2.63,0,0,1,2.18,1.62Z"/><path class="cls-1" d="M118,126c.47,1.56-1.15.74-1.21,1l1.21-1Z"/><path class="cls-1" d="M254.44,9.47c1,.13,2,.41,2.07,1.68l.07-.07c-.84-.38-1.75-.67-2.09-1.67Z"/><path class="cls-1" d="M266.63,10.91a3,3,0,0,0-2.08-1.6h0c1.18-.09,2.56-.42,2.06,1.63Z"/><path class="cls-1" d="M260.14,88.54c-1.28.68-1.69-1.07-2.76-1h0c1.3-.7,1.74,1,2.8,1Z"/><path class="cls-1" d="M59,9c1.31-.21,1.64,1.15,2.54,1.58l0-.12A3.49,3.49,0,0,1,59,8.94Z"/><path class="cls-1" d="M28.88,132.81l-2.77,1.05,0,.09c1.05-.07,1.46-1.75,2.8-1.13Z"/><path class="cls-1" d="M237.05,7.2c-.18.39-.37.77-.55,1.16l0,0h-1.68l.07.06V7.23l-.08,0h2.27Z"/><path class="cls-1" d="M82.48,19c-.37-.94-1.7-1.31-1.52-2.58l0,.05a3,3,0,0,1,1.45,2.5Z"/><path class="cls-1" d="M253.66,84.25c1.31-.63,1.8,1,2.85,1h0c-1.29.58-2-.56-2.87-1Z"/><path class="cls-1" d="M32,129.86c-.86.46-1.38,1.74-2.67,1.13l0,0c1.06,0,1.48-1.53,2.7-1.09Z"/><path class="cls-1" d="M37.05,124.71l-.2-2.27h.21v2.27Z"/><path class="cls-1" d="M238.52,95.08c-1.37.72-1.84-.69-2.7-1.15l-.06,0c1.39-.79,1.58,1.32,2.72,1.12Z"/><path class="cls-1" d="M42.51,105.5c-.67-1.3,1-1.75,1-2.83l0,0c.89,1.36-1,1.79-1,2.84Z"/><path class="cls-1" d="M118,126l3.19-.58,0,0c-.93.8-1.88,1.5-3.15.62Z"/><path class="cls-1" d="M33.32,92.84c1,.19,1.4-1.57,2.59-.93l0-.06c-.88.23-1.3,1.64-2.53,1Z"/><path class="cls-1" d="M129.25,92.08a2.51,2.51,0,0,1-1.53,2.3l-.11-.1a3.1,3.1,0,0,1,1.7-2.14Z"/><path class="cls-1" d="M93.09,22.06c-.12-.95-1.6-1.16-1.26-2.35l-.11.08,1.67,1.11,0-.06c-.11.4-.22.8-.32,1.2Z"/><path class="cls-1" d="M41,80.57c.42,1.22-1.31,1.58-1.1,2.71v0c-.62-1.33.51-1.89,1.16-2.67Z"/><path class="cls-1" d="M29,105.5c-.75-1.24,1-1.69.87-2.73h0c.85,1.27-1,1.66-.87,2.72Z"/><path class="cls-1" d="M30.12,135.4c.88.86.25,1.93.41,2.9h0l-.36-3Z"/><path class="cls-1" d="M121.15,54a2.23,2.23,0,0,1-1.64-1.62h0a1.68,1.68,0,0,1,1.61,1.66Z"/><path class="cls-1" d="M189.83,12.31l1.55.17,0,.28-1.48-.43Z"/><path class="cls-1" d="M229.27,19.11,226.9,20a.5.5,0,0,0,.07.08c.29-1.49,1.11-1.65,2.3-.93Z"/><path class="cls-1" d="M8.23,156.63l.66-2.48-.09-.06c.06.9.59,1.9-.6,2.5Z"/><path class="cls-1" d="M228.51,22.75c-.24,1.22-1.07,1.27-2,1h0a2,2,0,0,0,2.06-1.05Z"/><path class="cls-1" d="M57.17,40.35,57,38.51l.18,0v1.85Z"/><path class="cls-1" d="M207.75,79.88a2.08,2.08,0,0,1-1.61-1.39l-.07.08c.92-.06,1.25.71,1.74,1.26Z"/><path class="cls-1" d="M227.08,74.66c1.07-1,1.81,0,2.65.45l0-.07q-1.31-.18-2.61-.39Z"/><path class="cls-1" d="M48.62,6.38c.84-.38,1.25.49,1.89.67L50.56,7c-.83.35-1.31-.29-1.88-.66Z"/><path class="cls-1" d="M223.93,8.92l-2-.77h0c.88-.29,1.6-.22,1.9.83Z"/><path class="cls-1" d="M232.2,8.86a1.65,1.65,0,0,1-1.64-1.12l-.07.09a1.82,1.82,0,0,1,1.66,1.09Z"/><path class="cls-1" d="M242.52,8.87c-.91,0-1.55-.24-1.28-1.35h0l1.23,1.4Z"/><path class="cls-1" d="M115.68,32.3l.83.83c-.08,0-.19.09-.24.06-.38-.19-.84-.35-.55-.94Z"/><path class="cls-1" d="M216,8.48l1.78.06h0c-.62,1.94-1.07-.79-1.67-.06Z"/><path class="cls-1" d="M237.88,9.73l-1.34-1.41,0,0c.8.16,1.75.17,1.34,1.44Z"/><path class="cls-1" d="M177.06,64.12l2.21.39h0c-.8.34-1.65,1-2.2-.35Z"/><path class="cls-1" d="M225.24,10.4l-1.31-1.48-.07.07c.94,0,1.74.14,1.38,1.42Z"/><path class="cls-1" d="M258.38,8.77c.62.25,1.25.5,1.86.76,0,0,0,0,0,0-.81.32-1.54.4-1.82-.7Z"/><path class="cls-1" d="M201.46,10.11c.44.07,1-.32,1.3.38-.67.53-.83-.26-1.22-.44Z"/><path class="cls-1" d="M239.62,9.58l.36.84-.46,0,.11-.85Z"/><path class="cls-1" d="M260.22,10.87c.79-.57,1.36.4,2.08.3h0c-.82.77-1.34-.34-2-.34Z"/><path class="cls-1" d="M266.62,11c.94-1,1.56.4,2.38.31h0c-.91.63-1.56-.35-2.37-.37Z"/><path class="cls-1" d="M204,80.37c-.12-.75-.23-1.51-.34-2.27v0c-.26.8,1,1.36.35,2.21Z"/><path class="cls-1" d="M216.23,70.73a3.63,3.63,0,0,1-.51.07c-.07,0-.14-.06-.22-.09.12-.06.23-.16.35-.16S216.08,70.65,216.23,70.73Z"/><path class="cls-1" d="M227.67,92.5l.49.27,0-.31-.57,0Z"/><path class="cls-1" d="M15.37,167.57c-.8,0-1.37,1-2.28.48h0c.8,0,1.35-1.14,2.29-.48Z"/><path class="cls-1" d="M144.18,50.44c-.24-.62-.47-1.25-.71-1.87l-.06.06.66,0-.11-.08.63.64-.07-.11c-.12.44-.23.88-.34,1.32Z"/><path class="cls-1" d="M45.65,71c.2-.64.4-1.28.61-1.92h0c.44.84-.19,1.32-.64,1.86Z"/><path class="cls-1" d="M139.93,46.23l.27,1c-.15,0-.43-.11-.42-.14a5.74,5.74,0,0,1,.21-.89Z"/><path class="cls-1" d="M32.14,128.88c.77-.08,1.3-1.14,2.22-.52l-.07-.06c-.72.24-1.29,1.14-2.2.54Z"/><path class="cls-1" d="M148.11,29.21l2-.64-.06-.06a1.62,1.62,0,0,1-1.94.69Z"/><path class="cls-1" d="M13.8,134.6l-.57,1.85h0a1.43,1.43,0,0,1,.64-1.79Z"/><path class="cls-1" d="M185.29,27.34l-1.12,1.5h0c-.4-1.12.34-1.33,1.17-1.46Z"/><path class="cls-1" d="M164.53,28.81c-.1-1.35.65-1.39,1.64-1.1h0a1.7,1.7,0,0,0-1.62,1.1Z"/><path class="cls-1" d="M187,26.28a1.64,1.64,0,0,1-1.7,1.06l.05.05a1.64,1.64,0,0,1,1.7-1.05Z"/><path class="cls-1" d="M166,26.55c.52-.42,1.05-.83,1.58-1.24h0c.22,1.43-.54,1.55-1.63,1.23Z"/><path class="cls-1" d="M182.42,25.61l-1.92.65.05,0c.34-1,1-1,1.88-.7Z"/><path class="cls-1" d="M31.65,102.29c-.52-1,.2-1.48.83-2l-.08-.05c0,.41,0,.83,0,1.24l.09-.09c-.61,0-.71.43-.82.88Z"/><path class="cls-1" d="M49.27,60.55c-.23.67-.45,1.34-.67,2h0a1.21,1.21,0,0,1,.72-2Z"/><path class="cls-1" d="M200.44,24c.35,1-1,.87-1.07,1.58v0c-.32-1,.49-1.22,1.14-1.53Z"/><path class="cls-1" d="M188.5,24.43l-1.54.12V24.3l1.53.11Z"/><path class="cls-1" d="M301.35,21.9a1.71,1.71,0,0,1-1.68-1l-.05,0c.87-.12,1.26.47,1.64,1.09Z"/><path class="cls-1" d="M294,19l2.06.42,0,0L294,19Z"/><path class="cls-1" d="M124,118.37a1.91,1.91,0,0,1-1.73,1l0,0c.12-.89.84-1,1.53-1.2Z"/><path class="cls-1" d="M44.06,73.19c.17-.68.35-1.36.52-2h0a1.68,1.68,0,0,1-.6,2Z"/><path class="cls-1" d="M42.83,79.6c-.67,0-.78.44-.83,1h0c-.52-1,0-1.54.81-2l-.07-.05c0,.4,0,.8,0,1.2Z"/><path class="cls-1" d="M11.54,145.33c-.59-1,.27-1.47.8-2.05l-.08,0c0,.41,0,.81,0,1.22l.11-.08c-.69-.09-.76.42-.85.91Z"/><path class="cls-1" d="M126.55,96.24c.53-.56,0-1.67,1.06-2l.11.1-1.29,1.85Z"/><path class="cls-1" d="M241.85,77.7l-1.44.13V77.6l1.45.09Z"/><path class="cls-1" d="M249.91,8c.16.59,1.15.93.51,1.75h0c-.31-.54-.89-1-.51-1.74Z"/><path class="cls-1" d="M29,134.9c.52-.16,1-.33.93-1.05v0c.06.5.12,1,.17,1.52,0,0,.06-.08.05-.07l-1.16-.5S29,134.9,29,134.9Z"/><path class="cls-1" d="M223.31,72.25h-.82l.83-.05Z"/><path class="cls-1" d="M19.93,122.11A1.16,1.16,0,0,1,21,121l0,0c0,.77-.33,1.12-1.09,1.1Z"/><path class="cls-1" d="M268.35,92.22c-.24-.55-.54-1-1.23-.73h0c.58-.07,1.49-.77,1.26.67Z"/><path class="cls-1" d="M8.2,156.59c.06.34.12.69.16,1,0,0-.13,0-.2.07,0-.34.06-.69.08-1.05Z"/><path class="cls-1" d="M267.5,89.91c-.13.52-.26,1-.4,1.57,0,0,0,0,0,0-.22-.52-.42-1-.62-1.55l-.08.07h1.17Z"/><path class="cls-1" d="M257.22,86.69c-.93-.12-1.29-.52-.7-1.4h0l.66,1.44Z"/><path class="cls-1" d="M164.7,25.27l.71.08-.13.25-.51-.41Z"/><path class="cls-1" d="M217.81,85.33l1,.93h0c-1.17.49-1.24,0-.92-1Z"/><path class="cls-1" d="M213,82.57l0,.14-.19-.15Z"/><path class="cls-1" d="M178.54,25.53,176.8,25h0c.65-.09,1.32-.26,1.71.51Z"/><path class="cls-1" d="M182.14,23c-.59-.09-1.29.18-1.69-.51l0,.05,1.66.55Z"/><path class="cls-1" d="M216.57,84.42c.41.31.81.61,1.23.91,0,0,0,0,0,0-1,.41-1.43.22-1.17-.92Z"/><path class="cls-1" d="M210.21,20.48l1,0,0,.21-.89-.26Z"/><path class="cls-1" d="M271.13,103.88l1,1.09,0,.07c-.31-.4-.63-.81-1-1.21Z"/><path class="cls-1" d="M268.71,104a2.86,2.86,0,0,1,2.41-.12l.07-.06-2.48.16Z"/><path class="cls-1" d="M290.64,18.37c.37-.06.73-.11.18,0,.57.11.23.05-.12,0Z"/><path class="cls-1" d="M254,82.85c-.1.47-.2.93-.29,1.4h0l-.8-1.36,0,0H254Z"/><path class="cls-1" d="M85.85,17.49c.45.09.88.18.74.8l-.94-.59Z"/><path class="cls-1" d="M268.57,17.21l1.92.09,0,0c-.63.08-1.29.52-1.88-.13Z"/><path class="cls-1" d="M8.8,149.42c.17-.72.33-1.44.49-2.15h0l-.48,2.05Z"/><path class="cls-1" d="M21.71,146.88l0,.6,0-.61Z"/><path class="cls-1" d="M82.69,133.86c.08-.8.15-1.6.23-2.4h0c-.08.79-.16,1.57-.25,2.36Z"/><path class="cls-1" d="M171.33,16.44,172.6,16l.07.35-1.33.09Z"/><path class="cls-1" d="M87.48,88.26l.36.9-.33,0c0-.32,0-.65,0-1Z"/><path class="cls-1" d="M289.81,15c1.05-.17,1.19.29.79,1.12v0l-.77-1.2S289.81,15,289.81,15Z"/><path class="cls-1" d="M135.87,42.72c-.32-.31-1.31.43-1.11-.71l0,.06h.64l-.1,0,.63.63Z"/><path class="cls-1" d="M194.64,64.62l-.72.2s-.09-.1-.13-.15c.3,0,.6,0,.91-.06C194.7,64.62,194.64,64.62,194.64,64.62Z"/><path class="cls-1" d="M201.3,12.63l-1.71-.49-.07.08,1.83.52Z"/><path class="cls-1" d="M161,19.76c0-.19,0-.37,0-.56l-.06.05H162l-.07-.05c-.06.71-.53.6-1,.51Z"/><path class="cls-1" d="M254.76,19c-.13.33-.27.66-.41,1v0l.47-.93Z"/><path class="cls-1" d="M260.22,19.48l-1.65,0-.06.06h1.75Z"/><path class="cls-1" d="M202.48,20.48l-.95-.63s-.09.06-.09.07c.32.18.65.36,1,.53Z"/><path class="cls-1" d="M235.71,19.66a.93.93,0,0,0-1,.89v0c.29.42.69.55,1,.13.14-.18,0-.58,0-.88Z"/><path class="cls-1" d="M253.19,20.54c.08-.88.79-.34,1.17-.53v0l-1.17.53Z"/><path class="cls-1" d="M202.43,20.45l.51,0h-.45S202.43,20.45,202.43,20.45Z"/><path class="cls-1" d="M234.7,20.55l-1.07.58h0l1.08-.6Z"/><path class="cls-1" d="M253.18,20.56l-1,.56v0l1.05-.55Z"/><path class="cls-1" d="M232.41,21.58c.07-1,.82-.29,1.22-.45h0l-1.29.4Z"/><path class="cls-1" d="M252.14,21.12l-1.18.57,0-.06,1.15-.54Z"/><path class="cls-1" d="M153.56,21.58l.77-.07,0,.33-.67-.33Z"/><path class="cls-1" d="M196.91,21.62l.64,0h-.62Z"/><path class="cls-1" d="M232.34,21.53c-.36.19-.71.38-1.08.56l.06.05c.08-.71.55-.69,1.08-.56Z"/><path class="cls-1" d="M251,21.69l-.23-.27-.07.36.33-.15Z"/><path class="cls-1" d="M194.6,21.91l-1.13.55.08.07,1.09-.54Z"/><path class="cls-1" d="M211.34,22.76c.09-.81.58-.68,1.1-.45h0c-.37.15-.74.3-1.13.43Z"/><path class="cls-1" d="M230.22,22.65c.13-.66.57-.68,1.1-.52,0,0-.07-.05-.06,0l-1.1.52Z"/><path class="cls-1" d="M209.54,22.93l1.78-.18s0,0,0,0l-1.72.1Z"/><path class="cls-1" d="M228.52,22.75l1.69-.1-.05,0-1.65.14Z"/><path class="cls-1" d="M149.13,23.19l1.37.67h.12l-1.41-.7Z"/><path class="cls-1" d="M183.23,23.57l-1.09-.6-.06.09,1.09.57Z"/><path class="cls-1" d="M193.14,23.38l.38.53-.22,0a5.7,5.7,0,0,1-.11-.62S193.14,23.38,193.14,23.38Z"/><path class="cls-1" d="M216.64,24.79c.26-.26.52-.51.78-.78a.65.65,0,0,1-.08-.09l-.78.83Z"/><path class="cls-1" d="M163.2,25c.56-.32,1.1-.48,1.5.24l.07-.08c-.5-.07-1-.15-1.53-.21Z"/><path class="cls-1" d="M171.8,25.17c-.47,0-1,.17-1.14-.5h0l1.06.59Z"/><path class="cls-1" d="M216.56,24.75l-1.53.4v.12l1.6-.48Z"/><path class="cls-1" d="M226.47,25.05c-.52-.33-.77,0-1,.42v0c.61.58,1,.52,1-.39Z"/><path class="cls-1" d="M169.41,25.61l-1.83-.31h0l1.83.31Z"/><path class="cls-1" d="M178.5,25.46l.41-.05-.37.11S178.5,25.46,178.5,25.46Z"/><path class="cls-1" d="M197.62,25.45l1.75.11s0,0,0,0l-1.75-.11Z"/><path class="cls-1" d="M225.5,25.47l-1.14.52,0,0,1.11-.56Z"/><path class="cls-1" d="M224.36,26l-1,.6h0c.21-.39.38-.87,1-.58Z"/><path class="cls-1" d="M196,26.56l1.48-.07-.07-.08-1.36.12Z"/><path class="cls-1" d="M223.37,26.59l-1.81-.07-.05.05,1.86,0Z"/><path class="cls-1" d="M156,27.35c-.46,0-1,.21-1.1-.55l-.06.07,1.1.55Z"/><path class="cls-1" d="M172,27.17,170.51,27h0l1.6.19Z"/><path class="cls-1" d="M107.94,28.12l.64-.06v.23L108,28Z"/><path class="cls-1" d="M152.32,28.2l.6,0-.59.07Z"/><path class="cls-1" d="M220.47,28l-1.54.49-.05.09,1.55-.47Z"/><path class="cls-1" d="M155.19,28.68l1.62.17h0l-1.63-.2Z"/><path class="cls-1" d="M164.53,28.81l-1.75-.16h0l1.75.15Z"/><path class="cls-1" d="M184.17,28.84l-1.7-.21h0l1.71.21Z"/><path class="cls-1" d="M153.61,29.73l1.56.25h0l-1.51-.24Z"/><path class="cls-1" d="M162.12,30.44l-1.48.21v.11l1.44-.33Z"/><path class="cls-1" d="M54,46.62l-.49,1.08h0l.51-1.06Z"/><path class="cls-1" d="M52.89,48.74l.54-1h0l-.57,1Z"/><path class="cls-1" d="M111.25,48.63l.51.1-.16.23-.27-.4Z"/><path class="cls-1" d="M53,50.37c0-.54,0-1.08-.08-1.63h0L53,50.39Z"/><path class="cls-1" d="M51.64,52.14c0-.49,0-1,0-1.48h0l-.06,1.51Z"/><path class="cls-1" d="M115.64,54.05l-1.12-.44-.07.08c.54-.32,1-.3,1.12.42Z"/><path class="cls-1" d="M117.07,54.56l-1.43-.51-.07.06,1.5.56Z"/><path class="cls-1" d="M119.46,62.27l.63.19-.16.18-.42-.42Z"/><path class="cls-1" d="M47.3,62.48l-.25,1.66h.12l.17-1.64Z"/><path class="cls-1" d="M177.07,64.15h-.47l.46,0Z"/><path class="cls-1" d="M196.3,65.66l-.84-.17-.05,0,.93.2Z"/><path class="cls-1" d="M197.42,67.36c0-.55-.35-.5-.72-.44l0,0c0,.54.2.71.69.42Z"/><path class="cls-1" d="M197.42,67.36l1.78.34,0-.1-1.73-.24Z"/><path class="cls-1" d="M185.58,69.5l-1.56.17h0l1.57-.17Z"/><path class="cls-1" d="M209,70.05c-.5,0-1,0-1.51-.06l-.08.06,1.65,0Z"/><path class="cls-1" d="M42.91,73.47l-.13.3.37-.12-.24-.19Z"/><path class="cls-1" d="M232.7,77.64l-1.34-.39h0c.46,0,1-.5,1.26.33Z"/><path class="cls-1" d="M206.14,78.49l-.47-.07.15-.25.25.4Z"/><path class="cls-1" d="M234.53,78.19l1,.92h-.07c-.56,0-1-.2-.88-.87Z"/><path class="cls-1" d="M243,79.38c.41.22.81.45,1.21.68l.05-.07-1.14-.61Z"/><path class="cls-1" d="M49.87,81.88c0-.41,0-.82,0-1.22l-.06.06.56,1.14.08-.08h-.65Z"/><path class="cls-1" d="M209,82.52c-.09-.37-.19-.73-.29-1.1l0,.07c.09.33.19.66.28,1C209,82.47,209,82.52,209,82.52Z"/><path class="cls-1" d="M246.73,82.33c-.3-.11-.79,0-.68-.59l0,0,.66.65Z"/><path class="cls-1" d="M210.42,83.54l.25.12-.17-.13Z"/><path class="cls-1" d="M97.81,86.62l.4.32-.36.1,0-.48Z"/><path class="cls-1" d="M269.67,93.39h.26l-.19-.07Z"/><path class="cls-1" d="M240.07,96.14l-1.77.18h0l1.78-.17Z"/><path class="cls-1" d="M241.53,97.87l-1.44-.46h0c.18.91.62,1.07,1.33.46Z"/><path class="cls-1" d="M245.39,97.3h1.69l-1.69,0Z"/><path class="cls-1" d="M250.19,100l-1.38-.51.07,0c.25.65.71.63,1.25.39Z"/><path class="cls-1" d="M272.1,105l.41,0-.1-.2-.26.31Z"/><path class="cls-1" d="M31.53,133.85l-1.58,0v0h1.57Z"/><path class="cls-1" d="M8.89,154.15c.1-.49.2-1,.31-1.48h0c0,.5.77,1.23-.39,1.42Z"/><path class="cls-1" d="M8.59,175.54l-.58.23a1.09,1.09,0,0,1,0-.22l.62.07Z"/><path class="cls-1" d="M239.44,7.65l1.8-.13h0l-1.79.12Z"/><path class="cls-1" d="M52.25,8.35l-1.57-.14h0l1.57.25Z"/><path class="cls-1" d="M249.91,8l-1.71.09h0L249.91,8Z"/><path class="cls-1" d="M247.63,9.16,246,9.3v0a1.26,1.26,0,0,1,1.6-.11Z"/><path class="cls-1" d="M230.22,9.76c-.51,0-1-.09-1.55-.12l-.07.08c.59-.47,1.12,0,1.66.15Z"/><path class="cls-1" d="M239.63,9.54c-.53.53-1.13.36-1.74.18l0,.08,1.78-.21Z"/><path class="cls-1" d="M247.58,9.21l.43.54-.38.06c0-.21,0-.42,0-.64Z"/><path class="cls-1" d="M252,9.68l-1.6,0h0l1.6,0Z"/><path class="cls-1" d="M220.27,10.77l-1.44-.5,0,0c.12,1,.55,1.14,1.27.46Z"/><path class="cls-1" d="M225.24,10.41l1.78-.25h0l-1.76.25Z"/><path class="cls-1" d="M234.48,10.88l.69-.25c-.07.06-.13.16-.21.18a2.42,2.42,0,0,1-.47.07Z"/><path class="cls-1" d="M198.46,11.46l-.25,0,.19.1Z"/><path class="cls-1" d="M270.85,11.09c.79-.11,1,.22.71.93h0l-.68-1Z"/><path class="cls-1" d="M199.59,12.14l-1.13-.68-.06.08,1.12.68Z"/><path class="cls-1" d="M277.72,12c.41-.15.87-.61,1.11.2l.07-.06L277.7,12Z"/><path class="cls-1" d="M286.83,14.49l-1.62.11h0l1.64-.11Z"/><path class="cls-1" d="M180.1,15.56l.26,0h-.24Z"/><path class="cls-1" d="M248.86,15.68l-.43,0,.41-.06Z"/><path class="cls-1" d="M227.27,16.42h-.5l.12-.27.32.36Z"/><path class="cls-1" d="M255.59,16.47l-1.1-.55-.05.07c.45,0,.95-.07,1.1.55Z"/><path class="cls-1" d="M290.6,16.16h1.66l-1.65,0Z"/><path class="cls-1" d="M228.76,16.7c-.51,0-1.13.6-1.49-.28l-.06.08,1.55.19Z"/><path class="cls-1" d="M256.67,17c-.43,0-.94.13-1.08-.51l-.05.07,1.09.53Z"/><path class="cls-1" d="M267.09,16.79c.51.09,1.23-.57,1.48.42l.06-.08-1.54-.34Z"/><path class="cls-1" d="M243.77,16.75l.11.57c0-.2-.09-.4-.13-.6Z"/><path class="cls-1" d="M259.36,17c-.18.56-.62.61-1.11.55l.06.07,1.09-.55Z"/><path class="cls-1" d="M273.14,17.27h.38c-.06,0-.13-.12-.18-.11s-.13.11-.19.17Z"/><path class="cls-1" d="M251.45,17.87l.39-.05c-.11,0-.23.07-.34.12Z"/><path class="cls-1" d="M257.64,18.46l-.39-.86-.06,0h1.12l-.06-.07-.61.9Z"/><path class="cls-1" d="M264.23,17.57l.45.16-.2.19-.18-.43Z"/><path class="cls-1" d="M270.49,17.3l.76.83.07-.07c-.5,0-1,0-.81-.79Z"/><path class="cls-1" d="M275.87,18.45l-.05-.35-.16.15.19.14Z"/><path class="cls-1" d="M164.34,18.38l.35.15-.08-.38-.23.29Z"/><path class="cls-1" d="M222.51,18l.58,1,0,.07c-.2-.38-.39-.76-.57-1.15Z"/><path class="cls-1" d="M237.94,19c-.24-.36-1.06-.39-.65-1.14l0,.05c.34.26.93.4.62,1Z"/><path class="cls-1" d="M256.54,19.05c.29-.33.4-1,1.1-.59h0c-.48,0-1-.05-1.1.59Z"/><path class="cls-1" d="M271.25,18.13l.5.19-.43-.26Z"/><path class="cls-1" d="M275.85,18.39l.37,0c-.06,0-.13-.11-.18-.09s-.12.1-.17.16Z"/><path class="cls-1" d="M223.09,19h.38l-.34.08S223.09,19,223.09,19Z"/><path class="cls-1" d="M231,18.71l1.53.42,0-.09c-.42-.33-1.13.39-1.43-.4Z"/><path class="cls-1" d="M254.83,19.08l1.71,0h-1.77Z"/><path class="cls-1" d="M33.75,122.86c-.28-.42-.22-.69.33-.74l0,0c-.12.23-.25.47-.36.71Z"/><path class="cls-1" d="M19.38,122.65l.55-.54-.05,0c.07.43-.1.62-.54.54Z"/><path class="cls-1" d="M34.21,121.23c.29.36.46.69-.18.85l0,0c.06-.29.12-.58.17-.88Z"/><path class="cls-1" d="M21,121l.55-.54,0,0c.1.46-.09.63-.54.54Z"/><path class="cls-1" d="M21.56,120.48l.54-.55-.05-.05c.05.41-.09.63-.54.55Z"/><path class="cls-1" d="M22.6,119.34c.07.43-.12.61-.54.55l0,0,.55-.54Z"/><path class="cls-1" d="M37.84,118.8c-.14.22-.27.45-.4.68l.08.07c-.29-.44-.13-.65.37-.7Z"/><path class="cls-1" d="M37.89,118.85l.55-.55-.06,0-.54.55Z"/><path class="cls-1" d="M35,116.54l-.06.33c0-.05-.05-.11,0-.13a.51.51,0,0,1,.16-.13Z"/><path class="cls-1" d="M20.87,116.68l-.13.08h.2Z"/><path class="cls-1" d="M35.61,116c.06.47-.14.63-.59.52l.07.06.57-.52Z"/><path class="cls-1" d="M20.94,116.75l.67-.41,0-.08-.7.42Z"/><path class="cls-1" d="M36.52,115.87l-.91.17,0,0c.19-.53.5-.53.88-.18Z"/><path class="cls-1" d="M21.61,116.34c.1-.28.2-.55.31-.82l-.08,0-.28.78Z"/><path class="cls-1" d="M22.37,114.9c-.17.19-.34.39-.52.58l.07,0c.17-.2.35-.39.53-.58Z"/><path class="cls-1" d="M22.45,114.94l.37-.64h0c-.14.2-.27.4-.41.59Z"/><path class="cls-1" d="M22.82,114.3l.64-.52-.06,0c-.2.19-.4.38-.61.56Z"/><path class="cls-1" d="M23.85,113.17c-.14.2-.29.4-.44.59l.05,0c.12-.21.26-.42.4-.62Z"/><path class="cls-1" d="M24.45,112.62l-.6.55h0l.64-.52Z"/><path class="cls-1" d="M24.5,112.64c.16-.2.32-.4.49-.59h0c-.16.2-.33.39-.51.59Z"/><path class="cls-1" d="M132,112.31l.55-.55-.05,0-.54.55Z"/><path class="cls-1" d="M25.49,111.5c.12.44,0,.63-.51.54h0c.16-.19.33-.37.51-.55Z"/><path class="cls-1" d="M26.11,110.89l-.62.61h0l.61-.61Z"/><path class="cls-1" d="M26.11,110.89c.22-.16.44-.32.65-.49l-.06-.07c.23.63-.1.67-.59.56Z"/><path class="cls-1" d="M27.14,106.15v.2l.18-.1-.18-.12Z"/><path class="cls-1" d="M41.41,105.55v.15a.67.67,0,0,1,.07-.11Z"/><path class="cls-1" d="M27.85,105.63l-.71.52v0l.78-.44Z"/><path class="cls-1" d="M42.5,105.49c-.35,0-.71.05-1.08.06l0,0,1-.09Z"/><path class="cls-1" d="M27.93,105.69,29,105.5h0l-1.15.14Z"/><path class="cls-1" d="M29.88,102.77l.75-.43-.06-.06c.07.58-.34.5-.69.5Z"/><path class="cls-1" d="M30.63,102.34l1-.06h0c-.35,0-.71,0-1.08,0Z"/><path class="cls-1" d="M250.13,99.89h.12a.18.18,0,0,0-.07,0Z"/><path class="cls-1" d="M46.6,99.81l.58-.52-.09-.08-.55.53Z"/><path class="cls-1" d="M248.81,99.45l.17-.08-.09.13Z"/><path class="cls-1" d="M247.09,98.57l.2.12-.07-.34-.11.19Z"/><path class="cls-1" d="M247.11,98.54l0-1.26h0c0,.42,0,.84,0,1.27Z"/><path class="cls-1" d="M241.42,97.87l.14-.1h-.19l.16.11Z"/><path class="cls-1" d="M273.78,96.32l-.22.06.27.2,0-.2Z"/><path class="cls-1" d="M240.06,96.14l0,1.27h0c0-.43,0-.85,0-1.27Z"/><path class="cls-1" d="M43.3,96.58l-.17.24s0-.11,0-.13a.53.53,0,0,1,.18,0Z"/><path class="cls-1" d="M272.93,96.22c.22.54.52.43.85.11l0,0c-.18-.67-.59-.32-.94-.21Z"/><path class="cls-1" d="M126.43,96.23l.16-.14a.74.74,0,0,1,0,.14Z"/><path class="cls-1" d="M43.32,96.65l.13-1h0c-.54.22-.35.57-.14.92Z"/><path class="cls-1" d="M272.35,95.13l.59,1.09-.08,0c.17-.22.51-.43.5-.65,0-.65-.52-.41-.89-.39Z"/><path class="cls-1" d="M238.48,95.1c-.06.4-.13.81-.19,1.21h0l.21-1.23Z"/><path class="cls-1" d="M43.45,95.66l1-.17-.07-.06-.89.23Z"/><path class="cls-1" d="M272.47,95.13l-.14.12.2,0-.17-.1Z"/><path class="cls-1" d="M44.66,94.61c-.11.27-.21.54-.32.82l.07.06.3-.83Z"/><path class="cls-1" d="M44.71,94.66l.8-.3-.06-.06c-.07.56-.38.54-.78.32Z"/><path class="cls-1" d="M32.59,94.71l0-.2-.18.25.2,0Z"/><path class="cls-1" d="M46,93.75c-.17.19-.35.37-.53.55l.06.06.53-.54Z"/><path class="cls-1" d="M32.57,94.72c.09-.31.18-.61.28-.92l-.08,0-.18,1Z"/><path class="cls-1" d="M235.78,93c0,.31,0,.63,0,1,0,0,.06-.06,0,0l0-.91Z"/><path class="cls-1" d="M46.7,93.38l-.72.37.06.07c.07-.48.35-.55.73-.37Z"/><path class="cls-1" d="M33.33,92.83c-.18.31-.37.61-.56.92l.08,0c.15-.32.31-.64.47-1Z"/><path class="cls-1" d="M269.74,93.31l-.73-.24.07,0,.59.36Z"/><path class="cls-1" d="M235.79,93l-.91-.37,0,.07.66,0-.08-.1.35.38Z"/><path class="cls-1" d="M47.08,92.67c-.13.23-.27.46-.39.7l.08.08c-.21-.39-.16-.67.36-.72Z"/><path class="cls-1" d="M268.35,92.16c-.28.75-.06,1,.73.85l-.07.06a.67.67,0,0,0-.66-.85Z"/><path class="cls-1" d="M47.93,92.46l-.85.21.05.06c.14-.63.5-.38.84-.23Z"/><path class="cls-1" d="M227.63,92.5l-.19-.89h-.08c.1.3.2.59.31.89Z"/><path class="cls-1" d="M48.49,91.85c-.19.2-.39.39-.57.6l0,0c-.2-.54-.12-.83.56-.62Z"/><path class="cls-1" d="M261.94,91.39l.18-.2-.24.17Z"/><path class="cls-1" d="M8.8,174.69c.35.4.11.63-.22.85l.09.08c.08-.28.15-.57.22-.86Z"/><path class="cls-1" d="M227.44,91.61l-.91-.17h0c.15.59.43.58.8.17Z"/><path class="cls-1" d="M36.37,91.21c-.17.21-.35.41-.51.63l0,.07c-.14-.48-.06-.77.54-.62Z"/><path class="cls-1" d="M261.89,90.38c0,.34,0,.67.05,1l-.06,0c.3-.3,1-.58.06-1Z"/><path class="cls-1" d="M226.53,91.44l-.28-.83-.05,0c.11.26.23.53.35.79Z"/><path class="cls-1" d="M36.68,90.45c-.11.25-.22.5-.32.75l.09.09c-.23-.38-.14-.64.29-.79Z"/><path class="cls-1" d="M260.93,90.16l.94.22.07,0-.95-.31Z"/><path class="cls-1" d="M226.25,90.61l-.93-.65,0,.11c-.08.72.29.8.86.58Z"/><path class="cls-1" d="M37,89.67c.25.41.37.76-.32.78l.06,0c.11-.26.22-.52.32-.8Z"/><path class="cls-1" d="M266.5,89.94l-.55-.49-.07,0,.54.54Z"/><path class="cls-1" d="M261,90.09c0-.28-.07-.56-.11-.84l0,0c0,.3.05.61.07.92Z"/><path class="cls-1" d="M225.32,90l.26.09-.12-.11-.12.14S225.32,90,225.32,90Z"/><path class="cls-1" d="M44.81,89.33v.47c-.56-.22-.09-.29.06-.41Z"/><path class="cls-1" d="M266,89.45l-.63-.6,0,.08H266l-.1-.07v.62Z"/><path class="cls-1" d="M260.16,88.55l.69.68s0,0,0,0l-.74-.71Z"/><path class="cls-1" d="M220.6,89.15l.23-.19-.3.13Z"/><path class="cls-1" d="M126.81,89.11l-.08-.15.14.08Z"/><path class="cls-1" d="M45.45,88.87l-.64.46.06.06.63-.47Z"/><path class="cls-1" d="M225.08,88.3l-.36.39-.15-.39-.07.07h.64Z"/><path class="cls-1" d="M220.52,88.2l.09,1-.08-.06.53-.62-.52-.25Z"/><path class="cls-1" d="M45.5,88.92c.14-.66.5-.38.84-.2h0l-.89.16Z"/><path class="cls-1" d="M219.77,87.82c.24.13.49.25.74.37l0,0-.73-.43Z"/><path class="cls-1" d="M219.43,87.06c.12.25.23.5.34.76l0,0c.17-.39.09-.65-.37-.71Z"/><path class="cls-1" d="M257.38,87.56c-.05-.29-.11-.58-.16-.87l-.05,0c.74.12.38.49.2.83Z"/><path class="cls-1" d="M218.77,86.26l.66.8v0l-.69-.82Z"/><path class="cls-1" d="M11.37,169.72l0,0Z"/><path class="cls-1" d="M11.41,169.75l1.15,0,0-.05H11.38Z"/><path class="cls-1" d="M37.53,84.4v.18l.19-.22h-.2Z"/><path class="cls-1" d="M215.49,84.21l1.07.22.1-.06c-.36-.07-.72-.14-1.1-.19Z"/><path class="cls-1" d="M12.56,169.78l0-1.1,0,0c0,.35,0,.7,0,1.07Z"/><path class="cls-1" d="M38.1,83.8l-.57.6v0l.63-.54Z"/><path class="cls-1" d="M12.52,168.68l.57-.63h0c.06.45-.05.74-.6.61Z"/><path class="cls-1" d="M38.15,83.82c.19-.19.39-.37.59-.55l-.05,0c.14.52-.13.64-.59.58Z"/><path class="cls-1" d="M247.61,82.9l-.09.12.16-.09Z"/><path class="cls-1" d="M210.5,83.53l-.81-.31.05,0c0,.59.2.7.68.37Z"/><path class="cls-1" d="M39.87,83.28l-1.17,0,0,0c.37,0,.74,0,1.13,0Z"/><path class="cls-1" d="M252.86,82.89c-.43,0-.6-.15-.52-.57l-.08.06.56.55Z"/><path class="cls-1" d="M247.68,82.93c0-.64-.56-.5-.94-.6l-.07,0c.2.37.36.8.93.55Z"/><path class="cls-1" d="M209.69,83.22c0-.51-.2-.74-.7-.7,0,0,0,0,0,0-.28.8,0,1,.74.7Z"/><path class="cls-1" d="M15.38,167.57c-.17-.33-.45-.69.22-.79l-.06-.05c-.06.28-.12.56-.17.84Z"/><path class="cls-1" d="M245.1,81.61c.23.68.58.24.9.09l.05,0-1-.15Z"/><path class="cls-1" d="M245,80.62c.05.33.09.66.13,1l0,0c.32-.32.41-.64,0-1Z"/><path class="cls-1" d="M208.58,80.53l.15,1,0-.07.45-.64-.58-.2Z"/><path class="cls-1" d="M204.92,81.05l.15-.06-.2.06Z"/><path class="cls-1" d="M15.71,165.84c.29.36.43.7-.17.89l.06.05c.06-.3.12-.61.16-.92Z"/><path class="cls-1" d="M245,80.63l-.82-.64-.05.07.8.57Z"/><path class="cls-1" d="M208.56,80.58c.18-.77-.19-.89-.82-.7l.07,0c0,.5.23.77.77.71Z"/><path class="cls-1" d="M204,80.33c0,.58.38.72.88.72h0l-.84-.68Z"/><path class="cls-1" d="M41,80.64c.29-.45.63-.32,1-.08h0l-1,0Z"/><path class="cls-1" d="M243.07,79.38l0,.16-.13-.16Z"/><path class="cls-1" d="M235.56,79.11h-.07Z"/><path class="cls-1" d="M128.71,78.77v-.11l.13.1Z"/><path class="cls-1" d="M13.09,165.54a.1.1,0,0,1,.05-.06Z"/><path class="cls-1" d="M234.61,78.23l-.19.11.12-.15Z"/><path class="cls-1" d="M203.69,78.1c-.32.13-.68.56-.89-.12l-.05,0,.94.1Z"/><path class="cls-1" d="M14.07,165.44l-1,.1.05-.06c.32.4.64,1,.89,0Z"/><path class="cls-1" d="M14.79,164.73l-.72.71h0c.54,0,.8-.19.76-.74Z"/><path class="cls-1" d="M232.62,77.59h.14l-.06,0Z"/><path class="cls-1" d="M202.2,77.49l.55.54.05,0-.55-.54Z"/><path class="cls-1" d="M197.51,77.38l-.1.16.19-.13Z"/><path class="cls-1" d="M196.67,77.3c.21.68.5.56.84.08l.09,0-1-.1Z"/><path class="cls-1" d="M231.2,76.06c.05.4.11.8.16,1.2h0c0-.38-.06-.76-.08-1.14Z"/><path class="cls-1" d="M21,158.07c.19-.19.37-.38.55-.58l-.07-.07L21,158Z"/><path class="cls-1" d="M195.85,76.54l.82.76h0l-.79-.75Z"/><path class="cls-1" d="M231.28,76.11l-.18,0,.19.1-.09-.18Z"/><path class="cls-1" d="M229.73,75.11h-.2l.14-.07S229.73,75.11,229.73,75.11Z"/><path class="cls-1" d="M221.15,75.09l.21.06-.17-.29-.06.22Z"/><path class="cls-1" d="M220.7,73.93l.45,1.16h0L220.82,74Z"/><path class="cls-1" d="M226.64,73.42l.44,1.23h0c-.1-.4-.21-.81-.32-1.21Z"/><path class="cls-1" d="M220.82,74l-.16.13a.88.88,0,0,1,.05-.15Z"/><path class="cls-1" d="M226.75,73.44l-.15.11,0-.13Z"/><path class="cls-1" d="M218.88,73.21l.27,0-.3-.15Z"/><path class="cls-1" d="M153.82,73.08c0,.2,0,.4,0,.59l0,0v-.62Z"/><path class="cls-1" d="M44,73.14l-1.07.33h0l1.14-.27Z"/><path class="cls-1" d="M225.1,72.82l.15-.16s0,.11,0,.16S225.1,72.82,225.1,72.82Z"/><path class="cls-1" d="M218.85,73.09l.16.1-.12,0A.56.56,0,0,1,218.85,73.09Z"/><path class="cls-1" d="M211.34,71.73l.07.39.31-.16-.26-.23Z"/><path class="cls-1" d="M211.46,71.73l-.15.12h.21l-.17-.12Z"/><path class="cls-1" d="M187.43,71.2l.11.39.22-.09-.21-.29Z"/><path class="cls-1" d="M187.55,71.21v.17l-.13-.18Z"/><path class="cls-1" d="M153.75,71.23l.13-.12-.19,0,.18.09Z"/><path class="cls-1" d="M45.58,71l-1,.2h0L45.64,71S45.58,71,45.58,71Z"/><path class="cls-1" d="M209,70.09l-.15.07a.48.48,0,0,1,.09-.11Z"/><path class="cls-1" d="M185.82,70.58l.13,0-.07-.12S185.82,70.58,185.82,70.58Z"/><path class="cls-1" d="M189.43,70.11H190c0,.2-.05.4-.07.6,0,0,0,0,0,0-.16-.22-.3-.45-.46-.67Z"/><path class="cls-1" d="M185.59,69.51l.24,1.07s.06-.07,0-.07l-.3-1Z"/><path class="cls-1" d="M200.49,68.47l.17.37.21-.1-.26-.27Z"/><path class="cls-1" d="M184,69.67l-.44-.75-.06.07.5.69Z"/><path class="cls-1" d="M47.33,68.9l-1.1.2h0l1.14-.18Z"/><path class="cls-1" d="M200.61,68.47l-.14.12h.19l-.17-.11Z"/><path class="cls-1" d="M183.58,68.92c-.08-.26-.16-.52-.25-.77l-.08.06c.1.26.19.51.28.77Z"/><path class="cls-1" d="M199.2,67.7l-.16-.07.1,0Z"/><path class="cls-1" d="M183,67.43l.27.78.08-.06c-.11-.24-.22-.47-.34-.71Z"/><path class="cls-1" d="M23.5,152.19l.17-.07-.09.13Z"/><path class="cls-1" d="M182,67.14l1,.29h0l-.92-.37Z"/><path class="cls-1" d="M113.89,66.21l-.07.4a1.21,1.21,0,0,1,0-.19c0-.08,0-.15.07-.22Z"/><path class="cls-1" d="M204.14,65.88l.19.06-.11,0Z"/><path class="cls-1" d="M8.82,149.31l.11.13-.13,0Z"/><path class="cls-1" d="M196.7,66.92c-.14-.42-.27-.84-.4-1.26h0l.39,1.28Z"/><path class="cls-1" d="M200.81,65.14c0,.43.08.86.11,1.3,0,0,0,0,0,0,0-.42-.07-.87-.1-1.33C200.83,65.09,200.81,65.14,200.81,65.14Z"/><path class="cls-1" d="M195.46,65.49c.14-.69-.31-.81-.82-.87,0,0,.06,0,.06,0l.7.85Z"/><path class="cls-1" d="M189.18,64.62l.15,0-.12-.09Z"/><path class="cls-1" d="M188.55,63.75l.63.87,0-.06c-.21-.28-.42-.57-.62-.86Z"/><path class="cls-1" d="M47.05,64.14l.12-.23-.12.11.12.12S47.05,64.14,47.05,64.14Z"/><path class="cls-1" d="M47.34,62.51l1.26.06h0l-1.29-.07Z"/><path class="cls-1" d="M158.74,58.36c-.21.28-.42.49-.62,0l0,.08h.69Z"/><path class="cls-1" d="M21.71,146.87l.76-.32-.08,0c.05.64-.45.25-.68.37Z"/><path class="cls-1" d="M153.22,56.55l.13-.15-.2,0,.19.09Z"/><path class="cls-1" d="M117.07,54.67l-.24-.11.11.12.13-.13Z"/><path class="cls-1" d="M22.82,145.72l-.42.79.07,0c.11-.28.23-.56.35-.83Z"/><path class="cls-1" d="M121.11,54.09c.45-.12.6.09.58.5v0l-.53-.57Z"/><path class="cls-1" d="M105,53.45l-.12.07a.88.88,0,0,1,0-.15S105,53.45,105,53.45Z"/><path class="cls-1" d="M23.65,145.5l-.83.22h0l.9-.16Z"/><path class="cls-1" d="M150,52.91h-.62l0,.08h.67Z"/><path class="cls-1" d="M119,51.89l.55.54h0l-.54-.55Z"/><path class="cls-1" d="M51.54,52.18l.1,0Z"/><path class="cls-1" d="M23.9,144.63c-.09.29-.17.58-.25.87l.07.06.18-.93Z"/><path class="cls-1" d="M118.4,51.35l.55.54,0,0c-.43.05-.65-.09-.52-.56Z"/><path class="cls-1" d="M145,51.21l.18,0L145,51c0,.06,0,.13,0,.18S145,51.21,145,51.21Z"/><path class="cls-1" d="M24.6,144.29c.1.82-.4.37-.7.34h0l.78-.28Z"/><path class="cls-1" d="M144.18,50.42l.77.78s0,0,0,0l-.75-.76Z"/><path class="cls-1" d="M53,50.39l-1.36.28h0L53,50.37Z"/><path class="cls-1" d="M116.26,49.68l-.6-.43-.06.07c.37-.11.63-.06.62.41Z"/><path class="cls-1" d="M24.68,144.35l.29-.83h0c0,.31.37.8-.36.79Z"/><path class="cls-1" d="M115.66,49.25l-.21-1-.07,0c.08.36.15.71.23,1.07C115.6,49.32,115.66,49.25,115.66,49.25Z"/><path class="cls-1" d="M115.45,48.3l-.19.07.12-.11Z"/><path class="cls-1" d="M25,143.52l.63-.52h0c.11.55-.1.71-.62.51Z"/><path class="cls-1" d="M126.59,33.21c.15.56.35.28.55,0l0,.1h-.66Z"/><path class="cls-1" d="M124.7,33.6l.14-.1a1.3,1.3,0,0,1-.08.17Z"/><path class="cls-1" d="M115.24,31.65l.44.65,0,0-.71-.38A2.39,2.39,0,0,0,115.24,31.65Z"/><path class="cls-1" d="M216.12,30.52l-.41.19.11.23.3-.3Z"/><path class="cls-1" d="M160.64,30.65l.13.13-.14,0S160.64,30.65,160.64,30.65Z"/><path class="cls-1" d="M153.18,30.77l-.11.08a.66.66,0,0,0,.14,0A.49.49,0,0,0,153.18,30.77Z"/><path class="cls-1" d="M216.12,30.64,216,30.5v.19l.11-.16Z"/><path class="cls-1" d="M153.66,29.74c-.66.1-.53.58-.48,1,0,0,0,.07,0,.08.14-.36.28-.73.41-1.11Z"/><path class="cls-1" d="M147.74,30.18l-.12.08h.2Z"/><path class="cls-1" d="M217.73,29.48l-.38.09.08.21.27-.19Z"/><path class="cls-1" d="M182.11,29.71l0,.07Z"/><path class="cls-1" d="M162.07,30.43c.52.06.64-.21.55-.66l-.07-.08-.43.75Z"/><path class="cls-1" d="M147.82,30.26l.29-1v0c-.12.33-.25.65-.38,1Z"/><path class="cls-1" d="M217.7,29.59l-.12-.16.14.05S217.7,29.59,217.7,29.59Z"/><path class="cls-1" d="M182.16,29.78l.3-1.14h0l-.36,1.07A.56.56,0,0,0,182.16,29.78Z"/><path class="cls-1" d="M162.62,29.77l.16-1.11h0c-.08.34-.16.69-.23,1Z"/><path class="cls-1" d="M155.17,30c0-.43,0-.85,0-1.29a.11.11,0,0,1,0-.05c0,.44,0,.88,0,1.33Z"/><path class="cls-1" d="M31.38,138.48l.51-.54,0-.09-.54.53Z"/><path class="cls-1" d="M218.93,28.5l.07.09h-.11Z"/><polygon class="cls-1" points="26.2 137.85 26.32 137.98 26.28 137.81 26.2 137.85"/><path class="cls-1" d="M170.18,28.14H170l.21.08Z"/><path class="cls-1" d="M104.14,28.23l.19,0h-.24Z"/><path class="cls-1" d="M220.43,28.12l-.09-.19.13.09Z"/><path class="cls-1" d="M170.21,28.22c.09-.4.19-.79.28-1.19l0,0c-.11.38-.23.75-.33,1.13Z"/><path class="cls-1" d="M104.09,28.18l.56-.74-.57-.32,0,0c0,.36.08.73.11,1.09Z"/><path class="cls-1" d="M221.56,26.52v.2l0-.15Z"/><path class="cls-1" d="M31.89,137.94l.55-.53v-.08l-.58.52Z"/><path class="cls-1" d="M196,26.53l0,0Z"/><path class="cls-1" d="M179.58,26.75h.06S179.58,26.75,179.58,26.75Z"/><path class="cls-1" d="M26.28,137.81l.67.44.19-.59h0l-1,.2Z"/><path class="cls-1" d="M166.17,27.71c0-.38-.11-.77-.17-1.16l-.05,0c.06.39.12.78.19,1.18Z"/><path class="cls-1" d="M103.14,26.94l.89.2,0,0-.88-.25Z"/><path class="cls-1" d="M32.44,137.41l.53-.58v-.07l-.53.57Z"/><path class="cls-1" d="M180.5,26.26l-.91.49s.06,0,0,0c.29-.15.6-.29.91-.43Z"/><path class="cls-1" d="M171.88,25.87c.05.43.09.86.15,1.29l.06.05c-.05-.43-.1-.86-.16-1.31Z"/><path class="cls-1" d="M27.14,137.66l.12-1.07-.05.06c0,.33,0,.66-.05,1Z"/><path class="cls-1" d="M102.27,26.66c.36-.11.75-.36.87.28l.06-.07-.93-.22Z"/><path class="cls-1" d="M11.94,136.61l-.15.17h.35l-.14-.16Z"/><path class="cls-1" d="M197.62,25.44l-.24,1s.07.08.07.09c.06-.34.12-.69.17-1Z"/><path class="cls-1" d="M235.23,24.89v.2c0-.05,0-.1-.05-.14Z"/><path class="cls-1" d="M33,136.83l.57-.64-.07,0,0,.68.06-.1H33Z"/><path class="cls-1" d="M215,25.15l.15.14-.15,0Z"/><path class="cls-1" d="M28.24,136.64h-1s0-.05,0-.06c.3.27.58,1,1,.06Z"/><path class="cls-1" d="M12,136.62l1.24-.17h0l-1.28.16Z"/><path class="cls-1" d="M182.43,25.61l.06-1.15-.07-.09v1.24Z"/><path class="cls-1" d="M226.48,25.06c0-.42,0-.84,0-1.26h0c0,.42,0,.84,0,1.26Z"/><path class="cls-1" d="M146.19,24l-.61.62.06,0,.59-.58Z"/><path class="cls-1" d="M150.5,23.86l0-.16c.05.05.09.1.15.15Z"/><path class="cls-1" d="M209.59,22.84l0,.17.09-.18a1,1,0,0,0-.17.1S209.59,22.84,209.59,22.84Z"/><path class="cls-1" d="M97.16,22.52l.42.09-.18.25c-.07-.13-.13-.26-.19-.39Z"/><path class="cls-1" d="M28.22,136.65l.23-1-.08,0c-.05.35-.09.69-.13,1Z"/><path class="cls-1" d="M28.45,135.66c.2-.24.4-.49.59-.75a.32.32,0,0,1,0-.09l-.64.8Z"/><polygon class="cls-1" points="93.95 22.65 94.08 22.7 94 22.58 93.95 22.65"/><path class="cls-1" d="M96.64,22l.52.57,0-.05-.56-.53Z"/><path class="cls-1" d="M94,22.58c-.29-.18-.59-.36-.9-.53,0,0-.07,0-.08,0l.92.61Z"/><path class="cls-1" d="M26.11,133.86l.08.17.06-.22-.17.13Z"/><path class="cls-1" d="M296.76,21.26l.19,0-.15-.24c0,.06,0,.12-.05.18Z"/><path class="cls-1" d="M299.67,20.85l-.55-.54,0,0c.4,0,.66.07.54.55Z"/><path class="cls-1" d="M296.78,20.17c0,.36,0,.73,0,1.09h0c0-.34,0-.69,0-1Z"/><path class="cls-1" d="M14.06,133.75c-.08.28-.17.57-.26.85l.08.06c.06-.3.12-.6.19-.9Z"/><path class="cls-1" d="M160.21,20.39l-.14.06h.19Z"/><path class="cls-1" d="M82.66,133.82l.18,0-.15.07S82.66,133.82,82.66,133.82Z"/><path class="cls-1" d="M14.07,133.76l1.23.12,0,0-1.2-.09Z"/><path class="cls-1" d="M296.76,20.21q.09-.87-.78-.81l0,0c0,.51.25.76.75.8Z"/><path class="cls-1" d="M258.57,19.44l0,.19-.07-.13Z"/><path class="cls-1" d="M160.91,19.72l-.7.67,0,.06.69-.69Z"/><path class="cls-1" d="M235.7,19.78l-.17-.14.18,0S235.7,19.78,235.7,19.78Z"/><path class="cls-1" d="M232.5,19.13l-.26,0,.13.08.09-.16Z"/><path class="cls-1" d="M91.83,19.71l-.57-.56-.08.1.54.54Z"/><path class="cls-1" d="M31.64,132.9c0,.31-.07.63-.11.94v0c.06-.33.12-.65.19-1C31.72,132.9,31.64,132.9,31.64,132.9Z"/><path class="cls-1" d="M237.86,19l.19-.06a1.14,1.14,0,0,0-.11.11Z"/><path class="cls-1" d="M162.48,18.62l-.57.59.07.05.57-.56Z"/><path class="cls-1" d="M82.36,18.94l.17-.12-.06.15Z"/><path class="cls-1" d="M294,19l-.24-.78-.06.07.3.72Z"/><path class="cls-1" d="M292.75,18l.92.24.06-.07-1-.17Z"/><path class="cls-1" d="M15.2,132.74c0,.36,0,.71.05,1.08l.05.06c0-.37-.05-.75-.06-1.12Z"/><path class="cls-1" d="M292.87,16.87,292.75,18h0l.18-1.15Z"/><path class="cls-1" d="M257.25,17.6l-.58-.62,0,.09.56.56Z"/><path class="cls-1" d="M292.27,16.16c.19.24.38.49.58.72l.09,0-.68-.7Z"/><path class="cls-1" d="M287.17,15.49l.22.07-.15-.13Z"/><path class="cls-1" d="M32.61,132.81l-1,.09s.07,0,.06,0c.31.22.62.51.88-.07Z"/><path class="cls-1" d="M243,15.42l-.54.52.09.06.53-.56Z"/><path class="cls-1" d="M287.24,15.43c-.14-.31-.27-.63-.41-.94h0l.33,1Z"/><path class="cls-1" d="M243.61,14.81l-.62.61.08,0,.57-.57Z"/><path class="cls-1" d="M16.25,132.83l-1-.08h0l1,.07Z"/><polygon class="cls-1" points="72.25 14.84 72.41 14.9 72.33 14.77 72.25 14.84"/><path class="cls-1" d="M289.41,14c.14.35.27.7.4,1,0,0,0,0,0,0-.08-.33.31-.83-.34-1Z"/><path class="cls-1" d="M72.33,14.77l-.8-.4-.08.07c.26.14.53.27.8.4Z"/><path class="cls-1" d="M289.5,14l-.17.08.22.05a1,1,0,0,1-.13-.16Z"/><path class="cls-1" d="M281.37,13.83l-.15-.06.08.11a.76.76,0,0,1,0-.15Z"/><path class="cls-1" d="M278.72,13.79l.14.15-.16,0Z"/><path class="cls-1" d="M287.5,13.58l.17-.1-.23,0,.14.15Z"/><path class="cls-1" d="M201.35,12.74l-.12-.08.07,0Z"/><path class="cls-1" d="M185.36,12.62l-.6.61.07,0,.58-.59Z"/><path class="cls-1" d="M32.73,131.77l-.12,1h0c.07-.33.14-.67.22-1Z"/><path class="cls-1" d="M28.88,132.82l.4-.78-.07-.07-.33.84Z"/><path class="cls-1" d="M278.83,12.23c.62,0,.42.52.45.88h0c-.13-.3-.25-.61-.38-.93Z"/><path class="cls-1" d="M276.58,11.83l-.13.09a1,1,0,0,0,.08-.11Z"/><path class="cls-1" d="M268.87,12.48l.16.08a.41.41,0,0,1-.12-.11Z"/><path class="cls-1" d="M262.56,12.4h.12l-.09-.08S262.56,12.4,262.56,12.4Z"/><path class="cls-1" d="M271.56,12l.31-.23-.29.24Z"/><path class="cls-1" d="M269,11.26c0,.4-.07.8-.12,1.21l0,0c0-.39.06-.79.1-1.19Z"/><path class="cls-1" d="M262.3,11.17c.09.4.18.81.26,1.23,0,0,0-.08,0-.07q-.15-.57-.3-1.17Z"/><path class="cls-1" d="M69.44,11.6l.54.55h0l-.54-.54Z"/><path class="cls-1" d="M277.24,10.85l.48,1.18h0c-.13-.37-.25-.75-.38-1.13Z"/><path class="cls-1" d="M16.23,132.83l.51-1-.06-.06c-.14.34-.29.69-.43,1Z"/><path class="cls-1" d="M256.51,11.15l.21,0-.14,0Z"/><path class="cls-1" d="M277.32,10.9l-.12.06a.36.36,0,0,0,0-.11Z"/><path class="cls-1" d="M32.81,131.82l.65-.32v-.08l-.73.35Z"/><path class="cls-1" d="M272.69,10.31l.05.18.08-.21-.18.09S272.69,10.31,272.69,10.31Z"/><path class="cls-1" d="M29.28,132c0-.33.09-.67.12-1l0,0c.22.36.32.71-.15,1Z"/><path class="cls-1" d="M270.9,11l-.85-.1h0l.79.16Z"/><polygon class="cls-1" points="252.28 10.61 252.4 10.65 252.36 10.53 252.28 10.61"/><path class="cls-1" d="M227,10.16l-.1.34a3.59,3.59,0,0,0,.08-.35Z"/><path class="cls-1" d="M220.15,10.76l.15-.15,0,.16Z"/><path class="cls-1" d="M61.51,10.57l-.14-.11.11,0A.79.79,0,0,1,61.51,10.57Z"/><path class="cls-1" d="M269.88,9.6l.18,1.33h0L270,9.64Z"/><path class="cls-1" d="M260.25,10.82V9.53s0,0,0,0c0,.43,0,.87,0,1.33Z"/><path class="cls-1" d="M252.36,10.53,252,9.68h0c.09.3.18.61.26.91Z"/><polygon class="cls-1" points="244.25 9.92 244.27 10.07 244.34 9.96 244.25 9.92"/><path class="cls-1" d="M230.26,9.87l-.17-.06.12-.05A.54.54,0,0,1,230.26,9.87Z"/><path class="cls-1" d="M270,9.64l-.17.08.2,0-.11-.16Z"/><path class="cls-1" d="M244.34,10l-.15-.08.06,0S244.34,10,244.34,10Z"/><path class="cls-1" d="M231.91,9.33h0Z"/><path class="cls-1" d="M34,130.52l-.69,0c.05.29.1.57.16.86v.09l.65-1Z"/><path class="cls-1" d="M218.83,10.27l.13-.1a.83.83,0,0,0-.07.13Z"/><path class="cls-1" d="M34.11,130.51v.18a1.15,1.15,0,0,1-.14-.17Z"/><path class="cls-1" d="M213.91,9.15l-.15.1.09-.14Z"/><path class="cls-1" d="M242.47,8.92l.37.09-.32-.14Z"/><path class="cls-1" d="M264.14,8.43c.6.07.39.53.42.89h0c-.11-.31-.23-.62-.35-.93Z"/><polygon class="cls-1" points="258.44 8.82 258.24 8.8 258.38 8.77 258.44 8.82"/><path class="cls-1" d="M217.77,8.54l.16.16-.19-.16Z"/><path class="cls-1" d="M59,8.94c-.44-.19-.51-.48-.22-.87l0,0c.07.28.14.58.2.88Z"/><path class="cls-1" d="M52.25,8.47l-.11-.13h.11Z"/><path class="cls-1" d="M243.31,7.68l.12.15-.13,0S243.31,7.68,243.31,7.68Z"/><path class="cls-1" d="M50.51,7.05c.06.39.11.78.17,1.17h0c0-.4-.09-.81-.13-1.23Z"/><path class="cls-1" d="M39.28,6.12l-.27,0,.14.1L39.24,6S39.28,6.12,39.28,6.12Z"/><path class="cls-1" d="M48.68,6.31c-.06-.37-.11-.74-.16-1.1h0c0,.39.07.77.1,1.16Z"/><path class="cls-1" d="M32.09,129.93c0-.34,0-.69.06-1l-.06,0c0,.33-.06.67-.07,1Z"/><path class="cls-1" d="M34.37,127.3c0,.33-.07.65-.09,1l.08.07q.06-.48.09-1Z"/><path class="cls-1" d="M28.7,127.13l-.08.19s.16-.1.15-.11S28.7,127.13,28.7,127.13Z"/><path class="cls-1" d="M28.77,126.17c0,.31-.05.63-.07,1,0,0,.06.08.07.08,0-.34,0-.69,0-1Z"/><path class="cls-1" d="M15.68,126.18v.34l.2-.07-.17-.26Z"/><path class="cls-1" d="M29.4,125.55l-.63.61h0l.63-.6Z"/><path class="cls-1" d="M15.71,126.19c.41,0,.82-.07,1.24-.09l0,0-1.22.1Z"/><path class="cls-1" d="M160.83,133v-.63l2.84.3Z"/><path class="cls-1" d="M181.3,114.31c-.52-1-.09-1.59.82-2l-.06,0-.75,2Z"/><path class="cls-1" d="M183.14,110.62a1.34,1.34,0,0,1-1.08,1.65l.06,0a1.63,1.63,0,0,1,1.08-1.65Z"/><path class="cls-1" d="M151.33,118.7l-1.48.58.05,0,1.43-.51Z"/><path class="cls-1" d="M177.7,126.4l.62,1.2Z"/><path class="cls-1" d="M151.33,118.82l-.16-.13.16,0Z"/><path class="cls-1" d="M180.59,117.66l-.38-.13s.13,0,.16,0a1.21,1.21,0,0,1,.15.22Z"/><path class="cls-1" d="M181.31,114.3l-.51-.19s.1-.08.12-.07.26.18.38.27Z"/><polygon class="cls-1" points="176.25 104.41 176.39 104.34 176.3 104.46 176.25 104.41"/><path class="cls-1" d="M160.91,132.45l-.64,0C160.45,131.72,160.69,132.21,160.91,132.45Z"/><path class="cls-1" d="M239.75,127c-3.07-.25-5.64-2-8.55-2.77-.92-.23-1.62-1.17-2.72-.83v-.06c-3.41-1.83-7.26-2.77-10.39-5.16l-.05.05c7.23,2.89,14.67,5.27,21.62,8.85Z"/><path class="cls-1" d="M261.21,137.23c-3.37-1.95-6.62-4.11-10.37-5.33-.86-.27-2.25-.49-1.93-2.06l0,0c3.65,1.85,7.32,3.68,10.95,5.58.67.35,1.88.47,1.36,1.8Z"/><path class="cls-1" d="M243.49,127.69l2.24,1.5.08-.07c-.21.21-.42.41-.62.62l0-.08c-.78-.49-2.2-.4-1.74-2Z"/><path class="cls-1" d="M251.2,126.39c.78.44,1.57.87,2.36,1.3h0c-1,0-2.07,0-2.27-1.37Z"/><path class="cls-1" d="M261.68,131.73c1-.63,1.56.06,2.52,1.15-1.15-.55-1.82-.87-2.5-1.18Z"/><path class="cls-1" d="M245.73,129.19l3.15.71,0-.06c-1.11,1-2.09-.36-3.16-.18l.07.09v-.63Z"/><path class="cls-1" d="M257.23,128l.54.56.1.22.22-.11h0c-1,.73-1.53.1-2-.66Z"/><path class="cls-1" d="M258.59,129.52l.75.65-.38.14c-.1-.27-.2-.54-.31-.81Z"/><path class="cls-1" d="M241,127.89l-1.43-.63s0,.07,0,.07l.24-.06V127l-.09.08c.74-.26,1.19,0,1.3.78Z"/><path class="cls-1" d="M241,127.89l2.53-.2h0l-2.52.21Z"/><path class="cls-1" d="M214.72,117.23v-.62h1.15v.62Z"/><path class="cls-1" d="M215.79,117.16H217a.61.61,0,0,0,0,.51l.07-.07C216.53,117.69,216,117.76,215.79,117.16Z"/><path class="cls-1" d="M218.09,118.21c-.51.07-1.09.26-1.07-.61l-.06.07,1.08.59Z"/><path class="cls-1" d="M250.22,127.53l-.14-.38-.19.66.41-.26Z"/><path class="cls-1" d="M242,129.41l-1.32.05h0l1.37-.06Z"/><path class="cls-1" d="M254.61,135.12l1.13.24h0l-1-.22Z"/><path class="cls-1" d="M261.2,137.27c.49-.56,1-.65,1.42,0l.07-.07-1.47,0A.39.39,0,0,0,261.2,137.27Z"/><path class="cls-1" d="M262.62,137.3l.42.2-.24.15c0-.14-.07-.28-.11-.42Z"/><path class="cls-1" d="M229.34,124.8l-.29-.51-.07.06c.09.17.18.34.28.51Z"/><path class="cls-1" d="M239.17,124l0-.15.14.15Z"/><path class="cls-1" d="M228.48,123.43l.49.92.08-.06-.57-.91Z"/><path class="cls-1" d="M269.08,136.46l0-.16a.93.93,0,0,1,.05.1Z"/><path class="cls-1" d="M256.47,136.11h-.2l.18.23v-.23Z"/><path class="cls-1" d="M256.46,136.15c.05-.55-.18-.83-.76-.78h0l.73.75Z"/><path class="cls-1" d="M253.85,135l.27.54.49-.39.09,0-.89-.18Z"/><path class="cls-1" d="M253.25,133.78a.88.88,0,0,0,.6,1.19h0c-.14-.39.55-1.11-.44-1.19Z"/><path class="cls-1" d="M253.37,133.78l-.15.12h.2l-.16-.11Z"/><path class="cls-1" d="M247.84,132.81H248l-.18-.2,0,.18Z"/><path class="cls-1" d="M247.81,132.8c-.13-.27-.27-.54-.4-.82l-.06.08.49.75Z"/><path class="cls-1" d="M246.6,131.69l.75.37.06-.08-.79-.32Z"/><path class="cls-1" d="M246.62,131.66l-.21-.89-.07.07c.09.28.18.56.26.84Z"/><path class="cls-1" d="M246.41,130.77c-.38-.05-.61-.2-.39-.62l-.09,0,.41.64Z"/><path class="cls-1" d="M242.6,130.36l.13.06-.1-.11Z"/><path class="cls-1" d="M245.75,129.66c.06.18.11.36.18.54l.09,0c-.25-.17-.52-.33-.79-.49l0,.08h.63Z"/><path class="cls-1" d="M242.05,129.41l.55,1,0-.05c.13-.54.13-1-.64-.9Z"/><path class="cls-1" d="M258.09,128.71c.16.27.31.55.48.82l.08,0c-.57,0-.55-.41-.57-.8Z"/><polygon class="cls-1" points="253.93 128.79 254.07 128.84 253.99 128.72 253.93 128.79"/><path class="cls-1" d="M240.75,128.4c0,.36-.05.71-.07,1.07h0l.09-1.05Z"/><path class="cls-1" d="M254,128.72l-.47-1h0c.12.37.25.73.37,1.1Z"/><path class="cls-1" d="M240.76,128.41l-1.12-.2,0,.07,1.06.12Z"/><path class="cls-1" d="M250.3,127.55l-.17.07.13.12a1.6,1.6,0,0,1,0-.21Z"/><path class="cls-1" d="M239.64,128.21l.51-.4-.64-.48s0-.07,0-.07c.05.34.1.68.14,1Z"/><path class="cls-1" d="M235.69,127.35l-.14.23.18-.17Z"/><path class="cls-1" d="M235.73,127.41l-.91-.2v.08c.21,1,.55.42.87.06Z"/><path class="cls-1" d="M234.82,127.21c-.11-.38.44-1.08-.5-1.07h-.12c.21.37.41.75.62,1.13Z"/><path class="cls-1" d="M248.2,126.32l-.14-.16c.06,0,.12-.13.17-.13s.09.1.14.16Z"/><path class="cls-1" d="M234.32,126.14l-.14.14.21,0-.18-.11Z"/><polygon class="cls-1" points="230.68 125.86 230.65 126.03 230.76 125.88 230.68 125.86"/><path class="cls-1" d="M229.82,125.71l.33.56.52-.41.09,0-1-.18Z"/><polygon class="cls-1" points="241.7 124.97 241.76 125.12 241.6 125.1 241.7 124.97"/><path class="cls-1" d="M229.8,125.7l-.45-.91-.09.07.56.85Z"/><path class="cls-1" d="M220,140.79c-.22,1.75,1.17,2.61,2.06,3.76h0c-.68.29-1.06.84-.74,1.5,1.18,2.44,2.45,4.85,3.68,7.27h0c-.75.36-1.16,0-1.5-.64-3.4-6-4.85-12.56-6-19.22-.08-.44.36-1,.56-1.46h0c-.26,1.41.64,2.43,1.2,3.57l.06-.07c-2,2.06,1.61,3.43.65,5.36Z"/><path class="cls-1" d="M219.2,135.56c.42.62,1.21,1.14.57,2.05h0c-.18-.71-.35-1.41-.53-2.12Z"/><path class="cls-1" d="M222,141.92c-.85.49-1.21.14-1.27-.73l-.06.07,1.3.73Z"/><path class="cls-1" d="M219.37,132.56c-.64-.12-.51-.63-.54-1.06h0c.17.35.35.71.51,1.07Z"/><path class="cls-1" d="M219.73,134.36c-.13-.59-.25-1.18-.37-1.79h0c.09.59.18,1.19.26,1.79Z"/><path class="cls-1" d="M222.42,145.89c-.75-.27-.2-.92-.4-1.35h0c.12.47.23.93.34,1.4Z"/><path class="cls-1" d="M225,153.31,224.8,155v0c.06-.59.11-1.17.16-1.75Z"/><path class="cls-1" d="M224.8,155l.33-.07-.32.08Z"/><polygon class="cls-1" points="222.91 146.76 223.03 146.8 222.97 146.7 222.91 146.76"/><path class="cls-1" d="M222.37,146l.54.81.06-.06-.55-.81Z"/><polygon class="cls-1" points="222.85 143.56 222.94 143.51 222.8 143.49 222.85 143.56"/><path class="cls-1" d="M222.68,142.56c.06.33.12.66.17,1l0-.07.49-.68-.59-.24Z"/><path class="cls-1" d="M222,142l.73.57h0l-.73-.64S222,142,222,142Z"/><path class="cls-1" d="M219.91,140.85c.44-.21.76-.21.75.4l.05-.06c-.24-.14-.48-.28-.73-.41Z"/><polygon class="cls-1" points="220.79 137.91 220.9 137.94 220.86 137.84 220.79 137.91"/><path class="cls-1" d="M219.77,137.61l1,.3.08-.07-1.08-.23Z"/><path class="cls-1" d="M219.61,134.37l.13-.13-.19,0,.18.09Z"/><path class="cls-1" d="M89.82,141.35l1-.23,0,.37-.93-.14Z"/><path class="cls-1" d="M102.13,144.34c0,.52.05,1-.63,1.21Z"/><path class="cls-1" d="M97.09,142.44l0,.16-.15-.13Z"/><path class="cls-1" d="M82.51,143.33l.49-.43.15.23-.69.13Z"/><path class="cls-1" d="M70.47,107.44l.63-.64Z"/><path class="cls-1" d="M301.86,18.11,303,19.82c-1.62-.42-2.33-2-3.59-2.86v.12Z"/><path class="cls-1" d="M302.87,19.72c.64.15,1.24.34,1.18,1.19A1.17,1.17,0,0,1,302.87,19.72Z"/><path class="cls-1" d="M297.27,15.68c0,.21,0,.42-.07.64l-.22,0a6.26,6.26,0,0,0,.34-.55Z"/><path class="cls-1" d="M304,20.81l.64.65Z"/><path class="cls-1" d="M302.41,17.55l-.63.64Z"/><path class="cls-1" d="M299.38,17l.15.15-.15,0Z"/><path class="cls-1" d="M132.08,119.33a2.18,2.18,0,0,1-1.75,1.17A1.84,1.84,0,0,1,132.08,119.33Z"/><path class="cls-1" d="M132.62,118.77l-.64.65Z"/><path class="cls-1" d="M133.15,118.23l-.64.64Z"/><path class="cls-1" d="M181.59,104.08c-.1.77-.27,1.49-1.17,1.72C180.66,105.13,180.75,104.35,181.59,104.08Z"/><path class="cls-1" d="M182.68,101.9c0,.5,0,1-.62,1.2C182,102.58,182,102.06,182.68,101.9Z"/><path class="cls-1" d="M182.14,103l-.63,1.21C181.5,103.68,181.47,103.15,182.14,103Z"/><path class="cls-1" d="M70.43,133.29l.22-.28-.24-.06a1.74,1.74,0,0,1,0,.32S70.43,133.29,70.43,133.29Z"/><path class="cls-1" d="M68.54,133.21l1.88.07s0,0,0,0l-1.9-.09Z"/><path class="cls-1" d="M135.88,109l-.63.63Z"/><path class="cls-1" d="M131.51,125.32l-.61.62Z"/><path class="cls-1" d="M178.25,132.94h.62l-.62.64Z"/><path class="cls-1" d="M143.5,115.62l.12-.46c.43.37,0,.33-.18.4Z"/><path class="cls-1" d="M306.69,20.28c.66.11,1.3.25,1.15,1.16Z"/><path class="cls-1" d="M306.77,19.19l0,1.18-.9-.93Z"/><path class="cls-1" d="M186.48,104.61c-.09.92-.22,1.81-1.16,2.29Z"/><path class="cls-1" d="M181,131.4l.64-.66Z"/><path class="cls-1" d="M181.5,130.84l.64-.64C182.17,130.66,182,130.89,181.5,130.84Z"/><path class="cls-1" d="M186.5,126.4l-.64.64Z"/><path class="cls-1" d="M187,125.86c-.21.21-.42.43-.64.64C186.62,126.29,186.83,126.07,187,125.86Z"/><path class="cls-1" d="M187.59,125.31,187,126Z"/><path class="cls-1" d="M170.6,24.18l.65-.64Z"/></g></g></svg>