<svg xmlns="http://www.w3.org/2000/svg" viewBox="0 0 421.37 99.4"><defs><style>.cls-1{fill:#e7e4df;}</style></defs><g id="Layer_2" data-name="Layer 2"><g id="Layer_1-2" data-name="Layer 1"><path class="cls-1" d="M37.52,44.69h-20L11.15,61.88H22.77v2.39H0V61.88H8.67L31.57,0H33L55,61.88h8.43v2.39H33.49V61.88H43.66ZM18.46,42.3H36.68L27.83,17.15h-.19Z"/><path class="cls-1" d="M93.28,27.39v10.5H91.36q-2.16-9.13-10.49-9.14a9.38,9.38,0,0,0-6,1.9A5.46,5.46,0,0,0,72.43,35a3.77,3.77,0,0,0,1.71,3.26q1.71,1.18,8.09,2,14,1.72,14,12.74a12.42,12.42,0,0,1-3.63,9.13,12.18,12.18,0,0,1-9,3.66q-5.3,0-10.26-4.36l-3.27,2.81H68.41V50.44h1.64q4,13.26,13.53,13.26a10.43,10.43,0,0,0,6.56-2.3,6.68,6.68,0,0,0,3-5.38,4.54,4.54,0,0,0-1.75-3.89c-1.17-.88-4.34-1.69-9.49-2.44Q68.68,47.77,68.69,38a10.55,10.55,0,0,1,3.53-8.08,12.31,12.31,0,0,1,8.65-3.26,12.47,12.47,0,0,1,9,3.56,13.28,13.28,0,0,0,1.92-2.81Z"/><path class="cls-1" d="M116.78,16.77V27.45h11.1v2.39h-11.1V53a23.86,23.86,0,0,0,.68,7c.45,1.25,1.66,1.87,3.63,1.87a7.31,7.31,0,0,0,4.33-1.5,9.12,9.12,0,0,0,3.17-4.63h2q-2.16,9.09-13.07,9.08-4.59,0-6.74-1.66a6.76,6.76,0,0,1-2.65-4.1,34.68,34.68,0,0,1-.49-6.6V29.84H99.31V27.45h8.34V17.57A52.35,52.35,0,0,0,116.78,16.77Z"/><path class="cls-1" d="M151.21,26.75V61.88h6.14v2.39H135.57V61.88h6.55v-32h-6.55V27.45h6.65A54.55,54.55,0,0,0,151.21,26.75Zm-9.41-18a4.81,4.81,0,0,1,1.52-3.56,4.93,4.93,0,0,1,3.58-1.5,5,5,0,0,1,3.59,1.48A4.81,4.81,0,0,1,152,8.71a4.89,4.89,0,0,1-1.5,3.66,5,5,0,0,1-3.61,1.45,5.09,5.09,0,0,1-5.1-5.11Z"/><path class="cls-1" d="M216.47,65.72q-12.18,0-20.68-10.21t-8.51-21.83a34.27,34.27,0,0,1,8.93-23.82Q205.14,0,216.94,0,228,0,236.85,10a33.58,33.58,0,0,1,8.8,22.77,33.54,33.54,0,0,1-8.83,23Q228,65.72,216.47,65.72Zm.19-63.33a18.27,18.27,0,0,0-9.26,2.36q-4.1,2.37-5.57,8.23T200.35,33.4a119.33,119.33,0,0,0,.85,16.07,18.63,18.63,0,0,0,4.28,9.93q3.45,3.93,10.8,3.94a19.18,19.18,0,0,0,9-2.39q4.51-2.4,5.9-9.4T232.58,30q0-13.17-1.71-18.18a12.78,12.78,0,0,0-5.48-7.24A16.87,16.87,0,0,0,216.66,2.39Z"/><path class="cls-1" d="M259.05,61.88v-58h-6.7V1.45h6.42a44.9,44.9,0,0,0,9.42-.7V61.88h6.6v2.39H252.35V61.88Z"/><path class="cls-1" d="M294.65,26.75V61.88h6.14v2.39H279V61.88h6.56v-32H279V27.45h6.65A54.47,54.47,0,0,0,294.65,26.75Zm-9.41-18a4.85,4.85,0,0,1,1.52-3.56,5,5,0,0,1,3.58-1.5,5,5,0,0,1,3.59,1.48,4.81,4.81,0,0,1,1.52,3.58,4.89,4.89,0,0,1-1.5,3.66,5,5,0,0,1-3.61,1.45,5.09,5.09,0,0,1-5.1-5.11Z"/><path class="cls-1" d="M344.26,29.84,326.51,65.72h-1.22l-18-35.88h-5.67V27.45h23v2.39h-7.08l12.28,24.92,12.08-24.92H334.8V27.45H350v2.39Z"/><path class="cls-1" d="M386,43.05H362.3q-.33,13.88,1.54,17.08c1.25,2.14,3.49,3.21,6.7,3.21q9.93,0,13.45-11.53h2q-1.54,7-5.85,10.31a15.41,15.41,0,0,1-9.61,3.32,17.9,17.9,0,0,1-13.11-5.59,19.14,19.14,0,0,1-5.58-14.08,19.14,19.14,0,0,1,5.46-13.87A17.13,17.13,0,0,1,370,26.28a15.48,15.48,0,0,1,11,4.45Q385.68,35.19,386,43.05Zm-23.7-2.11h13.63a49.08,49.08,0,0,0,.38-5.06q0-7.49-6.8-7.49a7.44,7.44,0,0,0-5.29,1.8,6.4,6.4,0,0,0-1.92,4.9Z"/><path class="cls-1" d="M418.42,27V37.52H416.5q-2.16-9.14-10.49-9.13a9.38,9.38,0,0,0-6,1.9,5.46,5.46,0,0,0-2.42,4.33,3.75,3.75,0,0,0,1.71,3.25q1.71,1.2,8.09,2,14,1.74,14,12.74a12.45,12.45,0,0,1-3.63,9.14,12.19,12.19,0,0,1-9,3.65q-5.3,0-10.26-4.35l-3.27,2.81h-1.65V50.08h1.65q4,13.26,13.53,13.26a10.41,10.41,0,0,0,6.56-2.3,6.7,6.7,0,0,0,3-5.39,4.56,4.56,0,0,0-1.75-3.89c-1.17-.87-4.34-1.68-9.49-2.43q-13.17-1.92-13.16-11.71a10.52,10.52,0,0,1,3.53-8.08A12.31,12.31,0,0,1,406,26.28a12.47,12.47,0,0,1,9,3.56A13.55,13.55,0,0,0,417,27Z"/><path class="cls-1" d="M111.5,99.25V85.47h2V99.25Z"/><path class="cls-1" d="M124.29,87.55h-1.92V85.47h5.85v2.08h-1.91v11.7h-2Z"/><path class="cls-1" d="M138.07,99.25h-2l2.08-13.78h2.47l2.09,13.78h-2l-.38-2.81h-1.95Zm2-5L139.53,90l-.06-.36h-.11l-.06.36-.58,4.35Z"/><path class="cls-1" d="M151.73,99.25V85.47h2v11.9h2.68v1.88Z"/><path class="cls-1" d="M165.33,99.25V85.47h2V99.25Z"/><path class="cls-1" d="M178.32,99.25h-2l2.08-13.78h2.48L183,99.25h-2l-.37-2.81h-2Zm2.05-5L179.78,90l-.05-.36h-.11l-.06.36L179,94.3Z"/><path class="cls-1" d="M196.1,99.25l-2-7.18-.17-.64h-.11v7.82H192V85.47h1.8l2,7.18.17.64H196V85.47h1.86V99.25Z"/><path class="cls-1" d="M221.78,94.52h1.9v1.9a4,4,0,0,1-.34,1.5,3,3,0,0,1-.33.54,2.14,2.14,0,0,1-.48.47,2.39,2.39,0,0,1-1.55.47,2.46,2.46,0,0,1-1.58-.47,2.33,2.33,0,0,1-.47-.47,3.65,3.65,0,0,1-.32-.54,3.85,3.85,0,0,1-.33-1.5V88.3a3.75,3.75,0,0,1,.33-1.48,4.37,4.37,0,0,1,.32-.55,2,2,0,0,1,.47-.48,2.4,2.4,0,0,1,.68-.34,3.15,3.15,0,0,1,1.79,0,2.41,2.41,0,0,1,.66.34,1.83,1.83,0,0,1,.48.48,3.48,3.48,0,0,1,.33.55,3.93,3.93,0,0,1,.34,1.48v1.89h-1.9V88.3a1.2,1.2,0,0,0-.3-.86.62.62,0,0,0-.46-.15.51.51,0,0,0-.41.16,1.2,1.2,0,0,0-.21.34,1.05,1.05,0,0,0-.06.24c0,.08,0,.17,0,.27v8.12a1.26,1.26,0,0,0,.32.86.54.54,0,0,0,.4.15.62.62,0,0,0,.46-.15,1,1,0,0,0,.23-.36,1.29,1.29,0,0,0,.07-.5Z"/><path class="cls-1" d="M236.32,85.47h2v11a4,4,0,0,1-.34,1.5,2.52,2.52,0,0,1-.33.54,2.33,2.33,0,0,1-.47.47,2.84,2.84,0,0,1-3.13,0,1.91,1.91,0,0,1-.47-.47,2.48,2.48,0,0,1-.32-.54,3.85,3.85,0,0,1-.34-1.5v-11h2v11a1.24,1.24,0,0,0,.28.86.53.53,0,0,0,.39.15.51.51,0,0,0,.4-.15.8.8,0,0,0,.2-.36,1.26,1.26,0,0,0,.08-.5Z"/><path class="cls-1" d="M247.88,99.25V85.47h2V99.25Z"/><path class="cls-1" d="M259.34,88.54a4.92,4.92,0,0,1,.14-1.13,3.15,3.15,0,0,1,.46-1,2.54,2.54,0,0,1,.82-.74,2.48,2.48,0,0,1,1.22-.31,2.69,2.69,0,0,1,1.48.33,2.42,2.42,0,0,1,.85.89,3.75,3.75,0,0,1,.4,1.21,7.61,7.61,0,0,1,.1,1.22l-2,.19q0-.33,0-.69a3.23,3.23,0,0,0-.12-.66,1.35,1.35,0,0,0-.26-.46.5.5,0,0,0-.4-.18.59.59,0,0,0-.54.4,2.63,2.63,0,0,0-.15,1,1.84,1.84,0,0,0,.14.72,4.72,4.72,0,0,0,.36.76,9,9,0,0,0,.51.81l.58.84q.36.52.69,1a9.36,9.36,0,0,1,.6,1,7.93,7.93,0,0,1,.44,1.06,3.75,3.75,0,0,1,.16,1.1,6.13,6.13,0,0,1-.13,1.31,3,3,0,0,1-.45,1.11,2.35,2.35,0,0,1-.86.76,3.52,3.52,0,0,1-2.91,0,2.36,2.36,0,0,1-.9-.9,3.85,3.85,0,0,1-.4-1.28,10.36,10.36,0,0,1-.1-1.49l2-.19c0,.29,0,.57,0,.85a2.62,2.62,0,0,0,.15.74,1.25,1.25,0,0,0,.28.55.7.7,0,0,0,1.14-.23,2.84,2.84,0,0,0,.19-1.09,2,2,0,0,0-.15-.72,7,7,0,0,0-.38-.79c-.09-.14-.17-.28-.25-.42s-.17-.27-.27-.41l-.62-.9-.66-1a8,8,0,0,1-1-2.14A3.78,3.78,0,0,1,259.34,88.54Z"/><path class="cls-1" d="M274,99.25V85.47h2V99.25Z"/><path class="cls-1" d="M289.66,99.25l-2-7.18-.17-.64h-.11v7.82h-1.86V85.47h1.8l2,7.18.17.64h.11V85.47h1.86V99.25Z"/><path class="cls-1" d="M301,99.25V85.47h4.63v2.08h-2.6v3.62h1.87v2.21h-1.87v3.79h2.6v2.08Z"/><rect class="cls-1" x="320.07" y="91.93" width="101.3" height="1.02"/><rect class="cls-1" y="91.93" width="101.31" height="1.02"/></g></g></svg>