<svg xmlns="http://www.w3.org/2000/svg" viewBox="0 0 355.8 83.93"><defs><style>.cls-1{fill:#222;}</style></defs><g id="Layer_2" data-name="Layer 2"><g id="Layer_1-2" data-name="Layer 1"><path class="cls-1" d="M31.68,37.74H14.83L9.41,52.25h9.81v2H0v-2H7.32L26.66,0h1.23L46.44,52.25h7.12v2H28.28v-2h8.59Zm-16.1-2H31L23.5,14.48h-.16Z"/><path class="cls-1" d="M78.76,23.13V32H77.14q-1.81-7.71-8.86-7.71a8,8,0,0,0-5.08,1.6,4.62,4.62,0,0,0-2,3.66,3.18,3.18,0,0,0,1.45,2.75q1.44,1,6.82,1.72,11.82,1.45,11.83,10.76a10.52,10.52,0,0,1-3.07,7.71,10.28,10.28,0,0,1-7.61,3.09,13.1,13.1,0,0,1-8.67-3.68l-2.76,2.37H57.76V42.59h1.39q3.39,11.19,11.43,11.2a8.8,8.8,0,0,0,5.53-1.94,5.65,5.65,0,0,0,2.5-4.55A3.82,3.82,0,0,0,77.12,44q-1.49-1.11-8-2.06Q58,40.34,58,32.07a8.88,8.88,0,0,1,3-6.82,10.38,10.38,0,0,1,7.3-2.75,10.55,10.55,0,0,1,7.64,3,11.46,11.46,0,0,0,1.62-2.37Z"/><path class="cls-1" d="M98.61,14.16v9H108v2H98.61V44.78a20.13,20.13,0,0,0,.57,5.89c.38,1.06,1.41,1.58,3.07,1.58A6.23,6.23,0,0,0,105.91,51a7.79,7.79,0,0,0,2.67-3.92h1.7q-1.83,7.68-11,7.67c-2.58,0-4.48-.46-5.69-1.4a5.72,5.72,0,0,1-2.24-3.46,29.17,29.17,0,0,1-.42-5.58V25.2h-7v-2h7V14.83A44,44,0,0,0,98.61,14.16Z"/><path class="cls-1" d="M127.68,22.59V52.25h5.18v2H114.47v-2H120v-27h-5.54v-2h5.62A46.75,46.75,0,0,0,127.68,22.59Zm-8-15.23a4.09,4.09,0,0,1,1.29-3,4.16,4.16,0,0,1,3-1.26,4.22,4.22,0,0,1,3,1.24,4,4,0,0,1,1.28,3,4.1,4.1,0,0,1-1.26,3.08,4.23,4.23,0,0,1-3,1.23,4.18,4.18,0,0,1-3-1.25A4.11,4.11,0,0,1,119.73,7.36Z"/><path class="cls-1" d="M182.78,55.5q-10.28,0-17.46-8.63t-7.18-18.43a28.92,28.92,0,0,1,7.53-20.11Q173.21,0,183.18,0,192.56,0,200,8.46a28.35,28.35,0,0,1,7.44,19.23A28.34,28.34,0,0,1,200,47.13Q192.52,55.5,182.78,55.5ZM182.94,2a15.36,15.36,0,0,0-7.81,2c-2.31,1.34-3.88,3.65-4.71,7s-1.24,9-1.24,17.24a101.17,101.17,0,0,0,.71,13.57,15.7,15.7,0,0,0,3.62,8.39q2.9,3.31,9.11,3.32a16.13,16.13,0,0,0,7.62-2q3.81-2,5-7.93t1.17-18.18q0-11.11-1.44-15.34a10.83,10.83,0,0,0-4.63-6.11A14.16,14.16,0,0,0,182.94,2Z"/><path class="cls-1" d="M218.74,52.25v-49h-5.66v-2h5.42a37.49,37.49,0,0,0,7.95-.6V52.25H232v2H213.08v-2Z"/><path class="cls-1" d="M248.8,22.59V52.25H254v2H235.59v-2h5.54v-27h-5.54v-2h5.62A46.75,46.75,0,0,0,248.8,22.59Zm-8-15.23a4.09,4.09,0,0,1,1.29-3,4.16,4.16,0,0,1,3-1.26,4.22,4.22,0,0,1,3,1.24,4.08,4.08,0,0,1,1.28,3,4.1,4.1,0,0,1-1.26,3.08,4.23,4.23,0,0,1-3.05,1.23,4.18,4.18,0,0,1-3-1.25A4.11,4.11,0,0,1,240.85,7.36Z"/><path class="cls-1" d="M290.69,25.2l-15,30.3h-1L259.44,25.2h-4.79v-2h19.43v2h-6l10.37,21,10.2-21h-6v-2h12.86v2Z"/><path class="cls-1" d="M325.93,36.35h-20q-.29,11.71,1.3,14.42c1.06,1.81,2.94,2.71,5.66,2.71q8.39,0,11.35-9.73h1.7q-1.31,5.89-4.94,8.7a13,13,0,0,1-8.11,2.81,15.1,15.1,0,0,1-11.07-4.73,16.14,16.14,0,0,1-4.71-11.88,16.11,16.11,0,0,1,4.61-11.71,14.44,14.44,0,0,1,10.7-4.75A13.05,13.05,0,0,1,321.68,26Q325.65,29.7,325.93,36.35Zm-20-1.78h11.51a41.73,41.73,0,0,0,.32-4.27Q317.75,24,312,24a6.29,6.29,0,0,0-4.47,1.52,5.42,5.42,0,0,0-1.62,4.14Z"/><path class="cls-1" d="M353.31,22.82v8.86h-1.63Q349.87,24,342.83,24a8,8,0,0,0-5.09,1.6,4.62,4.62,0,0,0-2,3.66A3.19,3.19,0,0,0,337.15,32c1,.67,3.24,1.25,6.82,1.72q11.83,1.47,11.83,10.76a10.45,10.45,0,0,1-3.07,7.71,10.28,10.28,0,0,1-7.61,3.09,13.06,13.06,0,0,1-8.66-3.68L333.69,54H332.3V42.28h1.39q3.39,11.2,11.43,11.2a8.82,8.82,0,0,0,5.54-1.94A5.66,5.66,0,0,0,353.15,47a3.86,3.86,0,0,0-1.48-3.28q-1.49-1.11-8-2.06Q332.54,40,332.54,31.76a8.87,8.87,0,0,1,3-6.82,11.12,11.12,0,0,1,14.93.26,11.07,11.07,0,0,0,1.62-2.38Z"/><path class="cls-1" d="M94.15,83.8V72.17h1.71V83.8Z"/><path class="cls-1" d="M104.94,73.93h-1.61V72.17h4.94v1.76h-1.62V83.8h-1.71Z"/><path class="cls-1" d="M116.58,83.8h-1.66l1.76-11.63h2.09l1.75,11.63h-1.66l-.32-2.37H116.9Zm1.73-4.18L117.82,76l0-.3h-.1l0,.3-.5,3.67Z"/><path class="cls-1" d="M128.12,83.8V72.17h1.71v10h2.27V83.8Z"/><path class="cls-1" d="M139.6,83.8V72.17h1.71V83.8Z"/><path class="cls-1" d="M150.57,83.8h-1.66l1.76-11.63h2.09l1.75,11.63h-1.66l-.31-2.37h-1.65Zm1.73-4.18L151.81,76l-.05-.3h-.1l0,.3-.49,3.67Z"/><path class="cls-1" d="M165.58,83.8l-1.66-6.06-.14-.54h-.1v6.6h-1.57V72.17h1.52l1.67,6.06.14.54h.09v-6.6h1.57V83.8Z"/><path class="cls-1" d="M187.27,79.81h1.6v1.6a3.25,3.25,0,0,1-.29,1.27,2.4,2.4,0,0,1-.27.46,2,2,0,0,1-.41.4,2,2,0,0,1-1.31.39,2.08,2.08,0,0,1-1.33-.39,1.9,1.9,0,0,1-.4-.4,4.25,4.25,0,0,1-.27-.46,3.44,3.44,0,0,1-.28-1.27V74.56a3.38,3.38,0,0,1,.28-1.25,4.39,4.39,0,0,1,.27-.47,1.69,1.69,0,0,1,.4-.4,2.18,2.18,0,0,1,.57-.29,2.49,2.49,0,0,1,.76-.11,2.42,2.42,0,0,1,.75.11,2,2,0,0,1,.56.29,1.73,1.73,0,0,1,.41.4,2.48,2.48,0,0,1,.27.47,3.19,3.19,0,0,1,.29,1.25v1.6h-1.6v-1.6a1,1,0,0,0-.25-.73.58.58,0,0,0-.4-.13.43.43,0,0,0-.34.14,1,1,0,0,0-.18.29,1.17,1.17,0,0,0,0,.2c0,.07,0,.14,0,.23v6.85a1.07,1.07,0,0,0,.27.73.42.42,0,0,0,.33.13.54.54,0,0,0,.4-.13.91.91,0,0,0,.19-.3,1.16,1.16,0,0,0,.06-.43Z"/><path class="cls-1" d="M199.54,72.17h1.71v9.24a3.44,3.44,0,0,1-.28,1.27,3.14,3.14,0,0,1-.28.46,2,2,0,0,1-.41.4,2,2,0,0,1-1.31.39,2.08,2.08,0,0,1-1.33-.39,1.9,1.9,0,0,1-.4-.4,3,3,0,0,1-.26-.46,3.25,3.25,0,0,1-.29-1.27V72.17h1.71v9.24a1.05,1.05,0,0,0,.24.73.42.42,0,0,0,.33.13.42.42,0,0,0,.34-.13.64.64,0,0,0,.17-.3,1.16,1.16,0,0,0,.06-.43Z"/><path class="cls-1" d="M209.31,83.8V72.17H211V83.8Z"/><path class="cls-1" d="M219,74.76a3.93,3.93,0,0,1,.12-1,2.6,2.6,0,0,1,.39-.88,2.08,2.08,0,0,1,1.72-.89,2.21,2.21,0,0,1,1.25.28,2,2,0,0,1,.72.75,3.32,3.32,0,0,1,.34,1,6.39,6.39,0,0,1,.08,1l-1.67.16c0-.19,0-.39,0-.59a2.34,2.34,0,0,0-.1-.55,1,1,0,0,0-.21-.39.45.45,0,0,0-.34-.15.47.47,0,0,0-.46.33,2.14,2.14,0,0,0-.13.82,1.62,1.62,0,0,0,.12.61,4.73,4.73,0,0,0,.31.65c.12.22.27.44.43.68s.32.47.49.71.39.59.58.89a10,10,0,0,1,.51.88,5.28,5.28,0,0,1,.36.9,2.89,2.89,0,0,1,.14.92,5,5,0,0,1-.11,1.11,2.57,2.57,0,0,1-.38.93,2.06,2.06,0,0,1-.72.65,2.52,2.52,0,0,1-1.16.24,2.6,2.6,0,0,1-1.31-.28,2.1,2.1,0,0,1-.75-.76,3.32,3.32,0,0,1-.34-1.09,8.49,8.49,0,0,1-.09-1.26l1.68-.15q0,.36,0,.72a2,2,0,0,0,.12.62,1.17,1.17,0,0,0,.23.46.54.54,0,0,0,.43.17.56.56,0,0,0,.54-.36,2.41,2.41,0,0,0,.16-.92,1.81,1.81,0,0,0-.13-.61,5,5,0,0,0-.32-.67l-.21-.35c-.07-.12-.15-.23-.23-.35l-.52-.76c-.18-.26-.37-.54-.56-.84a6.63,6.63,0,0,1-.84-1.8A3.34,3.34,0,0,1,219,74.76Z"/><path class="cls-1" d="M231.33,83.8V72.17H233V83.8Z"/><path class="cls-1" d="M244.58,83.8l-1.66-6.06-.14-.54h-.1v6.6h-1.56V72.17h1.52l1.66,6.06.14.54h.09v-6.6h1.57V83.8Z"/><path class="cls-1" d="M254.18,83.8V72.17h3.91v1.76h-2.2v3h1.58v1.87h-1.58v3.2h2.2V83.8Z"/><rect class="cls-1" x="270.26" y="77.62" width="85.54" height="0.86"/><rect class="cls-1" y="77.62" width="85.54" height="0.86"/></g></g></svg>