<?xml version="1.0" standalone="no"?>
<!DOCTYPE svg PUBLIC "-//W3C//DTD SVG 20010904//EN"
 "http://www.w3.org/TR/2001/REC-SVG-20010904/DTD/svg10.dtd">
<svg version="1.0" xmlns="http://www.w3.org/2000/svg"
 width="700.000000pt" height="700.000000pt" viewBox="0 0 700.000000 700.000000"
 preserveAspectRatio="xMidYMid meet">
<metadata>
Created by potrace 1.14, written by Peter Selinger 2001-2017
</metadata>
<g transform="translate(0.000000,700.000000) scale(0.100000,-0.100000)"
fill="#000000" stroke="none">
<path d="M3240 6989 c-574 -43 -1120 -224 -1610 -533 -225 -141 -392 -276
-601 -485 -292 -292 -486 -561 -665 -921 -483 -972 -483 -2128 0 -3100 182
-365 375 -631 675 -930 395 -394 842 -670 1361 -840 1138 -375 2364 -151 3305
603 129 104 409 384 511 512 436 546 685 1148 766 1850 7 61 12 220 12 355 0
135 -5 295 -12 355 -80 701 -326 1295 -761 1845 -96 122 -398 423 -521 522
-708 563 -1577 834 -2460 767z m959 -3239 l625 -1760 238 0 238 0 0 -70 0 -70
-850 0 -850 0 0 70 0 70 288 2 289 3 -172 480 -171 480 -570 3 -571 2 -180
-482 -180 -483 329 -3 328 -2 0 -70 0 -70 -645 0 -645 0 0 70 0 70 244 0 245
0 21 58 c31 81 1260 3401 1272 3435 9 24 15 27 51 27 l42 0 624 -1760z"/>
<path d="M3267 4524 c-6 -10 -507 -1378 -514 -1406 -5 -17 24 -18 511 -18 284
0 516 2 516 4 0 8 -492 1401 -499 1414 -5 8 -11 11 -14 6z"/>
</g>
</svg>
